<svg width="180" height="200" viewBox="0 0 180 200" fill="none" xmlns="http://www.w3.org/2000/svg">
<rect x="0.5" y="0.5" width="179" height="199" fill="#D9D9D9" stroke="black"/>
<circle cx="85.9298" cy="117.494" r="38.7678" fill="#A7A4A2" stroke="black" stroke-width="0.8"/>
<circle cx="91.4643" cy="94.0788" r="5.53458" fill="#FF4D7F"/>
<path d="M15.6831 179.5L15.6831 94.5045" stroke="#002F7E"/>
<line x1="15.2573" y1="94.0046" x2="79.1179" y2="94.0046" stroke="#002F7E"/>
<line y1="-0.5" x2="13.949" y2="-0.5" transform="matrix(0.985376 -0.170396 0.407681 0.913124 65.3696 96.5051)" stroke="#002F7E"/>
<line y1="-0.5" x2="13.8226" y2="-0.5" transform="matrix(0.994664 0.103171 -0.258688 0.965961 65.3696 96.5051)" stroke="#002F7E"/>
<line y1="-0.5" x2="14.0559" y2="-0.5" transform="matrix(0.984065 -0.177811 0.422775 0.906235 65.2856 100.43)" stroke="#002F7E"/>
<line y1="-0.5" x2="13.2687" y2="-0.5" transform="matrix(0.976432 0.215824 -0.495647 0.868524 65.3015 100.422)" stroke="#002F7E"/>
<path d="M62 106L78.4265 103" stroke="#002F7E"/>
<circle cx="85.9298" cy="117.494" r="33.809" stroke="black" stroke-width="0.5"/>
<path d="M73 84L73 8" stroke="#47ACDE"/>
<path d="M73.4484 83C65.3096 85.847 58.4415 91.4832 54.0611 98.9101C49.6807 106.337 48.071 115.075 49.5171 123.575C50.9633 132.075 55.372 139.789 61.9619 145.349C68.5518 150.91 76.8974 153.958 85.5198 153.953" stroke="#47ACDE" stroke-width="0.5"/>
<path d="M120.046 114.452L116.338 116.688L116.256 112.359L120.046 114.452Z" fill="#5298FA"/>
<path d="M86 84L86 8" stroke="#EA7C57"/>
<path d="M73 8L105 8" stroke="#47ACDE"/>
<path d="M105 9V1" stroke="#47ACDE"/>
<path d="M108.225 100.583C112.041 105.919 113.87 112.423 113.394 118.966C112.918 125.509 110.168 131.679 105.62 136.407C101.072 141.135 95.0125 144.123 88.4928 144.852C81.973 145.581 75.4036 144.006 69.9234 140.4C64.4431 136.793 60.3975 131.383 58.4877 125.107C56.578 118.831 56.9246 112.084 59.4674 106.036" stroke="#002F7E" stroke-width="0.5"/>
<path d="M76.9892 122.603C79.7021 112.29 81.163 106.647 87.2441 97.7358" stroke="#FF4D7F" stroke-width="0.7"/>
<path d="M79.9577 122.352C82.6706 112.039 84.1315 106.396 90.2126 97.4848" stroke="#FF4D7F" stroke-width="0.8"/>
<path d="M84.2151 124.905C86.928 114.592 91.4642 106.851 99.979 99.1874" stroke="#FF4D7F" stroke-width="0.7"/>
<path d="M88.058 139.632C91.7708 127.089 95.1516 114.606 104.662 104.722" stroke="#002F7E" stroke-width="0.7"/>
<circle cx="80.3952" cy="126.435" r="5.53458" fill="#FF4D7F"/>
<circle cx="84.6525" cy="143.464" r="5.53458" fill="#002F7E"/>
<circle cx="114.028" cy="91.0986" r="17.0295" fill="#D9D9D9"/>
<path d="M131.058 91.0986C131.058 93.3349 130.617 95.5494 129.761 97.6155C128.906 99.6816 127.651 101.559 126.07 103.14C124.489 104.722 122.611 105.976 120.545 106.832C118.479 107.688 116.265 108.128 114.028 108.128C111.792 108.128 109.577 107.688 107.511 106.832C105.445 105.976 103.568 104.722 101.987 103.14C100.405 101.559 99.1509 99.6816 98.2951 97.6155C97.4393 95.5494 96.9988 93.3349 96.9988 91.0986L114.028 91.0986H131.058Z" fill="#002F7E"/>
<path d="M99.8766 100.571C98.0031 97.7725 97.0016 94.4808 96.9988 91.1127C96.996 87.7446 97.992 84.4513 99.8609 81.6493C101.73 78.8472 104.388 76.6623 107.498 75.3708C110.609 74.0793 114.033 73.7392 117.337 74.3936L116.623 77.995C114.032 77.4817 111.346 77.7485 108.906 78.7616C106.466 79.7746 104.381 81.4885 102.915 83.6864C101.449 85.8844 100.668 88.4677 100.67 91.1097C100.672 93.7516 101.458 96.3336 102.928 98.5291L99.8766 100.571Z" fill="#FF83FD"/>
<path d="M88 163L88 180" stroke="#AE902D"/>
<path d="M130.919 152.763L132.335 150.24L133.751 152.763H130.919Z" stroke="#AE902D" stroke-width="0.5"/>
<path d="M130.919 147.789L132.335 150.313L133.751 147.789H130.919Z" stroke="#AE902D" stroke-width="0.5"/>
<path d="M13.5545 84.2869L11.3423 81.0938L15.7667 81.0938L13.5545 84.2869Z" fill="#FF83FD"/>
<path d="M97.9385 136.227L115.731 154.02" stroke="black" stroke-width="0.6"/>
<path d="M94.0185 140.059L110.257 157.63" stroke="black" stroke-width="0.6"/>
<path d="M94.9067 133.712L99.634 134.493L96.2902 138.299L94.9067 133.712Z" fill="#0EA30E"/>
<path d="M91.2663 137.854L95.9937 138.636L92.6498 142.442L91.2663 137.854Z" fill="#0EA30E"/>
<path d="M100.706 131.118L119.563 149.975" stroke="black" stroke-width="0.6"/>
<path d="M98.547 129.567L103.274 130.349L99.9305 134.155L98.547 129.567Z" fill="#0EA30E"/>
<path d="M104.75 127.712L123.395 146.356" stroke="black" stroke-width="0.6"/>
<path d="M102.187 125.425L106.915 126.206L103.571 130.012L102.187 125.425Z" fill="#0EA30E"/>
<path d="M108.156 123.455L126.375 141.673" stroke="black" stroke-width="0.6"/>
<path d="M105.828 121.281L110.555 122.062L107.211 125.868L105.828 121.281Z" fill="#0EA30E"/>
<path d="M112.325 119.322L129.355 136.351" stroke="black" stroke-width="0.6"/>
<path d="M109.468 117.138L114.196 117.919L110.852 121.725L109.468 117.138Z" fill="#0EA30E"/>
<path d="M55 63.5L60 66.3868V60.6132L55 63.5ZM110 63L59.5 63V64H110V63Z" fill="#FF83FD"/>
<path d="M63 142H25" stroke="#FF83FD"/>
<path d="M25 152L25 1" stroke="#FF83FD"/>
<path d="M25 154L27.8868 149L22.1132 149L25 154ZM25.5 149.5L25.5 142L24.5 142L24.5 149.5L25.5 149.5Z" fill="#FF83FD"/>
<path d="M81.0308 126L62.0001 142.212" stroke="#FF83FD"/>
<path d="M46.5005 63.4258L13.5545 63.4258" stroke="#FF83FD"/>
<path d="M13.5544 63L13.5544 81.7324" stroke="#FF83FD"/>
<path d="M13.5544 1L13.5544 63" stroke="#FF83FD"/>
<path d="M110.197 65.804L110.197 63.0001" stroke="#FF83FD"/>
<path d="M110.197 74.9207L110.197 71.089" stroke="#FF83FD"/>
<path d="M132.463 127.331C130.146 137.546 124.443 146.676 116.279 153.238C108.116 159.799 98.106 163.407 87.6326 163.473" stroke="#AE902D" stroke-width="0.8"/>
<path d="M132.335 126.861V147.722" stroke="#AE902D"/>
<path d="M132.335 165.603L135.222 160.603L129.448 160.603L132.335 165.603ZM131.835 152.831L131.835 161.103L132.835 161.103L132.835 152.831L131.835 152.831Z" fill="#AE902D"/>
<path d="M48.1928 59.1963L51 62.0034L53.7926 59.2109C53.8543 59.1452 53.9286 59.0927 54.0111 59.0565C54.0936 59.0202 54.1825 59.001 54.2726 59C54.4655 59 54.6505 59.0766 54.7869 59.213C54.9233 59.3494 54.9999 59.5343 54.9999 59.7272C55.0016 59.8164 54.985 59.9049 54.9513 59.9875C54.9175 60.07 54.8672 60.1448 54.8035 60.2072L51.9745 62.9997L54.8035 65.8286C54.9234 65.9459 54.9937 66.1046 54.9999 66.2722C54.9999 66.4651 54.9233 66.65 54.7869 66.7864C54.6505 66.9228 54.4655 66.9994 54.2726 66.9994C54.1799 67.0033 54.0875 66.9878 54.0011 66.954C53.9147 66.9202 53.8363 66.8688 53.7708 66.8031L51 63.996L48.2001 66.7958C48.1386 66.8593 48.0652 66.9099 47.9841 66.9449C47.903 66.9798 47.8157 66.9984 47.7274 66.9994C47.5345 66.9994 47.3495 66.9228 47.2131 66.7864C47.0767 66.65 47.0001 66.4651 47.0001 66.2722C46.9984 66.183 47.015 66.0945 47.0487 66.0119C47.0825 65.9294 47.1328 65.8546 47.1965 65.7922L50.0255 62.9997L47.1965 60.1708C47.0766 60.0536 47.0063 59.8948 47.0001 59.7272C47.0001 59.5343 47.0767 59.3494 47.2131 59.213C47.3495 59.0766 47.5345 59 47.7274 59C47.9019 59.0022 48.0692 59.0727 48.1928 59.1963Z" fill="#FF83FD"/>
<path d="M108.762 71.4643L110.5 68.3679L112.238 71.4643H108.762Z" stroke="#FF83FD" stroke-width="0.5"/>
<path d="M108.762 65.5357L110.5 68.6321L112.238 65.5357H108.762Z" stroke="#FF83FD" stroke-width="0.5"/>
<path d="M58.4426 106.346L61.75 103.551L62.5167 107.813L58.4426 106.346Z" fill="#002F7E"/>
<line x1="119" y1="114.5" x2="150" y2="114.5" stroke="#5298FA"/>
<path d="M149.5 114L149.5 1" stroke="#5298FA"/>
<path d="M25.2642 183.203V182.636H28.6413V183.203H27.2798V187H26.6236V183.203H25.2642ZM29.671 187L28.7079 183.727H29.3663L30.0076 186.131H30.0396L30.6831 183.727H31.3414L31.9806 186.12H32.0126L32.6497 183.727H33.3081L32.3471 187H31.6973L31.0325 184.637H30.9835L30.3187 187H29.671ZM35.1916 187.066C34.8848 187.066 34.617 186.996 34.3883 186.855C34.1596 186.714 33.9821 186.518 33.8556 186.265C33.7292 186.012 33.666 185.717 33.666 185.379C33.666 185.039 33.7292 184.742 33.8556 184.488C33.9821 184.234 34.1596 184.036 34.3883 183.896C34.617 183.755 34.8848 183.685 35.1916 183.685C35.4984 183.685 35.7662 183.755 35.9949 183.896C36.2235 184.036 36.4011 184.234 36.5275 184.488C36.6539 184.742 36.7172 185.039 36.7172 185.379C36.7172 185.717 36.6539 186.012 36.5275 186.265C36.4011 186.518 36.2235 186.714 35.9949 186.855C35.7662 186.996 35.4984 187.066 35.1916 187.066ZM35.1937 186.531C35.3926 186.531 35.5574 186.479 35.688 186.374C35.8187 186.268 35.9153 186.129 35.9778 185.954C36.0417 185.779 36.0737 185.587 36.0737 185.376C36.0737 185.168 36.0417 184.976 35.9778 184.801C35.9153 184.625 35.8187 184.484 35.688 184.377C35.5574 184.271 35.3926 184.217 35.1937 184.217C34.9934 184.217 34.8272 184.271 34.6951 184.377C34.5645 184.484 34.4672 184.625 34.4032 184.801C34.3407 184.976 34.3095 185.168 34.3095 185.376C34.3095 185.587 34.3407 185.779 34.4032 185.954C34.4672 186.129 34.5645 186.268 34.6951 186.374C34.8272 186.479 34.9934 186.531 35.1937 186.531ZM39.3565 184.88V185.432H37.4219V184.88H39.3565ZM40.2567 187V182.636H40.8938V184.258H40.9322C40.9691 184.19 41.0224 184.111 41.092 184.021C41.1616 183.932 41.2582 183.854 41.3817 183.787C41.5053 183.719 41.6687 183.685 41.8718 183.685C42.136 183.685 42.3718 183.751 42.5792 183.885C42.7866 184.018 42.9492 184.211 43.0671 184.462C43.1864 184.714 43.2461 185.016 43.2461 185.37C43.2461 185.724 43.1871 186.027 43.0692 186.28C42.9513 186.531 42.7894 186.725 42.5835 186.862C42.3775 186.996 42.1424 187.064 41.8782 187.064C41.6793 187.064 41.5167 187.031 41.3903 186.964C41.2653 186.897 41.1673 186.819 41.0962 186.729C41.0252 186.64 40.9705 186.56 40.9322 186.491H40.8789V187H40.2567ZM40.881 185.364C40.881 185.594 40.9144 185.795 40.9812 185.969C41.0479 186.142 41.1445 186.278 41.271 186.376C41.3974 186.472 41.5522 186.521 41.7354 186.521C41.9258 186.521 42.0849 186.47 42.2127 186.369C42.3406 186.267 42.4371 186.129 42.5025 185.954C42.5692 185.779 42.6026 185.582 42.6026 185.364C42.6026 185.148 42.57 184.954 42.5046 184.782C42.4407 184.61 42.3441 184.474 42.2148 184.375C42.087 184.276 41.9272 184.226 41.7354 184.226C41.5508 184.226 41.3945 184.273 41.2667 184.369C41.1403 184.464 41.0444 184.597 40.979 184.767C40.9137 184.937 40.881 185.136 40.881 185.364ZM45.34 187.066C45.0332 187.066 44.7654 186.996 44.5368 186.855C44.3081 186.714 44.1305 186.518 44.0041 186.265C43.8777 186.012 43.8145 185.717 43.8145 185.379C43.8145 185.039 43.8777 184.742 44.0041 184.488C44.1305 184.234 44.3081 184.036 44.5368 183.896C44.7654 183.755 45.0332 183.685 45.34 183.685C45.6468 183.685 45.9146 183.755 46.1433 183.896C46.372 184.036 46.5495 184.234 46.676 184.488C46.8024 184.742 46.8656 185.039 46.8656 185.379C46.8656 185.717 46.8024 186.012 46.676 186.265C46.5495 186.518 46.372 186.714 46.1433 186.855C45.9146 186.996 45.6468 187.066 45.34 187.066ZM45.3422 186.531C45.541 186.531 45.7058 186.479 45.8365 186.374C45.9672 186.268 46.0637 186.129 46.1262 185.954C46.1902 185.779 46.2221 185.587 46.2221 185.376C46.2221 185.168 46.1902 184.976 46.1262 184.801C46.0637 184.625 45.9672 184.484 45.8365 184.377C45.7058 184.271 45.541 184.217 45.3422 184.217C45.1419 184.217 44.9757 184.271 44.8436 184.377C44.7129 184.484 44.6156 184.625 44.5517 184.801C44.4892 184.976 44.4579 185.168 44.4579 185.376C44.4579 185.587 44.4892 185.779 44.5517 185.954C44.6156 186.129 44.7129 186.268 44.8436 186.374C44.9757 186.479 45.1419 186.531 45.3422 186.531ZM47.5767 187V183.727H48.2138V187H47.5767ZM47.8984 183.222C47.7876 183.222 47.6925 183.185 47.6129 183.112C47.5348 183.036 47.4957 182.947 47.4957 182.843C47.4957 182.738 47.5348 182.648 47.6129 182.575C47.6925 182.499 47.7876 182.462 47.8984 182.462C48.0092 182.462 48.1037 182.499 48.1818 182.575C48.2614 182.648 48.3011 182.738 48.3011 182.843C48.3011 182.947 48.2614 183.036 48.1818 183.112C48.1037 183.185 48.0092 183.222 47.8984 183.222ZM49.7079 182.636V187H49.0708V182.636H49.7079ZM51.9755 187.066C51.6531 187.066 51.3754 186.997 51.1424 186.859C50.9109 186.72 50.7319 186.525 50.6055 186.273C50.4805 186.021 50.418 185.724 50.418 185.385C50.418 185.05 50.4805 184.754 50.6055 184.499C50.7319 184.243 50.908 184.043 51.1339 183.9C51.3612 183.756 51.6268 183.685 51.9308 183.685C52.1154 183.685 52.2944 183.715 52.4677 183.776C52.641 183.837 52.7965 183.933 52.9343 184.064C53.0721 184.195 53.1808 184.364 53.2603 184.573C53.3398 184.781 53.3796 185.033 53.3796 185.33V185.555H50.7781V185.078H52.7553C52.7553 184.911 52.7212 184.762 52.6531 184.633C52.5849 184.502 52.489 184.399 52.3654 184.324C52.2433 184.249 52.0998 184.211 51.935 184.211C51.756 184.211 51.5998 184.255 51.4663 184.343C51.3342 184.43 51.2319 184.543 51.1594 184.684C51.0884 184.823 51.0529 184.974 51.0529 185.138V185.511C51.0529 185.729 51.0913 185.915 51.168 186.069C51.2461 186.222 51.3548 186.339 51.494 186.42C51.6332 186.5 51.7958 186.54 51.9819 186.54C52.1026 186.54 52.2127 186.523 52.3121 186.489C52.4116 186.453 52.4975 186.401 52.57 186.331C52.6424 186.261 52.6978 186.175 52.7362 186.073L53.3391 186.182C53.2908 186.359 53.2042 186.515 53.0792 186.648C52.9556 186.781 52.8001 186.884 52.6126 186.957C52.4265 187.03 52.2141 187.066 51.9755 187.066ZM54.0865 187V183.727H54.7022V184.247H54.7363C54.796 184.071 54.9011 183.933 55.0517 183.832C55.2037 183.729 55.3755 183.678 55.5673 183.678C55.6071 183.678 55.6539 183.68 55.7079 183.683C55.7633 183.685 55.8066 183.689 55.8379 183.693V184.303C55.8123 184.295 55.7669 184.288 55.7015 184.279C55.6362 184.269 55.5708 184.264 55.5055 184.264C55.3549 184.264 55.2207 184.296 55.1028 184.36C54.9863 184.423 54.894 184.51 54.8258 184.622C54.7576 184.733 54.7235 184.859 54.7235 185.001V187H54.0865ZM57.9771 188.227V183.727H58.5993V184.258H58.6525C58.6895 184.19 58.7427 184.111 58.8123 184.021C58.8819 183.932 58.9785 183.854 59.1021 183.787C59.2257 183.719 59.389 183.685 59.5922 183.685C59.8564 183.685 60.0922 183.751 60.2995 183.885C60.5069 184.018 60.6696 184.211 60.7875 184.462C60.9068 184.714 60.9664 185.016 60.9664 185.37C60.9664 185.724 60.9075 186.027 60.7896 186.28C60.6717 186.531 60.5098 186.725 60.3038 186.862C60.0978 186.996 59.8627 187.064 59.5985 187.064C59.3997 187.064 59.237 187.031 59.1106 186.964C58.9856 186.897 58.8876 186.819 58.8166 186.729C58.7456 186.64 58.6909 186.56 58.6525 186.491H58.6142V188.227H57.9771ZM58.6014 185.364C58.6014 185.594 58.6348 185.795 58.7015 185.969C58.7683 186.142 58.8649 186.278 58.9913 186.376C59.1177 186.472 59.2725 186.521 59.4558 186.521C59.6461 186.521 59.8052 186.47 59.9331 186.369C60.0609 186.267 60.1575 186.129 60.2228 185.954C60.2896 185.779 60.323 185.582 60.323 185.364C60.323 185.148 60.2903 184.954 60.225 184.782C60.161 184.61 60.0645 184.474 59.9352 184.375C59.8074 184.276 59.6475 184.226 59.4558 184.226C59.2711 184.226 59.1149 184.273 58.987 184.369C58.8606 184.464 58.7647 184.597 58.6994 184.767C58.6341 184.937 58.6014 185.136 58.6014 185.364ZM62.3173 182.636V187H61.6802V182.636H62.3173ZM64.1268 187.072C63.9194 187.072 63.7319 187.034 63.5643 186.957C63.3967 186.879 63.2638 186.766 63.1658 186.619C63.0692 186.471 63.021 186.29 63.021 186.075C63.021 185.891 63.0565 185.739 63.1275 185.619C63.1985 185.5 63.2944 185.406 63.4151 185.336C63.5359 185.266 63.6708 185.214 63.82 185.178C63.9691 185.143 64.1211 185.116 64.2759 185.097C64.4719 185.075 64.631 185.056 64.7532 185.042C64.8754 185.026 64.9641 185.001 65.0195 184.967C65.0749 184.933 65.1026 184.878 65.1026 184.801V184.786C65.1026 184.6 65.0501 184.456 64.945 184.354C64.8413 184.251 64.6864 184.2 64.4805 184.2C64.266 184.2 64.0969 184.248 63.9734 184.343C63.8512 184.437 63.7667 184.541 63.7198 184.656L63.1211 184.52C63.1921 184.321 63.2958 184.161 63.4322 184.038C63.57 183.915 63.7283 183.825 63.9073 183.77C64.0863 183.713 64.2745 183.685 64.4719 183.685C64.6026 183.685 64.7411 183.7 64.8874 183.732C65.0352 183.761 65.1729 183.817 65.3008 183.898C65.43 183.979 65.5359 184.094 65.6183 184.245C65.7006 184.394 65.7418 184.588 65.7418 184.827V187H65.1197V186.553H65.0941C65.0529 186.635 64.9911 186.716 64.9087 186.795C64.8263 186.875 64.7205 186.941 64.5913 186.994C64.462 187.046 64.3072 187.072 64.1268 187.072ZM64.2653 186.561C64.4414 186.561 64.592 186.526 64.717 186.457C64.8434 186.387 64.9393 186.296 65.0046 186.184C65.0714 186.07 65.1048 185.949 65.1048 185.82V185.398C65.082 185.42 65.038 185.442 64.9727 185.462C64.9087 185.48 64.8356 185.496 64.7532 185.511C64.6708 185.523 64.5906 185.536 64.5124 185.547C64.4343 185.557 64.369 185.565 64.3164 185.572C64.1928 185.588 64.0799 185.614 63.9776 185.651C63.8768 185.688 63.7958 185.741 63.7347 185.811C63.6751 185.879 63.6452 185.97 63.6452 186.084C63.6452 186.241 63.7035 186.361 63.82 186.442C63.9364 186.521 64.0849 186.561 64.2653 186.561ZM67.2275 185.057V187H66.5904V183.727H67.2019V184.26H67.2424C67.3176 184.087 67.4355 183.947 67.5961 183.842C67.758 183.737 67.9618 183.685 68.2076 183.685C68.4306 183.685 68.6259 183.732 68.7935 183.825C68.9611 183.918 69.0911 184.055 69.1834 184.239C69.2757 184.422 69.3219 184.648 69.3219 184.918V187H68.6848V184.995C68.6848 184.758 68.623 184.572 68.4995 184.439C68.3759 184.304 68.2061 184.237 67.9902 184.237C67.8425 184.237 67.7111 184.268 67.5961 184.332C67.4824 184.396 67.3922 184.49 67.3255 184.614C67.2601 184.736 67.2275 184.884 67.2275 185.057ZM71.704 183.727V184.239H69.9164V183.727H71.704ZM70.3958 182.943H71.0328V186.039C71.0328 186.163 71.0513 186.256 71.0882 186.318C71.1252 186.379 71.1728 186.421 71.231 186.444C71.2907 186.465 71.3553 186.476 71.4249 186.476C71.476 186.476 71.5208 186.472 71.5591 186.465C71.5975 186.458 71.6273 186.452 71.6486 186.448L71.7637 186.974C71.7267 186.989 71.6742 187.003 71.606 187.017C71.5378 187.033 71.4526 187.041 71.3503 187.043C71.1827 187.045 71.0265 187.016 70.8816 186.953C70.7367 186.891 70.6195 186.794 70.53 186.663C70.4405 186.533 70.3958 186.369 70.3958 186.171V182.943Z" fill="black"/>
<path d="M3.8608 191.636L5.07528 195.19H5.12429L6.33878 191.636H7.05043L5.48011 196H4.71946L3.14915 191.636H3.8608ZM7.62944 196V192.727H8.26651V196H7.62944ZM7.95117 192.222C7.84038 192.222 7.74521 192.185 7.66566 192.112C7.58754 192.036 7.54847 191.947 7.54847 191.843C7.54847 191.738 7.58754 191.648 7.66566 191.575C7.74521 191.499 7.84038 191.462 7.95117 191.462C8.06197 191.462 8.15643 191.499 8.23455 191.575C8.3141 191.648 8.35387 191.738 8.35387 191.843C8.35387 191.947 8.3141 192.036 8.23455 192.112C8.15643 192.185 8.06197 192.222 7.95117 192.222ZM10.3487 196.064C10.0845 196.064 9.84872 195.996 9.64134 195.862C9.43537 195.725 9.27344 195.531 9.15554 195.28C9.03906 195.027 8.98082 194.724 8.98082 194.37C8.98082 194.016 9.03977 193.714 9.15767 193.462C9.27699 193.211 9.44034 193.018 9.64773 192.885C9.85511 192.751 10.0902 192.685 10.353 192.685C10.5561 192.685 10.7195 192.719 10.843 192.787C10.968 192.854 11.0646 192.932 11.1328 193.021C11.2024 193.111 11.2564 193.19 11.2947 193.258H11.3331V191.636H11.9702V196H11.348V195.491H11.2947C11.2564 195.56 11.201 195.64 11.1286 195.729C11.0575 195.819 10.9595 195.897 10.8345 195.964C10.7095 196.031 10.5476 196.064 10.3487 196.064ZM10.4893 195.521C10.6726 195.521 10.8274 195.472 10.9538 195.376C11.0817 195.278 11.1783 195.142 11.2436 194.969C11.3104 194.795 11.3438 194.594 11.3438 194.364C11.3438 194.136 11.3111 193.937 11.2457 193.767C11.1804 193.597 11.0845 193.464 10.9581 193.369C10.8317 193.273 10.6754 193.226 10.4893 193.226C10.2976 193.226 10.1378 193.276 10.0099 193.375C9.8821 193.474 9.78551 193.61 9.72017 193.782C9.65625 193.954 9.62429 194.148 9.62429 194.364C9.62429 194.582 9.65696 194.779 9.7223 194.954C9.78764 195.129 9.88423 195.267 10.0121 195.369C10.1413 195.47 10.3004 195.521 10.4893 195.521ZM14.29 196.066C13.9675 196.066 13.6898 195.997 13.4569 195.859C13.2253 195.72 13.0463 195.525 12.9199 195.273C12.7949 195.021 12.7324 194.724 12.7324 194.385C12.7324 194.05 12.7949 193.754 12.9199 193.499C13.0463 193.243 13.2225 193.043 13.4483 192.9C13.6756 192.756 13.9412 192.685 14.2452 192.685C14.4299 192.685 14.6088 192.715 14.7821 192.776C14.9554 192.837 15.111 192.933 15.2488 193.064C15.3865 193.195 15.4952 193.364 15.5748 193.573C15.6543 193.781 15.6941 194.033 15.6941 194.33V194.555H13.0925V194.078H15.0698C15.0698 193.911 15.0357 193.762 14.9675 193.633C14.8993 193.502 14.8034 193.399 14.6799 193.324C14.5577 193.249 14.4142 193.211 14.2495 193.211C14.0705 193.211 13.9142 193.255 13.7807 193.343C13.6486 193.43 13.5463 193.543 13.4739 193.684C13.4029 193.823 13.3674 193.974 13.3674 194.138V194.511C13.3674 194.729 13.4057 194.915 13.4824 195.069C13.5605 195.222 13.6692 195.339 13.8084 195.42C13.9476 195.5 14.1103 195.54 14.2963 195.54C14.4171 195.54 14.5272 195.523 14.6266 195.489C14.726 195.453 14.812 195.401 14.8844 195.331C14.9569 195.261 15.0123 195.175 15.0506 195.073L15.6536 195.182C15.6053 195.359 15.5186 195.515 15.3936 195.648C15.2701 195.781 15.1145 195.884 14.927 195.957C14.7409 196.03 14.5286 196.066 14.29 196.066ZM17.7795 196.066C17.4727 196.066 17.2049 195.996 16.9762 195.855C16.7475 195.714 16.57 195.518 16.4435 195.265C16.3171 195.012 16.2539 194.717 16.2539 194.379C16.2539 194.039 16.3171 193.742 16.4435 193.488C16.57 193.234 16.7475 193.036 16.9762 192.896C17.2049 192.755 17.4727 192.685 17.7795 192.685C18.0863 192.685 18.354 192.755 18.5827 192.896C18.8114 193.036 18.989 193.234 19.1154 193.488C19.2418 193.742 19.305 194.039 19.305 194.379C19.305 194.717 19.2418 195.012 19.1154 195.265C18.989 195.518 18.8114 195.714 18.5827 195.855C18.354 195.996 18.0863 196.066 17.7795 196.066ZM17.7816 195.531C17.9805 195.531 18.1452 195.479 18.2759 195.374C18.4066 195.268 18.5032 195.129 18.5657 194.954C18.6296 194.779 18.6616 194.587 18.6616 194.376C18.6616 194.168 18.6296 193.976 18.5657 193.801C18.5032 193.625 18.4066 193.484 18.2759 193.377C18.1452 193.271 17.9805 193.217 17.7816 193.217C17.5813 193.217 17.4151 193.271 17.283 193.377C17.1523 193.484 17.055 193.625 16.9911 193.801C16.9286 193.976 16.8974 194.168 16.8974 194.376C16.8974 194.587 16.9286 194.779 16.9911 194.954C17.055 195.129 17.1523 195.268 17.283 195.374C17.4151 195.479 17.5813 195.531 17.7816 195.531ZM23.1616 192.727V193.239H21.3121V192.727H23.1616ZM21.8192 196V192.348C21.8192 192.143 21.864 191.974 21.9535 191.839C22.043 191.702 22.1616 191.601 22.3093 191.534C22.457 191.466 22.6175 191.432 22.7908 191.432C22.9187 191.432 23.0281 191.442 23.119 191.464C23.2099 191.484 23.2773 191.502 23.3214 191.519L23.1722 192.035C23.1424 192.026 23.104 192.016 23.0572 192.005C23.0103 191.992 22.9535 191.986 22.8867 191.986C22.7319 191.986 22.6211 192.024 22.5543 192.101C22.489 192.178 22.4563 192.288 22.4563 192.433V196H21.8192ZM23.8189 196V192.727H24.4347V193.247H24.4688C24.5284 193.071 24.6335 192.933 24.7841 192.832C24.9361 192.729 25.108 192.678 25.2997 192.678C25.3395 192.678 25.3864 192.68 25.4403 192.683C25.4957 192.685 25.5391 192.689 25.5703 192.693V193.303C25.5447 193.295 25.4993 193.288 25.4339 193.279C25.3686 193.269 25.3033 193.264 25.2379 193.264C25.0874 193.264 24.9531 193.296 24.8352 193.36C24.7188 193.423 24.6264 193.51 24.5582 193.622C24.4901 193.733 24.456 193.859 24.456 194.001V196H23.8189ZM27.0447 196.072C26.8374 196.072 26.6499 196.034 26.4822 195.957C26.3146 195.879 26.1818 195.766 26.0838 195.619C25.9872 195.471 25.9389 195.29 25.9389 195.075C25.9389 194.891 25.9744 194.739 26.0455 194.619C26.1165 194.5 26.2124 194.406 26.3331 194.336C26.4538 194.266 26.5888 194.214 26.7379 194.178C26.8871 194.143 27.0391 194.116 27.1939 194.097C27.3899 194.075 27.549 194.056 27.6712 194.042C27.7933 194.026 27.8821 194.001 27.9375 193.967C27.9929 193.933 28.0206 193.878 28.0206 193.801V193.786C28.0206 193.6 27.968 193.456 27.8629 193.354C27.7592 193.251 27.6044 193.2 27.3984 193.2C27.1839 193.2 27.0149 193.248 26.8913 193.343C26.7692 193.437 26.6847 193.541 26.6378 193.656L26.0391 193.52C26.1101 193.321 26.2138 193.161 26.3501 193.038C26.4879 192.915 26.6463 192.825 26.8253 192.77C27.0043 192.713 27.1925 192.685 27.3899 192.685C27.5206 192.685 27.6591 192.7 27.8054 192.732C27.9531 192.761 28.0909 192.817 28.2188 192.898C28.348 192.979 28.4538 193.094 28.5362 193.245C28.6186 193.394 28.6598 193.588 28.6598 193.827V196H28.0376V195.553H28.0121C27.9709 195.635 27.9091 195.716 27.8267 195.795C27.7443 195.875 27.6385 195.941 27.5092 195.994C27.38 196.046 27.2251 196.072 27.0447 196.072ZM27.1832 195.561C27.3594 195.561 27.5099 195.526 27.6349 195.457C27.7614 195.387 27.8572 195.296 27.9226 195.184C27.9893 195.07 28.0227 194.949 28.0227 194.82V194.398C28 194.42 27.956 194.442 27.8906 194.462C27.8267 194.48 27.7536 194.496 27.6712 194.511C27.5888 194.523 27.5085 194.536 27.4304 194.547C27.3523 194.557 27.2869 194.565 27.2344 194.572C27.1108 194.588 26.9979 194.614 26.8956 194.651C26.7947 194.688 26.7138 194.741 26.6527 194.811C26.593 194.879 26.5632 194.97 26.5632 195.084C26.5632 195.241 26.6214 195.361 26.7379 195.442C26.8544 195.521 27.0028 195.561 27.1832 195.561ZM29.5083 196V192.727H30.1199V193.26H30.1603C30.2285 193.08 30.34 192.939 30.4949 192.838C30.6497 192.736 30.835 192.685 31.051 192.685C31.2697 192.685 31.4529 192.736 31.6007 192.838C31.7498 192.94 31.8599 193.081 31.9309 193.26H31.965C32.0431 193.085 32.1674 192.946 32.3379 192.842C32.5083 192.737 32.7115 192.685 32.9473 192.685C33.2441 192.685 33.4863 192.778 33.6738 192.964C33.8627 193.15 33.9572 193.43 33.9572 193.805V196H33.3201V193.865C33.3201 193.643 33.2598 193.483 33.139 193.384C33.0183 193.284 32.8741 193.234 32.7065 193.234C32.4991 193.234 32.3379 193.298 32.2228 193.426C32.1078 193.553 32.0502 193.715 32.0502 193.914V196H31.4153V193.825C31.4153 193.647 31.3599 193.504 31.2491 193.396C31.1383 193.288 30.9941 193.234 30.8166 193.234C30.6958 193.234 30.5843 193.266 30.4821 193.33C30.3812 193.393 30.2995 193.48 30.237 193.592C30.176 193.705 30.1454 193.835 30.1454 193.982V196H29.5083ZM36.2216 196.066C35.8991 196.066 35.6214 195.997 35.3885 195.859C35.157 195.72 34.978 195.525 34.8516 195.273C34.7266 195.021 34.6641 194.724 34.6641 194.385C34.6641 194.05 34.7266 193.754 34.8516 193.499C34.978 193.243 35.1541 193.043 35.38 192.9C35.6072 192.756 35.8729 192.685 36.1768 192.685C36.3615 192.685 36.5405 192.715 36.7138 192.776C36.8871 192.837 37.0426 192.933 37.1804 193.064C37.3182 193.195 37.4268 193.364 37.5064 193.573C37.5859 193.781 37.6257 194.033 37.6257 194.33V194.555H35.0241V194.078H37.0014C37.0014 193.911 36.9673 193.762 36.8991 193.633C36.831 193.502 36.7351 193.399 36.6115 193.324C36.4893 193.249 36.3459 193.211 36.1811 193.211C36.0021 193.211 35.8459 193.255 35.7124 193.343C35.5803 193.43 35.478 193.543 35.4055 193.684C35.3345 193.823 35.299 193.974 35.299 194.138V194.511C35.299 194.729 35.3374 194.915 35.4141 195.069C35.4922 195.222 35.6009 195.339 35.7401 195.42C35.8793 195.5 36.0419 195.54 36.228 195.54C36.3487 195.54 36.4588 195.523 36.5582 195.489C36.6577 195.453 36.7436 195.401 36.8161 195.331C36.8885 195.261 36.9439 195.175 36.9822 195.073L37.5852 195.182C37.5369 195.359 37.4503 195.515 37.3253 195.648C37.2017 195.781 37.0462 195.884 36.8587 195.957C36.6726 196.03 36.4602 196.066 36.2216 196.066ZM43.4936 191.636V196H42.8885L40.6705 192.8H40.63V196H39.9716V191.636H40.581L42.8011 194.841H42.8416V191.636H43.4936ZM45.3532 193.701C45.16 193.701 44.9838 193.654 44.8248 193.56C44.6671 193.465 44.5414 193.339 44.4476 193.181C44.3539 193.022 44.307 192.846 44.307 192.653C44.307 192.461 44.3539 192.286 44.4476 192.129C44.5414 191.969 44.6671 191.843 44.8248 191.749C44.9838 191.654 45.16 191.607 45.3532 191.607C45.5463 191.607 45.7218 191.654 45.8794 191.749C46.0385 191.843 46.165 191.969 46.2587 192.129C46.3525 192.286 46.3993 192.461 46.3993 192.653C46.3993 192.846 46.3525 193.022 46.2587 193.181C46.165 193.339 46.0385 193.465 45.8794 193.56C45.7218 193.654 45.5463 193.701 45.3532 193.701ZM45.3532 193.096C45.4355 193.096 45.5101 193.076 45.5769 193.036C45.6436 192.996 45.6962 192.943 45.7346 192.876C45.7743 192.81 45.7942 192.735 45.7942 192.653C45.7942 192.572 45.7743 192.498 45.7346 192.431C45.6962 192.364 45.6436 192.311 45.5769 192.271C45.5101 192.232 45.4355 192.212 45.3532 192.212C45.2722 192.212 45.1983 192.232 45.1316 192.271C45.0648 192.311 45.0115 192.364 44.9718 192.431C44.932 192.498 44.9121 192.572 44.9121 192.653C44.9121 192.735 44.932 192.81 44.9718 192.876C45.0115 192.943 45.0648 192.996 45.1316 193.036C45.1983 193.076 45.2722 193.096 45.3532 193.096ZM47.1541 196V195.523L48.6307 193.993C48.7884 193.827 48.9183 193.681 49.0206 193.556C49.1243 193.43 49.2017 193.31 49.2528 193.196C49.304 193.082 49.3295 192.962 49.3295 192.834C49.3295 192.689 49.2955 192.564 49.2273 192.459C49.1591 192.352 49.0661 192.271 48.9482 192.214C48.8303 192.156 48.6974 192.126 48.5497 192.126C48.3935 192.126 48.2571 192.158 48.1406 192.222C48.0241 192.286 47.9347 192.376 47.8722 192.493C47.8097 192.609 47.7784 192.746 47.7784 192.902H47.1499C47.1499 192.636 47.2109 192.404 47.3331 192.205C47.4553 192.006 47.6229 191.852 47.8359 191.743C48.049 191.632 48.2912 191.577 48.5625 191.577C48.8366 191.577 49.0781 191.631 49.2869 191.741C49.4972 191.849 49.6612 191.996 49.7791 192.184C49.897 192.37 49.956 192.58 49.956 192.815C49.956 192.977 49.9254 193.135 49.8643 193.29C49.8047 193.445 49.7003 193.617 49.5511 193.808C49.402 193.996 49.1946 194.226 48.929 194.496L48.0618 195.403V195.435H50.0263V196H47.1541Z" fill="black"/>
<path d="M0 180H180" stroke="black"/>
</svg>
