<svg width="180" height="200" viewBox="0 0 180 200" fill="none" xmlns="http://www.w3.org/2000/svg">
<g clip-path="url(#clip0_3786_205)">
<path d="M179.5 0.5H0.5V199.5H179.5V0.5Z" fill="#D9D9D9" stroke="black"/>
<path d="M1 178.5H180" stroke="black"/>
<path d="M85.7951 92.9233H21.4573V106.87H85.7951V92.9233Z" fill="#5298FA" stroke="#444D5E"/>
<path d="M20.9572 134.701L9 122.743V77.9038L20.9572 65.9465V134.701Z" fill="#5298FA" stroke="#444D5E"/>
<path d="M165.226 92.4961H132.489V106.443H165.226V92.4961Z" fill="#5298FA" stroke="#444D5E"/>
<path d="M85.8682 51L131.989 68.0818V132.138L85.8682 149.22V51Z" fill="#5298FA" stroke="#444D5E"/>
<path d="M171.704 145.377L159.747 129.706V70.9412L171.704 55.2705V145.377Z" fill="#5298FA" stroke="#444D5E"/>
<path d="M55.9018 88.2258H50.4961V112.849H55.9018V88.2258Z" fill="#5298FA" stroke="#486085"/>
<path d="M67.2642 183.203V182.636H70.6413V183.203H69.2798V187H68.6236V183.203H67.2642ZM71.3876 187V182.636H72.9856C73.2953 182.636 73.5517 182.687 73.7548 182.79C73.9579 182.891 74.1099 183.028 74.2108 183.201C74.3116 183.373 74.362 183.567 74.362 183.783C74.362 183.964 74.3287 184.118 74.2619 184.243C74.1951 184.366 74.1056 184.466 73.9934 184.541C73.8826 184.615 73.7605 184.669 73.627 184.703V184.746C73.7718 184.753 73.9132 184.8 74.051 184.886C74.1902 184.972 74.3052 185.093 74.3961 185.251C74.487 185.408 74.5325 185.6 74.5325 185.826C74.5325 186.049 74.4799 186.249 74.3748 186.427C74.2711 186.603 74.1106 186.743 73.8933 186.847C73.676 186.949 73.3983 187 73.0602 187H71.3876ZM72.046 186.435H72.9963C73.3116 186.435 73.5375 186.374 73.6738 186.252C73.8102 186.13 73.8784 185.977 73.8784 185.794C73.8784 185.656 73.8436 185.53 73.774 185.415C73.7044 185.3 73.6049 185.208 73.4757 185.14C73.3478 185.072 73.1958 185.038 73.0197 185.038H72.046V186.435ZM72.046 184.524H72.9281C73.0758 184.524 73.2086 184.496 73.3265 184.439C73.4458 184.382 73.5403 184.303 73.6099 184.2C73.6809 184.097 73.7164 183.974 73.7164 183.834C73.7164 183.653 73.6532 183.502 73.5268 183.38C73.4004 183.258 73.2065 183.197 72.9451 183.197H72.046V184.524ZM78.1195 182.636H78.78V185.506C78.78 185.812 78.7083 186.082 78.5648 186.318C78.4213 186.553 78.2196 186.737 77.9597 186.872C77.6998 187.006 77.3951 187.072 77.0456 187.072C76.6976 187.072 76.3936 187.006 76.1337 186.872C75.8738 186.737 75.6721 186.553 75.5286 186.318C75.3851 186.082 75.3134 185.812 75.3134 185.506V182.636H75.9718V185.453C75.9718 185.651 76.0151 185.826 76.1017 185.979C76.1898 186.133 76.3141 186.254 76.4746 186.342C76.6351 186.428 76.8255 186.472 77.0456 186.472C77.2672 186.472 77.4583 186.428 77.6188 186.342C77.7807 186.254 77.9043 186.133 77.9895 185.979C78.0762 185.826 78.1195 185.651 78.1195 185.453V182.636ZM82.6525 187.066C82.3457 187.066 82.0779 186.996 81.8493 186.855C81.6206 186.714 81.443 186.518 81.3166 186.265C81.1902 186.012 81.127 185.717 81.127 185.379C81.127 185.039 81.1902 184.742 81.3166 184.488C81.443 184.234 81.6206 184.036 81.8493 183.896C82.0779 183.755 82.3457 183.685 82.6525 183.685C82.9593 183.685 83.2271 183.755 83.4558 183.896C83.6845 184.036 83.862 184.234 83.9885 184.488C84.1149 184.742 84.1781 185.039 84.1781 185.379C84.1781 185.717 84.1149 186.012 83.9885 186.265C83.862 186.518 83.6845 186.714 83.4558 186.855C83.2271 186.996 82.9593 187.066 82.6525 187.066ZM82.6547 186.531C82.8535 186.531 83.0183 186.479 83.149 186.374C83.2797 186.268 83.3762 186.129 83.4387 185.954C83.5027 185.779 83.5346 185.587 83.5346 185.376C83.5346 185.168 83.5027 184.976 83.4387 184.801C83.3762 184.625 83.2797 184.484 83.149 184.377C83.0183 184.271 82.8535 184.217 82.6547 184.217C82.4544 184.217 82.2882 184.271 82.1561 184.377C82.0254 184.484 81.9281 184.625 81.8642 184.801C81.8017 184.976 81.7704 185.168 81.7704 185.376C81.7704 185.587 81.8017 185.779 81.8642 185.954C81.9281 186.129 82.0254 186.268 82.1561 186.374C82.2882 186.479 82.4544 186.531 82.6547 186.531ZM86.4467 183.727V184.239H84.5973V183.727H86.4467ZM85.1044 187V183.348C85.1044 183.143 85.1491 182.974 85.2386 182.839C85.3281 182.702 85.4467 182.601 85.5945 182.534C85.7422 182.466 85.9027 182.432 86.076 182.432C86.2038 182.432 86.3132 182.442 86.4041 182.464C86.495 182.484 86.5625 182.502 86.6065 182.519L86.4574 183.035C86.4276 183.026 86.3892 183.016 86.3423 183.005C86.2955 182.992 86.2386 182.986 86.1719 182.986C86.017 182.986 85.9063 183.024 85.8395 183.101C85.7741 183.178 85.7415 183.288 85.7415 183.433V187H85.1044ZM88.7431 187V182.636H89.3801V184.258H89.4185C89.4554 184.19 89.5087 184.111 89.5783 184.021C89.6479 183.932 89.7445 183.854 89.8681 183.787C89.9917 183.719 90.155 183.685 90.3581 183.685C90.6223 183.685 90.8581 183.751 91.0655 183.885C91.2729 184.018 91.4355 184.211 91.5534 184.462C91.6728 184.714 91.7324 185.016 91.7324 185.37C91.7324 185.724 91.6735 186.027 91.5556 186.28C91.4377 186.531 91.2757 186.725 91.0698 186.862C90.8638 186.996 90.6287 187.064 90.3645 187.064C90.1657 187.064 90.003 187.031 89.8766 186.964C89.7516 186.897 89.6536 186.819 89.5826 186.729C89.5115 186.64 89.4569 186.56 89.4185 186.491H89.3652V187H88.7431ZM89.3674 185.364C89.3674 185.594 89.4007 185.795 89.4675 185.969C89.5343 186.142 89.6309 186.278 89.7573 186.376C89.8837 186.472 90.0385 186.521 90.2218 186.521C90.4121 186.521 90.5712 186.47 90.699 186.369C90.8269 186.267 90.9235 186.129 90.9888 185.954C91.0556 185.779 91.089 185.582 91.089 185.364C91.089 185.148 91.0563 184.954 90.9909 184.782C90.927 184.61 90.8304 184.474 90.7012 184.375C90.5733 184.276 90.4135 184.226 90.2218 184.226C90.0371 184.226 89.8809 184.273 89.753 184.369C89.6266 184.464 89.5307 184.597 89.4654 184.767C89.4 184.937 89.3674 185.136 89.3674 185.364ZM93.8263 187.066C93.5195 187.066 93.2518 186.996 93.0231 186.855C92.7944 186.714 92.6168 186.518 92.4904 186.265C92.364 186.012 92.3008 185.717 92.3008 185.379C92.3008 185.039 92.364 184.742 92.4904 184.488C92.6168 184.234 92.7944 184.036 93.0231 183.896C93.2518 183.755 93.5195 183.685 93.8263 183.685C94.1332 183.685 94.4009 183.755 94.6296 183.896C94.8583 184.036 95.0359 184.234 95.1623 184.488C95.2887 184.742 95.3519 185.039 95.3519 185.379C95.3519 185.717 95.2887 186.012 95.1623 186.265C95.0359 186.518 94.8583 186.714 94.6296 186.855C94.4009 186.996 94.1332 187.066 93.8263 187.066ZM93.8285 186.531C94.0273 186.531 94.1921 186.479 94.3228 186.374C94.4535 186.268 94.5501 186.129 94.6126 185.954C94.6765 185.779 94.7085 185.587 94.7085 185.376C94.7085 185.168 94.6765 184.976 94.6126 184.801C94.5501 184.625 94.4535 184.484 94.3228 184.377C94.1921 184.271 94.0273 184.217 93.8285 184.217C93.6282 184.217 93.462 184.271 93.3299 184.377C93.1992 184.484 93.1019 184.625 93.038 184.801C92.9755 184.976 92.9442 185.168 92.9442 185.376C92.9442 185.587 92.9755 185.779 93.038 185.954C93.1019 186.129 93.1992 186.268 93.3299 186.374C93.462 186.479 93.6282 186.531 93.8285 186.531ZM96.063 187V183.727H96.7001V187H96.063ZM96.3848 183.222C96.274 183.222 96.1788 183.185 96.0993 183.112C96.0211 183.036 95.9821 182.947 95.9821 182.843C95.9821 182.738 96.0211 182.648 96.0993 182.575C96.1788 182.499 96.274 182.462 96.3848 182.462C96.4956 182.462 96.59 182.499 96.6681 182.575C96.7477 182.648 96.7875 182.738 96.7875 182.843C96.7875 182.947 96.7477 183.036 96.6681 183.112C96.59 183.185 96.4956 183.222 96.3848 183.222ZM98.1942 182.636V187H97.5572V182.636H98.1942ZM100.462 187.066C100.139 187.066 99.8617 186.997 99.6287 186.859C99.3972 186.72 99.2182 186.525 99.0918 186.273C98.9668 186.021 98.9043 185.724 98.9043 185.385C98.9043 185.05 98.9668 184.754 99.0918 184.499C99.2182 184.243 99.3944 184.043 99.6202 183.9C99.8475 183.756 100.113 183.685 100.417 183.685C100.602 183.685 100.781 183.715 100.954 183.776C101.127 183.837 101.283 183.933 101.421 184.064C101.558 184.195 101.667 184.364 101.747 184.573C101.826 184.781 101.866 185.033 101.866 185.33V185.555H99.2644V185.078H101.242C101.242 184.911 101.208 184.762 101.139 184.633C101.071 184.502 100.975 184.399 100.852 184.324C100.73 184.249 100.586 184.211 100.421 184.211C100.242 184.211 100.086 184.255 99.9526 184.343C99.8205 184.43 99.7182 184.543 99.6458 184.684C99.5748 184.823 99.5392 184.974 99.5392 185.138V185.511C99.5392 185.729 99.5776 185.915 99.6543 186.069C99.7324 186.222 99.8411 186.339 99.9803 186.42C100.119 186.5 100.282 186.54 100.468 186.54C100.589 186.54 100.699 186.523 100.798 186.489C100.898 186.453 100.984 186.401 101.056 186.331C101.129 186.261 101.184 186.175 101.222 186.073L101.825 186.182C101.777 186.359 101.691 186.515 101.566 186.648C101.442 186.781 101.286 186.884 101.099 186.957C100.913 187.03 100.7 187.066 100.462 187.066ZM102.573 187V183.727H103.189V184.247H103.223C103.282 184.071 103.387 183.933 103.538 183.832C103.69 183.729 103.862 183.678 104.054 183.678C104.093 183.678 104.14 183.68 104.194 183.683C104.25 183.685 104.293 183.689 104.324 183.693V184.303C104.299 184.295 104.253 184.288 104.188 184.279C104.123 184.269 104.057 184.264 103.992 184.264C103.841 184.264 103.707 184.296 103.589 184.36C103.473 184.423 103.38 184.51 103.312 184.622C103.244 184.733 103.21 184.859 103.21 185.001V187H102.573ZM110.037 182.636V187H109.431L107.213 183.8H107.173V187H106.515V182.636H107.124L109.344 185.841H109.385V182.636H110.037ZM112.324 187.066C112.018 187.066 111.75 186.996 111.521 186.855C111.292 186.714 111.115 186.518 110.988 186.265C110.862 186.012 110.799 185.717 110.799 185.379C110.799 185.039 110.862 184.742 110.988 184.488C111.115 184.234 111.292 184.036 111.521 183.896C111.75 183.755 112.018 183.685 112.324 183.685C112.631 183.685 112.899 183.755 113.128 183.896C113.356 184.036 113.534 184.234 113.66 184.488C113.787 184.742 113.85 185.039 113.85 185.379C113.85 185.717 113.787 186.012 113.66 186.265C113.534 186.518 113.356 186.714 113.128 186.855C112.899 186.996 112.631 187.066 112.324 187.066ZM112.327 186.531C112.525 186.531 112.69 186.479 112.821 186.374C112.952 186.268 113.048 186.129 113.111 185.954C113.175 185.779 113.206 185.587 113.206 185.376C113.206 185.168 113.175 184.976 113.111 184.801C113.048 184.625 112.952 184.484 112.821 184.377C112.69 184.271 112.525 184.217 112.327 184.217C112.126 184.217 111.96 184.271 111.828 184.377C111.697 184.484 111.6 184.625 111.536 184.801C111.474 184.976 111.442 185.168 111.442 185.376C111.442 185.587 111.474 185.779 111.536 185.954C111.6 186.129 111.697 186.268 111.828 186.374C111.96 186.479 112.126 186.531 112.327 186.531ZM117.796 182.636V187H117.135V183.297H117.11L116.066 183.979V183.348L117.155 182.636H117.796Z" fill="black"/>
<path d="M69.8608 191.636L71.0753 195.19H71.1243L72.3388 191.636H73.0504L71.4801 196H70.7195L69.1491 191.636H69.8608ZM73.6294 196V192.727H74.2665V196H73.6294ZM73.9512 192.222C73.8404 192.222 73.7452 192.185 73.6657 192.112C73.5875 192.036 73.5485 191.947 73.5485 191.843C73.5485 191.738 73.5875 191.648 73.6657 191.575C73.7452 191.499 73.8404 191.462 73.9512 191.462C74.062 191.462 74.1564 191.499 74.2346 191.575C74.3141 191.648 74.3539 191.738 74.3539 191.843C74.3539 191.947 74.3141 192.036 74.2346 192.112C74.1564 192.185 74.062 192.222 73.9512 192.222ZM76.3487 196.064C76.0845 196.064 75.8487 195.996 75.6413 195.862C75.4354 195.725 75.2734 195.531 75.1555 195.28C75.0391 195.027 74.9808 194.724 74.9808 194.37C74.9808 194.016 75.0398 193.714 75.1577 193.462C75.277 193.211 75.4403 193.018 75.6477 192.885C75.8551 192.751 76.0902 192.685 76.353 192.685C76.5561 192.685 76.7195 192.719 76.843 192.787C76.968 192.854 77.0646 192.932 77.1328 193.021C77.2024 193.111 77.2564 193.19 77.2947 193.258H77.3331V191.636H77.9702V196H77.348V195.491H77.2947C77.2564 195.56 77.201 195.64 77.1286 195.729C77.0575 195.819 76.9595 195.897 76.8345 195.964C76.7095 196.031 76.5476 196.064 76.3487 196.064ZM76.4893 195.521C76.6726 195.521 76.8274 195.472 76.9538 195.376C77.0817 195.278 77.1783 195.142 77.2436 194.969C77.3104 194.795 77.3438 194.594 77.3438 194.364C77.3438 194.136 77.3111 193.937 77.2457 193.767C77.1804 193.597 77.0845 193.464 76.9581 193.369C76.8317 193.273 76.6754 193.226 76.4893 193.226C76.2976 193.226 76.1378 193.276 76.0099 193.375C75.8821 193.474 75.7855 193.61 75.7202 193.782C75.6563 193.954 75.6243 194.148 75.6243 194.364C75.6243 194.582 75.657 194.779 75.7223 194.954C75.7876 195.129 75.8842 195.267 76.0121 195.369C76.1413 195.47 76.3004 195.521 76.4893 195.521ZM80.29 196.066C79.9675 196.066 79.6898 195.997 79.4569 195.859C79.2253 195.72 79.0463 195.525 78.9199 195.273C78.7949 195.021 78.7324 194.724 78.7324 194.385C78.7324 194.05 78.7949 193.754 78.9199 193.499C79.0463 193.243 79.2225 193.043 79.4483 192.9C79.6756 192.756 79.9412 192.685 80.2452 192.685C80.4299 192.685 80.6088 192.715 80.7821 192.776C80.9554 192.837 81.111 192.933 81.2488 193.064C81.3865 193.195 81.4952 193.364 81.5748 193.573C81.6543 193.781 81.6941 194.033 81.6941 194.33V194.555H79.0925V194.078H81.0698C81.0698 193.911 81.0357 193.762 80.9675 193.633C80.8993 193.502 80.8034 193.399 80.6799 193.324C80.5577 193.249 80.4142 193.211 80.2495 193.211C80.0705 193.211 79.9142 193.255 79.7807 193.343C79.6486 193.43 79.5463 193.543 79.4739 193.684C79.4029 193.823 79.3674 193.974 79.3674 194.138V194.511C79.3674 194.729 79.4057 194.915 79.4824 195.069C79.5605 195.222 79.6692 195.339 79.8084 195.42C79.9476 195.5 80.1103 195.54 80.2963 195.54C80.4171 195.54 80.5272 195.523 80.6266 195.489C80.726 195.453 80.812 195.401 80.8844 195.331C80.9569 195.261 81.0123 195.175 81.0506 195.073L81.6536 195.182C81.6053 195.359 81.5186 195.515 81.3936 195.648C81.2701 195.781 81.1145 195.884 80.927 195.957C80.7409 196.03 80.5286 196.066 80.29 196.066ZM83.7795 196.066C83.4727 196.066 83.2049 195.996 82.9762 195.855C82.7475 195.714 82.57 195.518 82.4435 195.265C82.3171 195.012 82.2539 194.717 82.2539 194.379C82.2539 194.039 82.3171 193.742 82.4435 193.488C82.57 193.234 82.7475 193.036 82.9762 192.896C83.2049 192.755 83.4727 192.685 83.7795 192.685C84.0863 192.685 84.354 192.755 84.5827 192.896C84.8114 193.036 84.989 193.234 85.1154 193.488C85.2418 193.742 85.305 194.039 85.305 194.379C85.305 194.717 85.2418 195.012 85.1154 195.265C84.989 195.518 84.8114 195.714 84.5827 195.855C84.354 195.996 84.0863 196.066 83.7795 196.066ZM83.7816 195.531C83.9805 195.531 84.1452 195.479 84.2759 195.374C84.4066 195.268 84.5032 195.129 84.5657 194.954C84.6296 194.779 84.6616 194.587 84.6616 194.376C84.6616 194.168 84.6296 193.976 84.5657 193.801C84.5032 193.625 84.4066 193.484 84.2759 193.377C84.1452 193.271 83.9805 193.217 83.7816 193.217C83.5813 193.217 83.4151 193.271 83.283 193.377C83.1523 193.484 83.055 193.625 82.9911 193.801C82.9286 193.976 82.8974 194.168 82.8974 194.376C82.8974 194.587 82.9286 194.779 82.9911 194.954C83.055 195.129 83.1523 195.268 83.283 195.374C83.4151 195.479 83.5813 195.531 83.7816 195.531ZM89.1616 192.727V193.239H87.3121V192.727H89.1616ZM87.8192 196V192.348C87.8192 192.143 87.864 191.974 87.9535 191.839C88.043 191.702 88.1616 191.601 88.3093 191.534C88.457 191.466 88.6175 191.432 88.7908 191.432C88.9187 191.432 89.0281 191.442 89.119 191.464C89.2099 191.484 89.2773 191.502 89.3214 191.519L89.1722 192.035C89.1424 192.026 89.104 192.016 89.0572 192.005C89.0103 191.992 88.9535 191.986 88.8867 191.986C88.7319 191.986 88.6211 192.024 88.5543 192.101C88.489 192.178 88.4563 192.288 88.4563 192.433V196H87.8192ZM89.8189 196V192.727H90.4347V193.247H90.4688C90.5284 193.071 90.6335 192.933 90.7841 192.832C90.9361 192.729 91.108 192.678 91.2997 192.678C91.3395 192.678 91.3864 192.68 91.4403 192.683C91.4957 192.685 91.5391 192.689 91.5703 192.693V193.303C91.5447 193.295 91.4993 193.288 91.4339 193.279C91.3686 193.269 91.3033 193.264 91.2379 193.264C91.0874 193.264 90.9531 193.296 90.8352 193.36C90.7188 193.423 90.6264 193.51 90.5582 193.622C90.4901 193.733 90.456 193.859 90.456 194.001V196H89.8189ZM93.0447 196.072C92.8374 196.072 92.6499 196.034 92.4822 195.957C92.3146 195.879 92.1818 195.766 92.0838 195.619C91.9872 195.471 91.9389 195.29 91.9389 195.075C91.9389 194.891 91.9744 194.739 92.0455 194.619C92.1165 194.5 92.2124 194.406 92.3331 194.336C92.4538 194.266 92.5888 194.214 92.7379 194.178C92.8871 194.143 93.0391 194.116 93.1939 194.097C93.3899 194.075 93.549 194.056 93.6712 194.042C93.7933 194.026 93.8821 194.001 93.9375 193.967C93.9929 193.933 94.0206 193.878 94.0206 193.801V193.786C94.0206 193.6 93.968 193.456 93.8629 193.354C93.7592 193.251 93.6044 193.2 93.3984 193.2C93.1839 193.2 93.0149 193.248 92.8913 193.343C92.7692 193.437 92.6847 193.541 92.6378 193.656L92.0391 193.52C92.1101 193.321 92.2138 193.161 92.3501 193.038C92.4879 192.915 92.6463 192.825 92.8253 192.77C93.0043 192.713 93.1925 192.685 93.3899 192.685C93.5206 192.685 93.6591 192.7 93.8054 192.732C93.9531 192.761 94.0909 192.817 94.2188 192.898C94.348 192.979 94.4538 193.094 94.5362 193.245C94.6186 193.394 94.6598 193.588 94.6598 193.827V196H94.0376V195.553H94.0121C93.9709 195.635 93.9091 195.716 93.8267 195.795C93.7443 195.875 93.6385 195.941 93.5092 195.994C93.38 196.046 93.2251 196.072 93.0447 196.072ZM93.1832 195.561C93.3594 195.561 93.5099 195.526 93.6349 195.457C93.7614 195.387 93.8572 195.296 93.9226 195.184C93.9893 195.07 94.0227 194.949 94.0227 194.82V194.398C94 194.42 93.956 194.442 93.8906 194.462C93.8267 194.48 93.7536 194.496 93.6712 194.511C93.5888 194.523 93.5085 194.536 93.4304 194.547C93.3523 194.557 93.2869 194.565 93.2344 194.572C93.1108 194.588 92.9979 194.614 92.8956 194.651C92.7947 194.688 92.7138 194.741 92.6527 194.811C92.593 194.879 92.5632 194.97 92.5632 195.084C92.5632 195.241 92.6214 195.361 92.7379 195.442C92.8544 195.521 93.0028 195.561 93.1832 195.561ZM95.5083 196V192.727H96.1199V193.26H96.1603C96.2285 193.08 96.34 192.939 96.4949 192.838C96.6497 192.736 96.835 192.685 97.051 192.685C97.2697 192.685 97.4529 192.736 97.6007 192.838C97.7498 192.94 97.8599 193.081 97.9309 193.26H97.965C98.0431 193.085 98.1674 192.946 98.3379 192.842C98.5083 192.737 98.7115 192.685 98.9473 192.685C99.2441 192.685 99.4863 192.778 99.6738 192.964C99.8627 193.15 99.9572 193.43 99.9572 193.805V196H99.3201V193.865C99.3201 193.643 99.2598 193.483 99.139 193.384C99.0183 193.284 98.8741 193.234 98.7065 193.234C98.4991 193.234 98.3379 193.298 98.2228 193.426C98.1078 193.553 98.0502 193.715 98.0502 193.914V196H97.4153V193.825C97.4153 193.647 97.3599 193.504 97.2491 193.396C97.1383 193.288 96.9941 193.234 96.8166 193.234C96.6958 193.234 96.5843 193.266 96.4821 193.33C96.3812 193.393 96.2995 193.48 96.237 193.592C96.176 193.705 96.1454 193.835 96.1454 193.982V196H95.5083ZM102.222 196.066C101.899 196.066 101.621 195.997 101.388 195.859C101.157 195.72 100.978 195.525 100.852 195.273C100.727 195.021 100.664 194.724 100.664 194.385C100.664 194.05 100.727 193.754 100.852 193.499C100.978 193.243 101.154 193.043 101.38 192.9C101.607 192.756 101.873 192.685 102.177 192.685C102.362 192.685 102.54 192.715 102.714 192.776C102.887 192.837 103.043 192.933 103.18 193.064C103.318 193.195 103.427 193.364 103.506 193.573C103.586 193.781 103.626 194.033 103.626 194.33V194.555H101.024V194.078H103.001C103.001 193.911 102.967 193.762 102.899 193.633C102.831 193.502 102.735 193.399 102.612 193.324C102.489 193.249 102.346 193.211 102.181 193.211C102.002 193.211 101.846 193.255 101.712 193.343C101.58 193.43 101.478 193.543 101.406 193.684C101.335 193.823 101.299 193.974 101.299 194.138V194.511C101.299 194.729 101.337 194.915 101.414 195.069C101.492 195.222 101.601 195.339 101.74 195.42C101.879 195.5 102.042 195.54 102.228 195.54C102.349 195.54 102.459 195.523 102.558 195.489C102.658 195.453 102.744 195.401 102.816 195.331C102.888 195.261 102.944 195.175 102.982 195.073L103.585 195.182C103.537 195.359 103.45 195.515 103.325 195.648C103.202 195.781 103.046 195.884 102.859 195.957C102.673 196.03 102.46 196.066 102.222 196.066ZM109.494 191.636V196H108.888L106.67 192.8H106.63V196H105.972V191.636H106.581L108.801 194.841H108.842V191.636H109.494ZM111.781 196.066C111.475 196.066 111.207 195.996 110.978 195.855C110.749 195.714 110.572 195.518 110.445 195.265C110.319 195.012 110.256 194.717 110.256 194.379C110.256 194.039 110.319 193.742 110.445 193.488C110.572 193.234 110.749 193.036 110.978 192.896C111.207 192.755 111.475 192.685 111.781 192.685C112.088 192.685 112.356 192.755 112.585 192.896C112.813 193.036 112.991 193.234 113.117 193.488C113.244 193.742 113.307 194.039 113.307 194.379C113.307 194.717 113.244 195.012 113.117 195.265C112.991 195.518 112.813 195.714 112.585 195.855C112.356 195.996 112.088 196.066 111.781 196.066ZM111.784 195.531C111.982 195.531 112.147 195.479 112.278 195.374C112.409 195.268 112.505 195.129 112.568 194.954C112.632 194.779 112.664 194.587 112.664 194.376C112.664 194.168 112.632 193.976 112.568 193.801C112.505 193.625 112.409 193.484 112.278 193.377C112.147 193.271 111.982 193.217 111.784 193.217C111.583 193.217 111.417 193.271 111.285 193.377C111.154 193.484 111.057 193.625 110.993 193.801C110.931 193.976 110.899 194.168 110.899 194.376C110.899 194.587 110.931 194.779 110.993 194.954C111.057 195.129 111.154 195.268 111.285 195.374C111.417 195.479 111.583 195.531 111.784 195.531ZM117.253 191.636V196H116.593V192.297H116.567L115.523 192.979V192.348L116.612 191.636H117.253Z" fill="black"/>
</g>
<defs>
<clipPath id="clip0_3786_205">
<rect width="180" height="200" fill="white"/>
</clipPath>
</defs>
</svg>
