<svg width="180" height="200" viewBox="0 0 180 200" fill="none" xmlns="http://www.w3.org/2000/svg">
<g clip-path="url(#clip0_3786_297)">
<path d="M179.5 0.5H0.5V199.5H179.5V0.5Z" fill="#D9D9D9" stroke="black"/>
<path d="M1 178.5H180" stroke="black"/>
<path d="M85.7951 92.9233H21.4573V106.87H85.7951V92.9233Z" fill="#5298FA" stroke="#444D5E"/>
<path d="M20.9572 134.701L9 122.743V77.9038L20.9572 65.9465V134.701Z" fill="#5298FA" stroke="#444D5E"/>
<path d="M165.226 92.4961H132.489V106.443H165.226V92.4961Z" fill="#5298FA" stroke="#444D5E"/>
<path d="M85.8682 51L131.989 68.0818V132.138L85.8682 149.22V51Z" fill="#5298FA" stroke="#444D5E"/>
<path d="M171.704 145.377L159.747 129.706V70.9412L171.704 55.2705V145.377Z" fill="#5298FA" stroke="#444D5E"/>
<path d="M55.9018 88.2258H50.4961V112.849H55.9018V88.2258Z" fill="#5298FA" stroke="#486085"/>
<path d="M70.2642 183.203V182.636H73.6413V183.203H72.2798V187H71.6236V183.203H70.2642ZM74.3876 187V182.636H75.9856C76.2953 182.636 76.5517 182.687 76.7548 182.79C76.9579 182.891 77.1099 183.028 77.2108 183.201C77.3116 183.373 77.362 183.567 77.362 183.783C77.362 183.964 77.3287 184.118 77.2619 184.243C77.1951 184.366 77.1056 184.466 76.9934 184.541C76.8826 184.615 76.7605 184.669 76.627 184.703V184.746C76.7718 184.753 76.9132 184.8 77.051 184.886C77.1902 184.972 77.3052 185.093 77.3961 185.251C77.487 185.408 77.5325 185.6 77.5325 185.826C77.5325 186.049 77.4799 186.249 77.3748 186.427C77.2711 186.603 77.1106 186.743 76.8933 186.847C76.676 186.949 76.3983 187 76.0602 187H74.3876ZM75.046 186.435H75.9963C76.3116 186.435 76.5375 186.374 76.6738 186.252C76.8102 186.13 76.8784 185.977 76.8784 185.794C76.8784 185.656 76.8436 185.53 76.774 185.415C76.7044 185.3 76.6049 185.208 76.4757 185.14C76.3478 185.072 76.1958 185.038 76.0197 185.038H75.046V186.435ZM75.046 184.524H75.9281C76.0758 184.524 76.2086 184.496 76.3265 184.439C76.4458 184.382 76.5403 184.303 76.6099 184.2C76.6809 184.097 76.7164 183.974 76.7164 183.834C76.7164 183.653 76.6532 183.502 76.5268 183.38C76.4004 183.258 76.2065 183.197 75.9451 183.197H75.046V184.524ZM81.1195 182.636H81.78V185.506C81.78 185.812 81.7083 186.082 81.5648 186.318C81.4213 186.553 81.2196 186.737 80.9597 186.872C80.6998 187.006 80.3951 187.072 80.0456 187.072C79.6976 187.072 79.3936 187.006 79.1337 186.872C78.8738 186.737 78.6721 186.553 78.5286 186.318C78.3851 186.082 78.3134 185.812 78.3134 185.506V182.636H78.9718V185.453C78.9718 185.651 79.0151 185.826 79.1017 185.979C79.1898 186.133 79.3141 186.254 79.4746 186.342C79.6351 186.428 79.8255 186.472 80.0456 186.472C80.2672 186.472 80.4583 186.428 80.6188 186.342C80.7807 186.254 80.9043 186.133 80.9895 185.979C81.0762 185.826 81.1195 185.651 81.1195 185.453V182.636ZM85.6525 187.066C85.3457 187.066 85.0779 186.996 84.8493 186.855C84.6206 186.714 84.443 186.518 84.3166 186.265C84.1902 186.012 84.127 185.717 84.127 185.379C84.127 185.039 84.1902 184.742 84.3166 184.488C84.443 184.234 84.6206 184.036 84.8493 183.896C85.0779 183.755 85.3457 183.685 85.6525 183.685C85.9593 183.685 86.2271 183.755 86.4558 183.896C86.6845 184.036 86.862 184.234 86.9885 184.488C87.1149 184.742 87.1781 185.039 87.1781 185.379C87.1781 185.717 87.1149 186.012 86.9885 186.265C86.862 186.518 86.6845 186.714 86.4558 186.855C86.2271 186.996 85.9593 187.066 85.6525 187.066ZM85.6547 186.531C85.8535 186.531 86.0183 186.479 86.149 186.374C86.2797 186.268 86.3762 186.129 86.4387 185.954C86.5027 185.779 86.5346 185.587 86.5346 185.376C86.5346 185.168 86.5027 184.976 86.4387 184.801C86.3762 184.625 86.2797 184.484 86.149 184.377C86.0183 184.271 85.8535 184.217 85.6547 184.217C85.4544 184.217 85.2882 184.271 85.1561 184.377C85.0254 184.484 84.9281 184.625 84.8642 184.801C84.8017 184.976 84.7704 185.168 84.7704 185.376C84.7704 185.587 84.8017 185.779 84.8642 185.954C84.9281 186.129 85.0254 186.268 85.1561 186.374C85.2882 186.479 85.4544 186.531 85.6547 186.531ZM89.4467 183.727V184.239H87.5973V183.727H89.4467ZM88.1044 187V183.348C88.1044 183.143 88.1491 182.974 88.2386 182.839C88.3281 182.702 88.4467 182.601 88.5945 182.534C88.7422 182.466 88.9027 182.432 89.076 182.432C89.2038 182.432 89.3132 182.442 89.4041 182.464C89.495 182.484 89.5625 182.502 89.6065 182.519L89.4574 183.035C89.4276 183.026 89.3892 183.016 89.3423 183.005C89.2955 182.992 89.2386 182.986 89.1719 182.986C89.017 182.986 88.9063 183.024 88.8395 183.101C88.7741 183.178 88.7415 183.288 88.7415 183.433V187H88.1044ZM91.7431 187V182.636H92.3801V184.258H92.4185C92.4554 184.19 92.5087 184.111 92.5783 184.021C92.6479 183.932 92.7445 183.854 92.8681 183.787C92.9917 183.719 93.155 183.685 93.3581 183.685C93.6223 183.685 93.8581 183.751 94.0655 183.885C94.2729 184.018 94.4355 184.211 94.5534 184.462C94.6728 184.714 94.7324 185.016 94.7324 185.37C94.7324 185.724 94.6735 186.027 94.5556 186.28C94.4377 186.531 94.2757 186.725 94.0698 186.862C93.8638 186.996 93.6287 187.064 93.3645 187.064C93.1657 187.064 93.003 187.031 92.8766 186.964C92.7516 186.897 92.6536 186.819 92.5826 186.729C92.5115 186.64 92.4569 186.56 92.4185 186.491H92.3652V187H91.7431ZM92.3674 185.364C92.3674 185.594 92.4007 185.795 92.4675 185.969C92.5343 186.142 92.6309 186.278 92.7573 186.376C92.8837 186.472 93.0385 186.521 93.2218 186.521C93.4121 186.521 93.5712 186.47 93.699 186.369C93.8269 186.267 93.9235 186.129 93.9888 185.954C94.0556 185.779 94.089 185.582 94.089 185.364C94.089 185.148 94.0563 184.954 93.9909 184.782C93.927 184.61 93.8304 184.474 93.7012 184.375C93.5733 184.276 93.4135 184.226 93.2218 184.226C93.0371 184.226 92.8809 184.273 92.753 184.369C92.6266 184.464 92.5307 184.597 92.4654 184.767C92.4 184.937 92.3674 185.136 92.3674 185.364ZM96.8263 187.066C96.5195 187.066 96.2518 186.996 96.0231 186.855C95.7944 186.714 95.6168 186.518 95.4904 186.265C95.364 186.012 95.3008 185.717 95.3008 185.379C95.3008 185.039 95.364 184.742 95.4904 184.488C95.6168 184.234 95.7944 184.036 96.0231 183.896C96.2518 183.755 96.5195 183.685 96.8263 183.685C97.1332 183.685 97.4009 183.755 97.6296 183.896C97.8583 184.036 98.0359 184.234 98.1623 184.488C98.2887 184.742 98.3519 185.039 98.3519 185.379C98.3519 185.717 98.2887 186.012 98.1623 186.265C98.0359 186.518 97.8583 186.714 97.6296 186.855C97.4009 186.996 97.1332 187.066 96.8263 187.066ZM96.8285 186.531C97.0273 186.531 97.1921 186.479 97.3228 186.374C97.4535 186.268 97.5501 186.129 97.6126 185.954C97.6765 185.779 97.7085 185.587 97.7085 185.376C97.7085 185.168 97.6765 184.976 97.6126 184.801C97.5501 184.625 97.4535 184.484 97.3228 184.377C97.1921 184.271 97.0273 184.217 96.8285 184.217C96.6282 184.217 96.462 184.271 96.3299 184.377C96.1992 184.484 96.1019 184.625 96.038 184.801C95.9755 184.976 95.9442 185.168 95.9442 185.376C95.9442 185.587 95.9755 185.779 96.038 185.954C96.1019 186.129 96.1992 186.268 96.3299 186.374C96.462 186.479 96.6282 186.531 96.8285 186.531ZM99.063 187V183.727H99.7001V187H99.063ZM99.3848 183.222C99.274 183.222 99.1788 183.185 99.0993 183.112C99.0211 183.036 98.9821 182.947 98.9821 182.843C98.9821 182.738 99.0211 182.648 99.0993 182.575C99.1788 182.499 99.274 182.462 99.3848 182.462C99.4956 182.462 99.59 182.499 99.6681 182.575C99.7477 182.648 99.7875 182.738 99.7875 182.843C99.7875 182.947 99.7477 183.036 99.6681 183.112C99.59 183.185 99.4956 183.222 99.3848 183.222ZM101.194 182.636V187H100.557V182.636H101.194ZM103.462 187.066C103.139 187.066 102.862 186.997 102.629 186.859C102.397 186.72 102.218 186.525 102.092 186.273C101.967 186.021 101.904 185.724 101.904 185.385C101.904 185.05 101.967 184.754 102.092 184.499C102.218 184.243 102.394 184.043 102.62 183.9C102.847 183.756 103.113 183.685 103.417 183.685C103.602 183.685 103.781 183.715 103.954 183.776C104.127 183.837 104.283 183.933 104.421 184.064C104.558 184.195 104.667 184.364 104.747 184.573C104.826 184.781 104.866 185.033 104.866 185.33V185.555H102.264V185.078H104.242C104.242 184.911 104.208 184.762 104.139 184.633C104.071 184.502 103.975 184.399 103.852 184.324C103.73 184.249 103.586 184.211 103.421 184.211C103.242 184.211 103.086 184.255 102.953 184.343C102.82 184.43 102.718 184.543 102.646 184.684C102.575 184.823 102.539 184.974 102.539 185.138V185.511C102.539 185.729 102.578 185.915 102.654 186.069C102.732 186.222 102.841 186.339 102.98 186.42C103.119 186.5 103.282 186.54 103.468 186.54C103.589 186.54 103.699 186.523 103.798 186.489C103.898 186.453 103.984 186.401 104.056 186.331C104.129 186.261 104.184 186.175 104.222 186.073L104.825 186.182C104.777 186.359 104.691 186.515 104.566 186.648C104.442 186.781 104.286 186.884 104.099 186.957C103.913 187.03 103.7 187.066 103.462 187.066ZM105.573 187V183.727H106.189V184.247H106.223C106.282 184.071 106.387 183.933 106.538 183.832C106.69 183.729 106.862 183.678 107.054 183.678C107.093 183.678 107.14 183.68 107.194 183.683C107.25 183.685 107.293 183.689 107.324 183.693V184.303C107.299 184.295 107.253 184.288 107.188 184.279C107.123 184.269 107.057 184.264 106.992 184.264C106.841 184.264 106.707 184.296 106.589 184.36C106.473 184.423 106.38 184.51 106.312 184.622C106.244 184.733 106.21 184.859 106.21 185.001V187H105.573ZM113.037 182.636V187H112.431L110.213 183.8H110.173V187H109.515V182.636H110.124L112.344 185.841H112.385V182.636H113.037ZM115.324 187.066C115.018 187.066 114.75 186.996 114.521 186.855C114.292 186.714 114.115 186.518 113.988 186.265C113.862 186.012 113.799 185.717 113.799 185.379C113.799 185.039 113.862 184.742 113.988 184.488C114.115 184.234 114.292 184.036 114.521 183.896C114.75 183.755 115.018 183.685 115.324 183.685C115.631 183.685 115.899 183.755 116.128 183.896C116.356 184.036 116.534 184.234 116.66 184.488C116.787 184.742 116.85 185.039 116.85 185.379C116.85 185.717 116.787 186.012 116.66 186.265C116.534 186.518 116.356 186.714 116.128 186.855C115.899 186.996 115.631 187.066 115.324 187.066ZM115.327 186.531C115.525 186.531 115.69 186.479 115.821 186.374C115.952 186.268 116.048 186.129 116.111 185.954C116.175 185.779 116.206 185.587 116.206 185.376C116.206 185.168 116.175 184.976 116.111 184.801C116.048 184.625 115.952 184.484 115.821 184.377C115.69 184.271 115.525 184.217 115.327 184.217C115.126 184.217 114.96 184.271 114.828 184.377C114.697 184.484 114.6 184.625 114.536 184.801C114.474 184.976 114.442 185.168 114.442 185.376C114.442 185.587 114.474 185.779 114.536 185.954C114.6 186.129 114.697 186.268 114.828 186.374C114.96 186.479 115.126 186.531 115.327 186.531ZM119.14 187V186.523L120.617 184.993C120.775 184.827 120.905 184.681 121.007 184.556C121.111 184.43 121.188 184.31 121.239 184.196C121.29 184.082 121.316 183.962 121.316 183.834C121.316 183.689 121.282 183.564 121.214 183.459C121.145 183.352 121.052 183.271 120.934 183.214C120.817 183.156 120.684 183.126 120.536 183.126C120.38 183.126 120.243 183.158 120.127 183.222C120.01 183.286 119.921 183.376 119.858 183.493C119.796 183.609 119.765 183.746 119.765 183.902H119.136C119.136 183.636 119.197 183.404 119.319 183.205C119.442 183.006 119.609 182.852 119.822 182.743C120.035 182.632 120.278 182.577 120.549 182.577C120.823 182.577 121.064 182.631 121.273 182.741C121.483 182.849 121.648 182.996 121.765 183.184C121.883 183.37 121.942 183.58 121.942 183.815C121.942 183.977 121.912 184.135 121.851 184.29C121.791 184.445 121.687 184.617 121.537 184.808C121.388 184.996 121.181 185.226 120.915 185.496L120.048 186.403V186.435H122.013V187H119.14Z" fill="black"/>
<path d="M72.8608 191.636L74.0753 195.19H74.1243L75.3388 191.636H76.0504L74.4801 196H73.7195L72.1491 191.636H72.8608ZM76.6294 196V192.727H77.2665V196H76.6294ZM76.9512 192.222C76.8404 192.222 76.7452 192.185 76.6657 192.112C76.5875 192.036 76.5485 191.947 76.5485 191.843C76.5485 191.738 76.5875 191.648 76.6657 191.575C76.7452 191.499 76.8404 191.462 76.9512 191.462C77.062 191.462 77.1564 191.499 77.2346 191.575C77.3141 191.648 77.3539 191.738 77.3539 191.843C77.3539 191.947 77.3141 192.036 77.2346 192.112C77.1564 192.185 77.062 192.222 76.9512 192.222ZM79.3487 196.064C79.0845 196.064 78.8487 195.996 78.6413 195.862C78.4354 195.725 78.2734 195.531 78.1555 195.28C78.0391 195.027 77.9808 194.724 77.9808 194.37C77.9808 194.016 78.0398 193.714 78.1577 193.462C78.277 193.211 78.4403 193.018 78.6477 192.885C78.8551 192.751 79.0902 192.685 79.353 192.685C79.5561 192.685 79.7195 192.719 79.843 192.787C79.968 192.854 80.0646 192.932 80.1328 193.021C80.2024 193.111 80.2564 193.19 80.2947 193.258H80.3331V191.636H80.9702V196H80.348V195.491H80.2947C80.2564 195.56 80.201 195.64 80.1286 195.729C80.0575 195.819 79.9595 195.897 79.8345 195.964C79.7095 196.031 79.5476 196.064 79.3487 196.064ZM79.4893 195.521C79.6726 195.521 79.8274 195.472 79.9538 195.376C80.0817 195.278 80.1783 195.142 80.2436 194.969C80.3104 194.795 80.3438 194.594 80.3438 194.364C80.3438 194.136 80.3111 193.937 80.2457 193.767C80.1804 193.597 80.0845 193.464 79.9581 193.369C79.8317 193.273 79.6754 193.226 79.4893 193.226C79.2976 193.226 79.1378 193.276 79.0099 193.375C78.8821 193.474 78.7855 193.61 78.7202 193.782C78.6563 193.954 78.6243 194.148 78.6243 194.364C78.6243 194.582 78.657 194.779 78.7223 194.954C78.7876 195.129 78.8842 195.267 79.0121 195.369C79.1413 195.47 79.3004 195.521 79.4893 195.521ZM83.29 196.066C82.9675 196.066 82.6898 195.997 82.4569 195.859C82.2253 195.72 82.0463 195.525 81.9199 195.273C81.7949 195.021 81.7324 194.724 81.7324 194.385C81.7324 194.05 81.7949 193.754 81.9199 193.499C82.0463 193.243 82.2225 193.043 82.4483 192.9C82.6756 192.756 82.9412 192.685 83.2452 192.685C83.4299 192.685 83.6088 192.715 83.7821 192.776C83.9554 192.837 84.111 192.933 84.2488 193.064C84.3865 193.195 84.4952 193.364 84.5748 193.573C84.6543 193.781 84.6941 194.033 84.6941 194.33V194.555H82.0925V194.078H84.0698C84.0698 193.911 84.0357 193.762 83.9675 193.633C83.8993 193.502 83.8034 193.399 83.6799 193.324C83.5577 193.249 83.4142 193.211 83.2495 193.211C83.0705 193.211 82.9142 193.255 82.7807 193.343C82.6486 193.43 82.5463 193.543 82.4739 193.684C82.4029 193.823 82.3674 193.974 82.3674 194.138V194.511C82.3674 194.729 82.4057 194.915 82.4824 195.069C82.5605 195.222 82.6692 195.339 82.8084 195.42C82.9476 195.5 83.1103 195.54 83.2963 195.54C83.4171 195.54 83.5272 195.523 83.6266 195.489C83.726 195.453 83.812 195.401 83.8844 195.331C83.9569 195.261 84.0123 195.175 84.0506 195.073L84.6536 195.182C84.6053 195.359 84.5186 195.515 84.3936 195.648C84.2701 195.781 84.1145 195.884 83.927 195.957C83.7409 196.03 83.5286 196.066 83.29 196.066ZM86.7795 196.066C86.4727 196.066 86.2049 195.996 85.9762 195.855C85.7475 195.714 85.57 195.518 85.4435 195.265C85.3171 195.012 85.2539 194.717 85.2539 194.379C85.2539 194.039 85.3171 193.742 85.4435 193.488C85.57 193.234 85.7475 193.036 85.9762 192.896C86.2049 192.755 86.4727 192.685 86.7795 192.685C87.0863 192.685 87.354 192.755 87.5827 192.896C87.8114 193.036 87.989 193.234 88.1154 193.488C88.2418 193.742 88.305 194.039 88.305 194.379C88.305 194.717 88.2418 195.012 88.1154 195.265C87.989 195.518 87.8114 195.714 87.5827 195.855C87.354 195.996 87.0863 196.066 86.7795 196.066ZM86.7816 195.531C86.9805 195.531 87.1452 195.479 87.2759 195.374C87.4066 195.268 87.5032 195.129 87.5657 194.954C87.6296 194.779 87.6616 194.587 87.6616 194.376C87.6616 194.168 87.6296 193.976 87.5657 193.801C87.5032 193.625 87.4066 193.484 87.2759 193.377C87.1452 193.271 86.9805 193.217 86.7816 193.217C86.5813 193.217 86.4151 193.271 86.283 193.377C86.1523 193.484 86.055 193.625 85.9911 193.801C85.9286 193.976 85.8974 194.168 85.8974 194.376C85.8974 194.587 85.9286 194.779 85.9911 194.954C86.055 195.129 86.1523 195.268 86.283 195.374C86.4151 195.479 86.5813 195.531 86.7816 195.531ZM92.1616 192.727V193.239H90.3121V192.727H92.1616ZM90.8192 196V192.348C90.8192 192.143 90.864 191.974 90.9535 191.839C91.043 191.702 91.1616 191.601 91.3093 191.534C91.457 191.466 91.6175 191.432 91.7908 191.432C91.9187 191.432 92.0281 191.442 92.119 191.464C92.2099 191.484 92.2773 191.502 92.3214 191.519L92.1722 192.035C92.1424 192.026 92.104 192.016 92.0572 192.005C92.0103 191.992 91.9535 191.986 91.8867 191.986C91.7319 191.986 91.6211 192.024 91.5543 192.101C91.489 192.178 91.4563 192.288 91.4563 192.433V196H90.8192ZM92.8189 196V192.727H93.4347V193.247H93.4688C93.5284 193.071 93.6335 192.933 93.7841 192.832C93.9361 192.729 94.108 192.678 94.2997 192.678C94.3395 192.678 94.3864 192.68 94.4403 192.683C94.4957 192.685 94.5391 192.689 94.5703 192.693V193.303C94.5447 193.295 94.4993 193.288 94.4339 193.279C94.3686 193.269 94.3033 193.264 94.2379 193.264C94.0874 193.264 93.9531 193.296 93.8352 193.36C93.7188 193.423 93.6264 193.51 93.5582 193.622C93.4901 193.733 93.456 193.859 93.456 194.001V196H92.8189ZM96.0447 196.072C95.8374 196.072 95.6499 196.034 95.4822 195.957C95.3146 195.879 95.1818 195.766 95.0838 195.619C94.9872 195.471 94.9389 195.29 94.9389 195.075C94.9389 194.891 94.9744 194.739 95.0455 194.619C95.1165 194.5 95.2124 194.406 95.3331 194.336C95.4538 194.266 95.5888 194.214 95.7379 194.178C95.8871 194.143 96.0391 194.116 96.1939 194.097C96.3899 194.075 96.549 194.056 96.6712 194.042C96.7933 194.026 96.8821 194.001 96.9375 193.967C96.9929 193.933 97.0206 193.878 97.0206 193.801V193.786C97.0206 193.6 96.968 193.456 96.8629 193.354C96.7592 193.251 96.6044 193.2 96.3984 193.2C96.1839 193.2 96.0149 193.248 95.8913 193.343C95.7692 193.437 95.6847 193.541 95.6378 193.656L95.0391 193.52C95.1101 193.321 95.2138 193.161 95.3501 193.038C95.4879 192.915 95.6463 192.825 95.8253 192.77C96.0043 192.713 96.1925 192.685 96.3899 192.685C96.5206 192.685 96.6591 192.7 96.8054 192.732C96.9531 192.761 97.0909 192.817 97.2188 192.898C97.348 192.979 97.4538 193.094 97.5362 193.245C97.6186 193.394 97.6598 193.588 97.6598 193.827V196H97.0376V195.553H97.0121C96.9709 195.635 96.9091 195.716 96.8267 195.795C96.7443 195.875 96.6385 195.941 96.5092 195.994C96.38 196.046 96.2251 196.072 96.0447 196.072ZM96.1832 195.561C96.3594 195.561 96.5099 195.526 96.6349 195.457C96.7614 195.387 96.8572 195.296 96.9226 195.184C96.9893 195.07 97.0227 194.949 97.0227 194.82V194.398C97 194.42 96.956 194.442 96.8906 194.462C96.8267 194.48 96.7536 194.496 96.6712 194.511C96.5888 194.523 96.5085 194.536 96.4304 194.547C96.3523 194.557 96.2869 194.565 96.2344 194.572C96.1108 194.588 95.9979 194.614 95.8956 194.651C95.7947 194.688 95.7138 194.741 95.6527 194.811C95.593 194.879 95.5632 194.97 95.5632 195.084C95.5632 195.241 95.6214 195.361 95.7379 195.442C95.8544 195.521 96.0028 195.561 96.1832 195.561ZM98.5083 196V192.727H99.1199V193.26H99.1603C99.2285 193.08 99.34 192.939 99.4949 192.838C99.6497 192.736 99.835 192.685 100.051 192.685C100.27 192.685 100.453 192.736 100.601 192.838C100.75 192.94 100.86 193.081 100.931 193.26H100.965C101.043 193.085 101.167 192.946 101.338 192.842C101.508 192.737 101.711 192.685 101.947 192.685C102.244 192.685 102.486 192.778 102.674 192.964C102.863 193.15 102.957 193.43 102.957 193.805V196H102.32V193.865C102.32 193.643 102.26 193.483 102.139 193.384C102.018 193.284 101.874 193.234 101.706 193.234C101.499 193.234 101.338 193.298 101.223 193.426C101.108 193.553 101.05 193.715 101.05 193.914V196H100.415V193.825C100.415 193.647 100.36 193.504 100.249 193.396C100.138 193.288 99.9941 193.234 99.8166 193.234C99.6958 193.234 99.5843 193.266 99.4821 193.33C99.3812 193.393 99.2995 193.48 99.237 193.592C99.176 193.705 99.1454 193.835 99.1454 193.982V196H98.5083ZM105.222 196.066C104.899 196.066 104.621 195.997 104.388 195.859C104.157 195.72 103.978 195.525 103.852 195.273C103.727 195.021 103.664 194.724 103.664 194.385C103.664 194.05 103.727 193.754 103.852 193.499C103.978 193.243 104.154 193.043 104.38 192.9C104.607 192.756 104.873 192.685 105.177 192.685C105.362 192.685 105.54 192.715 105.714 192.776C105.887 192.837 106.043 192.933 106.18 193.064C106.318 193.195 106.427 193.364 106.506 193.573C106.586 193.781 106.626 194.033 106.626 194.33V194.555H104.024V194.078H106.001C106.001 193.911 105.967 193.762 105.899 193.633C105.831 193.502 105.735 193.399 105.612 193.324C105.489 193.249 105.346 193.211 105.181 193.211C105.002 193.211 104.846 193.255 104.712 193.343C104.58 193.43 104.478 193.543 104.406 193.684C104.335 193.823 104.299 193.974 104.299 194.138V194.511C104.299 194.729 104.337 194.915 104.414 195.069C104.492 195.222 104.601 195.339 104.74 195.42C104.879 195.5 105.042 195.54 105.228 195.54C105.349 195.54 105.459 195.523 105.558 195.489C105.658 195.453 105.744 195.401 105.816 195.331C105.888 195.261 105.944 195.175 105.982 195.073L106.585 195.182C106.537 195.359 106.45 195.515 106.325 195.648C106.202 195.781 106.046 195.884 105.859 195.957C105.673 196.03 105.46 196.066 105.222 196.066ZM112.494 191.636V196H111.888L109.67 192.8H109.63V196H108.972V191.636H109.581L111.801 194.841H111.842V191.636H112.494ZM114.781 196.066C114.475 196.066 114.207 195.996 113.978 195.855C113.749 195.714 113.572 195.518 113.445 195.265C113.319 195.012 113.256 194.717 113.256 194.379C113.256 194.039 113.319 193.742 113.445 193.488C113.572 193.234 113.749 193.036 113.978 192.896C114.207 192.755 114.475 192.685 114.781 192.685C115.088 192.685 115.356 192.755 115.585 192.896C115.813 193.036 115.991 193.234 116.117 193.488C116.244 193.742 116.307 194.039 116.307 194.379C116.307 194.717 116.244 195.012 116.117 195.265C115.991 195.518 115.813 195.714 115.585 195.855C115.356 195.996 115.088 196.066 114.781 196.066ZM114.784 195.531C114.982 195.531 115.147 195.479 115.278 195.374C115.409 195.268 115.505 195.129 115.568 194.954C115.632 194.779 115.664 194.587 115.664 194.376C115.664 194.168 115.632 193.976 115.568 193.801C115.505 193.625 115.409 193.484 115.278 193.377C115.147 193.271 114.982 193.217 114.784 193.217C114.583 193.217 114.417 193.271 114.285 193.377C114.154 193.484 114.057 193.625 113.993 193.801C113.931 193.976 113.899 194.168 113.899 194.376C113.899 194.587 113.931 194.779 113.993 194.954C114.057 195.129 114.154 195.268 114.285 195.374C114.417 195.479 114.583 195.531 114.784 195.531ZM118.597 196V195.523L120.074 193.993C120.232 193.827 120.362 193.681 120.464 193.556C120.568 193.43 120.645 193.31 120.696 193.196C120.747 193.082 120.773 192.962 120.773 192.834C120.773 192.689 120.739 192.564 120.671 192.459C120.602 192.352 120.509 192.271 120.392 192.214C120.274 192.156 120.141 192.126 119.993 192.126C119.837 192.126 119.7 192.158 119.584 192.222C119.468 192.286 119.378 192.376 119.316 192.493C119.253 192.609 119.222 192.746 119.222 192.902H118.593C118.593 192.636 118.654 192.404 118.776 192.205C118.899 192.006 119.066 191.852 119.279 191.743C119.492 191.632 119.735 191.577 120.006 191.577C120.28 191.577 120.521 191.631 120.73 191.741C120.941 191.849 121.105 191.996 121.222 192.184C121.34 192.37 121.399 192.58 121.399 192.815C121.399 192.977 121.369 193.135 121.308 193.29C121.248 193.445 121.144 193.617 120.994 193.808C120.845 193.996 120.638 194.226 120.372 194.496L119.505 195.403V195.435H121.47V196H118.597Z" fill="black"/>
</g>
<defs>
<clipPath id="clip0_3786_297">
<rect width="180" height="200" fill="white"/>
</clipPath>
</defs>
</svg>
