<svg width="180" height="200" viewBox="0 0 180 200" fill="none" xmlns="http://www.w3.org/2000/svg">
<rect x="0.5" y="0.5" width="179" height="199" fill="#D9D9D9" stroke="black"/>
<line x1="1" y1="178.5" x2="180" y2="178.5" stroke="black"/>
<path d="M31.2642 183.203V182.636H34.6413V183.203H33.2798V187H32.6236V183.203H31.2642ZM35.3876 187V182.636H36.9856C37.2953 182.636 37.5517 182.687 37.7548 182.79C37.9579 182.891 38.1099 183.028 38.2108 183.201C38.3116 183.373 38.362 183.567 38.362 183.783C38.362 183.964 38.3287 184.118 38.2619 184.243C38.1951 184.366 38.1056 184.466 37.9934 184.541C37.8826 184.615 37.7605 184.669 37.627 184.703V184.746C37.7718 184.753 37.9132 184.8 38.051 184.886C38.1902 184.972 38.3052 185.093 38.3961 185.251C38.487 185.408 38.5325 185.6 38.5325 185.826C38.5325 186.049 38.4799 186.249 38.3748 186.427C38.2711 186.603 38.1106 186.743 37.8933 186.847C37.676 186.949 37.3983 187 37.0602 187H35.3876ZM36.046 186.435H36.9963C37.3116 186.435 37.5375 186.374 37.6738 186.252C37.8102 186.13 37.8784 185.977 37.8784 185.794C37.8784 185.656 37.8436 185.53 37.774 185.415C37.7044 185.3 37.6049 185.208 37.4757 185.14C37.3478 185.072 37.1958 185.038 37.0197 185.038H36.046V186.435ZM36.046 184.524H36.9281C37.0758 184.524 37.2086 184.496 37.3265 184.439C37.4458 184.382 37.5403 184.303 37.6099 184.2C37.6809 184.097 37.7164 183.974 37.7164 183.834C37.7164 183.653 37.6532 183.502 37.5268 183.38C37.4004 183.258 37.2065 183.197 36.9451 183.197H36.046V184.524ZM42.1195 182.636H42.78V185.506C42.78 185.812 42.7083 186.082 42.5648 186.318C42.4213 186.553 42.2196 186.737 41.9597 186.872C41.6998 187.006 41.3951 187.072 41.0456 187.072C40.6976 187.072 40.3936 187.006 40.1337 186.872C39.8738 186.737 39.6721 186.553 39.5286 186.318C39.3851 186.082 39.3134 185.812 39.3134 185.506V182.636H39.9718V185.453C39.9718 185.651 40.0151 185.826 40.1017 185.979C40.1898 186.133 40.3141 186.254 40.4746 186.342C40.6351 186.428 40.8255 186.472 41.0456 186.472C41.2672 186.472 41.4583 186.428 41.6188 186.342C41.7807 186.254 41.9043 186.133 41.9895 185.979C42.0762 185.826 42.1195 185.651 42.1195 185.453V182.636ZM46.6525 187.066C46.3457 187.066 46.0779 186.996 45.8493 186.855C45.6206 186.714 45.443 186.518 45.3166 186.265C45.1902 186.012 45.127 185.717 45.127 185.379C45.127 185.039 45.1902 184.742 45.3166 184.488C45.443 184.234 45.6206 184.036 45.8493 183.896C46.0779 183.755 46.3457 183.685 46.6525 183.685C46.9593 183.685 47.2271 183.755 47.4558 183.896C47.6845 184.036 47.862 184.234 47.9885 184.488C48.1149 184.742 48.1781 185.039 48.1781 185.379C48.1781 185.717 48.1149 186.012 47.9885 186.265C47.862 186.518 47.6845 186.714 47.4558 186.855C47.2271 186.996 46.9593 187.066 46.6525 187.066ZM46.6547 186.531C46.8535 186.531 47.0183 186.479 47.149 186.374C47.2797 186.268 47.3762 186.129 47.4387 185.954C47.5027 185.779 47.5346 185.587 47.5346 185.376C47.5346 185.168 47.5027 184.976 47.4387 184.801C47.3762 184.625 47.2797 184.484 47.149 184.377C47.0183 184.271 46.8535 184.217 46.6547 184.217C46.4544 184.217 46.2882 184.271 46.1561 184.377C46.0254 184.484 45.9281 184.625 45.8642 184.801C45.8017 184.976 45.7704 185.168 45.7704 185.376C45.7704 185.587 45.8017 185.779 45.8642 185.954C45.9281 186.129 46.0254 186.268 46.1561 186.374C46.2882 186.479 46.4544 186.531 46.6547 186.531ZM50.4467 183.727V184.239H48.5973V183.727H50.4467ZM49.1044 187V183.348C49.1044 183.143 49.1491 182.974 49.2386 182.839C49.3281 182.702 49.4467 182.601 49.5945 182.534C49.7422 182.466 49.9027 182.432 50.076 182.432C50.2038 182.432 50.3132 182.442 50.4041 182.464C50.495 182.484 50.5625 182.502 50.6065 182.519L50.4574 183.035C50.4276 183.026 50.3892 183.016 50.3423 183.005C50.2955 182.992 50.2386 182.986 50.1719 182.986C50.017 182.986 49.9063 183.024 49.8395 183.101C49.7741 183.178 49.7415 183.288 49.7415 183.433V187H49.1044ZM52.7431 187V182.636H53.3801V184.258H53.4185C53.4554 184.19 53.5087 184.111 53.5783 184.021C53.6479 183.932 53.7445 183.854 53.8681 183.787C53.9917 183.719 54.155 183.685 54.3581 183.685C54.6223 183.685 54.8581 183.751 55.0655 183.885C55.2729 184.018 55.4355 184.211 55.5534 184.462C55.6728 184.714 55.7324 185.016 55.7324 185.37C55.7324 185.724 55.6735 186.027 55.5556 186.28C55.4377 186.531 55.2757 186.725 55.0698 186.862C54.8638 186.996 54.6287 187.064 54.3645 187.064C54.1657 187.064 54.003 187.031 53.8766 186.964C53.7516 186.897 53.6536 186.819 53.5826 186.729C53.5115 186.64 53.4569 186.56 53.4185 186.491H53.3652V187H52.7431ZM53.3674 185.364C53.3674 185.594 53.4007 185.795 53.4675 185.969C53.5343 186.142 53.6309 186.278 53.7573 186.376C53.8837 186.472 54.0385 186.521 54.2218 186.521C54.4121 186.521 54.5712 186.47 54.699 186.369C54.8269 186.267 54.9235 186.129 54.9888 185.954C55.0556 185.779 55.089 185.582 55.089 185.364C55.089 185.148 55.0563 184.954 54.9909 184.782C54.927 184.61 54.8304 184.474 54.7012 184.375C54.5733 184.276 54.4135 184.226 54.2218 184.226C54.0371 184.226 53.8809 184.273 53.753 184.369C53.6266 184.464 53.5307 184.597 53.4654 184.767C53.4 184.937 53.3674 185.136 53.3674 185.364ZM57.8263 187.066C57.5195 187.066 57.2518 186.996 57.0231 186.855C56.7944 186.714 56.6168 186.518 56.4904 186.265C56.364 186.012 56.3008 185.717 56.3008 185.379C56.3008 185.039 56.364 184.742 56.4904 184.488C56.6168 184.234 56.7944 184.036 57.0231 183.896C57.2518 183.755 57.5195 183.685 57.8263 183.685C58.1332 183.685 58.4009 183.755 58.6296 183.896C58.8583 184.036 59.0359 184.234 59.1623 184.488C59.2887 184.742 59.3519 185.039 59.3519 185.379C59.3519 185.717 59.2887 186.012 59.1623 186.265C59.0359 186.518 58.8583 186.714 58.6296 186.855C58.4009 186.996 58.1332 187.066 57.8263 187.066ZM57.8285 186.531C58.0273 186.531 58.1921 186.479 58.3228 186.374C58.4535 186.268 58.5501 186.129 58.6126 185.954C58.6765 185.779 58.7085 185.587 58.7085 185.376C58.7085 185.168 58.6765 184.976 58.6126 184.801C58.5501 184.625 58.4535 184.484 58.3228 184.377C58.1921 184.271 58.0273 184.217 57.8285 184.217C57.6282 184.217 57.462 184.271 57.3299 184.377C57.1992 184.484 57.1019 184.625 57.038 184.801C56.9755 184.976 56.9442 185.168 56.9442 185.376C56.9442 185.587 56.9755 185.779 57.038 185.954C57.1019 186.129 57.1992 186.268 57.3299 186.374C57.462 186.479 57.6282 186.531 57.8285 186.531ZM60.063 187V183.727H60.7001V187H60.063ZM60.3848 183.222C60.274 183.222 60.1788 183.185 60.0993 183.112C60.0211 183.036 59.9821 182.947 59.9821 182.843C59.9821 182.738 60.0211 182.648 60.0993 182.575C60.1788 182.499 60.274 182.462 60.3848 182.462C60.4956 182.462 60.59 182.499 60.6681 182.575C60.7477 182.648 60.7875 182.738 60.7875 182.843C60.7875 182.947 60.7477 183.036 60.6681 183.112C60.59 183.185 60.4956 183.222 60.3848 183.222ZM62.1942 182.636V187H61.5572V182.636H62.1942ZM64.4618 187.066C64.1394 187.066 63.8617 186.997 63.6287 186.859C63.3972 186.72 63.2182 186.525 63.0918 186.273C62.9668 186.021 62.9043 185.724 62.9043 185.385C62.9043 185.05 62.9668 184.754 63.0918 184.499C63.2182 184.243 63.3944 184.043 63.6202 183.9C63.8475 183.756 64.1131 183.685 64.4171 183.685C64.6017 183.685 64.7807 183.715 64.954 183.776C65.1273 183.837 65.2828 183.933 65.4206 184.064C65.5584 184.195 65.6671 184.364 65.7466 184.573C65.8262 184.781 65.8659 185.033 65.8659 185.33V185.555H63.2644V185.078H65.2417C65.2417 184.911 65.2076 184.762 65.1394 184.633C65.0712 184.502 64.9753 184.399 64.8517 184.324C64.7296 184.249 64.5861 184.211 64.4213 184.211C64.2424 184.211 64.0861 184.255 63.9526 184.343C63.8205 184.43 63.7182 184.543 63.6458 184.684C63.5748 184.823 63.5392 184.974 63.5392 185.138V185.511C63.5392 185.729 63.5776 185.915 63.6543 186.069C63.7324 186.222 63.8411 186.339 63.9803 186.42C64.1195 186.5 64.2821 186.54 64.4682 186.54C64.589 186.54 64.699 186.523 64.7985 186.489C64.8979 186.453 64.9838 186.401 65.0563 186.331C65.1287 186.261 65.1841 186.175 65.2225 186.073L65.8255 186.182C65.7772 186.359 65.6905 186.515 65.5655 186.648C65.4419 186.781 65.2864 186.884 65.0989 186.957C64.9128 187.03 64.7005 187.066 64.4618 187.066ZM66.5728 187V183.727H67.1886V184.247H67.2227C67.2823 184.071 67.3874 183.933 67.538 183.832C67.69 183.729 67.8619 183.678 68.0536 183.678C68.0934 183.678 68.1403 183.68 68.1942 183.683C68.2496 183.685 68.293 183.689 68.3242 183.693V184.303C68.2987 184.295 68.2532 184.288 68.1879 184.279C68.1225 184.269 68.0572 184.264 67.9918 184.264C67.8413 184.264 67.707 184.296 67.5891 184.36C67.4727 184.423 67.3803 184.51 67.3121 184.622C67.244 184.733 67.2099 184.859 67.2099 185.001V187H66.5728ZM74.0366 182.636V187H73.4315L71.2134 183.8H71.1729V187H70.5146V182.636H71.1239L73.3441 185.841H73.3846V182.636H74.0366ZM75.8961 184.701C75.7029 184.701 75.5268 184.654 75.3677 184.56C75.21 184.465 75.0843 184.339 74.9906 184.181C74.8968 184.022 74.85 183.846 74.85 183.653C74.85 183.461 74.8968 183.286 74.9906 183.129C75.0843 182.969 75.21 182.843 75.3677 182.749C75.5268 182.654 75.7029 182.607 75.8961 182.607C76.0893 182.607 76.2647 182.654 76.4224 182.749C76.5815 182.843 76.7079 182.969 76.8017 183.129C76.8954 183.286 76.9423 183.461 76.9423 183.653C76.9423 183.846 76.8954 184.022 76.8017 184.181C76.7079 184.339 76.5815 184.465 76.4224 184.56C76.2647 184.654 76.0893 184.701 75.8961 184.701ZM75.8961 184.096C75.9785 184.096 76.0531 184.076 76.1199 184.036C76.1866 183.996 76.2392 183.943 76.2775 183.876C76.3173 183.81 76.3372 183.735 76.3372 183.653C76.3372 183.572 76.3173 183.498 76.2775 183.431C76.2392 183.364 76.1866 183.311 76.1199 183.271C76.0531 183.232 75.9785 183.212 75.8961 183.212C75.8152 183.212 75.7413 183.232 75.6745 183.271C75.6078 183.311 75.5545 183.364 75.5147 183.431C75.475 183.498 75.4551 183.572 75.4551 183.653C75.4551 183.735 75.475 183.81 75.5147 183.876C75.5545 183.943 75.6078 183.996 75.6745 184.036C75.7413 184.076 75.8152 184.096 75.8961 184.096ZM77.6055 186.148V185.615L79.4911 182.636H79.9109V183.42H79.6445L78.2958 185.555V185.589H80.8803V186.148H77.6055ZM79.6744 187V185.986L79.6786 185.743V182.636H80.3029V187H79.6744Z" fill="black"/>
<path d="M9.8608 192.636L11.0753 196.19H11.1243L12.3388 192.636H13.0504L11.4801 197H10.7195L9.14915 192.636H9.8608ZM13.6294 197V193.727H14.2665V197H13.6294ZM13.9512 193.222C13.8404 193.222 13.7452 193.185 13.6657 193.112C13.5875 193.036 13.5485 192.947 13.5485 192.843C13.5485 192.738 13.5875 192.648 13.6657 192.575C13.7452 192.499 13.8404 192.462 13.9512 192.462C14.062 192.462 14.1564 192.499 14.2346 192.575C14.3141 192.648 14.3539 192.738 14.3539 192.843C14.3539 192.947 14.3141 193.036 14.2346 193.112C14.1564 193.185 14.062 193.222 13.9512 193.222ZM16.3487 197.064C16.0845 197.064 15.8487 196.996 15.6413 196.862C15.4354 196.725 15.2734 196.531 15.1555 196.28C15.0391 196.027 14.9808 195.724 14.9808 195.37C14.9808 195.016 15.0398 194.714 15.1577 194.462C15.277 194.211 15.4403 194.018 15.6477 193.885C15.8551 193.751 16.0902 193.685 16.353 193.685C16.5561 193.685 16.7195 193.719 16.843 193.787C16.968 193.854 17.0646 193.932 17.1328 194.021C17.2024 194.111 17.2564 194.19 17.2947 194.258H17.3331V192.636H17.9702V197H17.348V196.491H17.2947C17.2564 196.56 17.201 196.64 17.1286 196.729C17.0575 196.819 16.9595 196.897 16.8345 196.964C16.7095 197.031 16.5476 197.064 16.3487 197.064ZM16.4893 196.521C16.6726 196.521 16.8274 196.472 16.9538 196.376C17.0817 196.278 17.1783 196.142 17.2436 195.969C17.3104 195.795 17.3438 195.594 17.3438 195.364C17.3438 195.136 17.3111 194.937 17.2457 194.767C17.1804 194.597 17.0845 194.464 16.9581 194.369C16.8317 194.273 16.6754 194.226 16.4893 194.226C16.2976 194.226 16.1378 194.276 16.0099 194.375C15.8821 194.474 15.7855 194.61 15.7202 194.782C15.6563 194.954 15.6243 195.148 15.6243 195.364C15.6243 195.582 15.657 195.779 15.7223 195.954C15.7876 196.129 15.8842 196.267 16.0121 196.369C16.1413 196.47 16.3004 196.521 16.4893 196.521ZM20.29 197.066C19.9675 197.066 19.6898 196.997 19.4569 196.859C19.2253 196.72 19.0463 196.525 18.9199 196.273C18.7949 196.021 18.7324 195.724 18.7324 195.385C18.7324 195.05 18.7949 194.754 18.9199 194.499C19.0463 194.243 19.2225 194.043 19.4483 193.9C19.6756 193.756 19.9412 193.685 20.2452 193.685C20.4299 193.685 20.6088 193.715 20.7821 193.776C20.9554 193.837 21.111 193.933 21.2488 194.064C21.3865 194.195 21.4952 194.364 21.5748 194.573C21.6543 194.781 21.6941 195.033 21.6941 195.33V195.555H19.0925V195.078H21.0698C21.0698 194.911 21.0357 194.762 20.9675 194.633C20.8993 194.502 20.8034 194.399 20.6799 194.324C20.5577 194.249 20.4142 194.211 20.2495 194.211C20.0705 194.211 19.9142 194.255 19.7807 194.343C19.6486 194.43 19.5463 194.543 19.4739 194.684C19.4029 194.823 19.3674 194.974 19.3674 195.138V195.511C19.3674 195.729 19.4057 195.915 19.4824 196.069C19.5605 196.222 19.6692 196.339 19.8084 196.42C19.9476 196.5 20.1103 196.54 20.2963 196.54C20.4171 196.54 20.5272 196.523 20.6266 196.489C20.726 196.453 20.812 196.401 20.8844 196.331C20.9569 196.261 21.0123 196.175 21.0506 196.073L21.6536 196.182C21.6053 196.359 21.5186 196.515 21.3936 196.648C21.2701 196.781 21.1145 196.884 20.927 196.957C20.7409 197.03 20.5286 197.066 20.29 197.066ZM23.7795 197.066C23.4727 197.066 23.2049 196.996 22.9762 196.855C22.7475 196.714 22.57 196.518 22.4435 196.265C22.3171 196.012 22.2539 195.717 22.2539 195.379C22.2539 195.039 22.3171 194.742 22.4435 194.488C22.57 194.234 22.7475 194.036 22.9762 193.896C23.2049 193.755 23.4727 193.685 23.7795 193.685C24.0863 193.685 24.354 193.755 24.5827 193.896C24.8114 194.036 24.989 194.234 25.1154 194.488C25.2418 194.742 25.305 195.039 25.305 195.379C25.305 195.717 25.2418 196.012 25.1154 196.265C24.989 196.518 24.8114 196.714 24.5827 196.855C24.354 196.996 24.0863 197.066 23.7795 197.066ZM23.7816 196.531C23.9805 196.531 24.1452 196.479 24.2759 196.374C24.4066 196.268 24.5032 196.129 24.5657 195.954C24.6296 195.779 24.6616 195.587 24.6616 195.376C24.6616 195.168 24.6296 194.976 24.5657 194.801C24.5032 194.625 24.4066 194.484 24.2759 194.377C24.1452 194.271 23.9805 194.217 23.7816 194.217C23.5813 194.217 23.4151 194.271 23.283 194.377C23.1523 194.484 23.055 194.625 22.9911 194.801C22.9286 194.976 22.8974 195.168 22.8974 195.376C22.8974 195.587 22.9286 195.779 22.9911 195.954C23.055 196.129 23.1523 196.268 23.283 196.374C23.4151 196.479 23.5813 196.531 23.7816 196.531ZM29.1616 193.727V194.239H27.3121V193.727H29.1616ZM27.8192 197V193.348C27.8192 193.143 27.864 192.974 27.9535 192.839C28.043 192.702 28.1616 192.601 28.3093 192.534C28.457 192.466 28.6175 192.432 28.7908 192.432C28.9187 192.432 29.0281 192.442 29.119 192.464C29.2099 192.484 29.2773 192.502 29.3214 192.519L29.1722 193.035C29.1424 193.026 29.104 193.016 29.0572 193.005C29.0103 192.992 28.9535 192.986 28.8867 192.986C28.7319 192.986 28.6211 193.024 28.5543 193.101C28.489 193.178 28.4563 193.288 28.4563 193.433V197H27.8192ZM29.8189 197V193.727H30.4347V194.247H30.4688C30.5284 194.071 30.6335 193.933 30.7841 193.832C30.9361 193.729 31.108 193.678 31.2997 193.678C31.3395 193.678 31.3864 193.68 31.4403 193.683C31.4957 193.685 31.5391 193.689 31.5703 193.693V194.303C31.5447 194.295 31.4993 194.288 31.4339 194.279C31.3686 194.269 31.3033 194.264 31.2379 194.264C31.0874 194.264 30.9531 194.296 30.8352 194.36C30.7188 194.423 30.6264 194.51 30.5582 194.622C30.4901 194.733 30.456 194.859 30.456 195.001V197H29.8189ZM33.0447 197.072C32.8374 197.072 32.6499 197.034 32.4822 196.957C32.3146 196.879 32.1818 196.766 32.0838 196.619C31.9872 196.471 31.9389 196.29 31.9389 196.075C31.9389 195.891 31.9744 195.739 32.0455 195.619C32.1165 195.5 32.2124 195.406 32.3331 195.336C32.4538 195.266 32.5888 195.214 32.7379 195.178C32.8871 195.143 33.0391 195.116 33.1939 195.097C33.3899 195.075 33.549 195.056 33.6712 195.042C33.7933 195.026 33.8821 195.001 33.9375 194.967C33.9929 194.933 34.0206 194.878 34.0206 194.801V194.786C34.0206 194.6 33.968 194.456 33.8629 194.354C33.7592 194.251 33.6044 194.2 33.3984 194.2C33.1839 194.2 33.0149 194.248 32.8913 194.343C32.7692 194.437 32.6847 194.541 32.6378 194.656L32.0391 194.52C32.1101 194.321 32.2138 194.161 32.3501 194.038C32.4879 193.915 32.6463 193.825 32.8253 193.77C33.0043 193.713 33.1925 193.685 33.3899 193.685C33.5206 193.685 33.6591 193.7 33.8054 193.732C33.9531 193.761 34.0909 193.817 34.2188 193.898C34.348 193.979 34.4538 194.094 34.5362 194.245C34.6186 194.394 34.6598 194.588 34.6598 194.827V197H34.0376V196.553H34.0121C33.9709 196.635 33.9091 196.716 33.8267 196.795C33.7443 196.875 33.6385 196.941 33.5092 196.994C33.38 197.046 33.2251 197.072 33.0447 197.072ZM33.1832 196.561C33.3594 196.561 33.5099 196.526 33.6349 196.457C33.7614 196.387 33.8572 196.296 33.9226 196.184C33.9893 196.07 34.0227 195.949 34.0227 195.82V195.398C34 195.42 33.956 195.442 33.8906 195.462C33.8267 195.48 33.7536 195.496 33.6712 195.511C33.5888 195.523 33.5085 195.536 33.4304 195.547C33.3523 195.557 33.2869 195.565 33.2344 195.572C33.1108 195.588 32.9979 195.614 32.8956 195.651C32.7947 195.688 32.7138 195.741 32.6527 195.811C32.593 195.879 32.5632 195.97 32.5632 196.084C32.5632 196.241 32.6214 196.361 32.7379 196.442C32.8544 196.521 33.0028 196.561 33.1832 196.561ZM35.5083 197V193.727H36.1199V194.26H36.1603C36.2285 194.08 36.34 193.939 36.4949 193.838C36.6497 193.736 36.835 193.685 37.051 193.685C37.2697 193.685 37.4529 193.736 37.6007 193.838C37.7498 193.94 37.8599 194.081 37.9309 194.26H37.965C38.0431 194.085 38.1674 193.946 38.3379 193.842C38.5083 193.737 38.7115 193.685 38.9473 193.685C39.2441 193.685 39.4863 193.778 39.6738 193.964C39.8627 194.15 39.9572 194.43 39.9572 194.805V197H39.3201V194.865C39.3201 194.643 39.2598 194.483 39.139 194.384C39.0183 194.284 38.8741 194.234 38.7065 194.234C38.4991 194.234 38.3379 194.298 38.2228 194.426C38.1078 194.553 38.0502 194.715 38.0502 194.914V197H37.4153V194.825C37.4153 194.647 37.3599 194.504 37.2491 194.396C37.1383 194.288 36.9941 194.234 36.8166 194.234C36.6958 194.234 36.5843 194.266 36.4821 194.33C36.3812 194.393 36.2995 194.48 36.237 194.592C36.176 194.705 36.1454 194.835 36.1454 194.982V197H35.5083ZM42.2216 197.066C41.8991 197.066 41.6214 196.997 41.3885 196.859C41.157 196.72 40.978 196.525 40.8516 196.273C40.7266 196.021 40.6641 195.724 40.6641 195.385C40.6641 195.05 40.7266 194.754 40.8516 194.499C40.978 194.243 41.1541 194.043 41.38 193.9C41.6072 193.756 41.8729 193.685 42.1768 193.685C42.3615 193.685 42.5405 193.715 42.7138 193.776C42.8871 193.837 43.0426 193.933 43.1804 194.064C43.3182 194.195 43.4268 194.364 43.5064 194.573C43.5859 194.781 43.6257 195.033 43.6257 195.33V195.555H41.0241V195.078H43.0014C43.0014 194.911 42.9673 194.762 42.8991 194.633C42.831 194.502 42.7351 194.399 42.6115 194.324C42.4893 194.249 42.3459 194.211 42.1811 194.211C42.0021 194.211 41.8459 194.255 41.7124 194.343C41.5803 194.43 41.478 194.543 41.4055 194.684C41.3345 194.823 41.299 194.974 41.299 195.138V195.511C41.299 195.729 41.3374 195.915 41.4141 196.069C41.4922 196.222 41.6009 196.339 41.7401 196.42C41.8793 196.5 42.0419 196.54 42.228 196.54C42.3487 196.54 42.4588 196.523 42.5582 196.489C42.6577 196.453 42.7436 196.401 42.8161 196.331C42.8885 196.261 42.9439 196.175 42.9822 196.073L43.5852 196.182C43.5369 196.359 43.4503 196.515 43.3253 196.648C43.2017 196.781 43.0462 196.884 42.8587 196.957C42.6726 197.03 42.4602 197.066 42.2216 197.066ZM49.4936 192.636V197H48.8885L46.6705 193.8H46.63V197H45.9716V192.636H46.581L48.8011 195.841H48.8416V192.636H49.4936ZM51.9135 197.072C51.5769 197.071 51.2892 196.982 51.0506 196.806C50.812 196.63 50.6294 196.374 50.503 196.037C50.3766 195.7 50.3134 195.295 50.3134 194.82C50.3134 194.347 50.3766 193.943 50.503 193.608C50.6309 193.273 50.8141 193.017 51.0527 192.841C51.2928 192.665 51.5797 192.577 51.9135 192.577C52.2473 192.577 52.5336 192.665 52.7722 192.843C53.0108 193.019 53.1934 193.275 53.3198 193.61C53.4476 193.944 53.5115 194.347 53.5115 194.82C53.5115 195.296 53.4483 195.702 53.3219 196.039C53.1955 196.374 53.013 196.631 52.7743 196.808C52.5357 196.984 52.2488 197.072 51.9135 197.072ZM51.9135 196.504C52.209 196.504 52.4398 196.359 52.606 196.071C52.7736 195.783 52.8574 195.366 52.8574 194.82C52.8574 194.458 52.8191 194.152 52.7424 193.902C52.6671 193.651 52.5584 193.46 52.4164 193.331C52.2757 193.2 52.1081 193.135 51.9135 193.135C51.6195 193.135 51.3887 193.28 51.2211 193.57C51.0534 193.859 50.9689 194.276 50.9675 194.82C50.9675 195.184 51.0051 195.491 51.0804 195.743C51.1571 195.993 51.2658 196.183 51.4064 196.312C51.5471 196.44 51.7161 196.504 51.9135 196.504ZM55.7077 197.06C55.4407 197.06 55.2006 197.009 54.9876 196.906C54.7759 196.803 54.6069 196.661 54.4805 196.48C54.354 196.3 54.2866 196.094 54.2781 195.862H54.9173C54.9329 196.05 55.016 196.204 55.1665 196.325C55.3171 196.445 55.4975 196.506 55.7077 196.506C55.8754 196.506 56.0238 196.467 56.1531 196.391C56.2837 196.312 56.386 196.205 56.4599 196.069C56.5352 195.933 56.5728 195.777 56.5728 195.602C56.5728 195.425 56.5344 195.266 56.4577 195.127C56.381 194.988 56.2752 194.879 56.1403 194.799C56.0067 194.719 55.8533 194.679 55.68 194.678C55.5479 194.678 55.4151 194.7 55.2816 194.746C55.1481 194.791 55.0401 194.851 54.9577 194.925L54.3548 194.835L54.5998 192.636H56.9989V193.201H55.1474L55.0089 194.422H55.0344C55.1197 194.339 55.2326 194.271 55.3732 194.215C55.5153 194.16 55.6673 194.132 55.8292 194.132C56.0948 194.132 56.3313 194.195 56.5387 194.322C56.7475 194.448 56.9116 194.621 57.0309 194.839C57.1516 195.057 57.2113 195.307 57.2099 195.589C57.2113 195.872 57.1474 196.124 57.0181 196.346C56.8903 196.567 56.7127 196.742 56.4854 196.87C56.2596 196.996 56.0004 197.06 55.7077 197.06Z" fill="black"/>
<rect x="21.4573" y="92.9233" width="64.3378" height="13.9466" fill="#5298FA" stroke="#444D5E"/>
<path d="M20.9572 134.701L9 122.743V77.9038L20.9572 65.9465V134.701Z" fill="#5298FA" stroke="#444D5E"/>
<rect x="132.489" y="92.4961" width="32.7365" height="13.9466" fill="#5298FA" stroke="#444D5E"/>
<path d="M85.8682 51L131.989 68.0818V132.138L85.8682 149.22V51Z" fill="#5298FA" stroke="#444D5E"/>
<path d="M171.704 145.377L159.747 129.706V70.9412L171.704 55.2705V145.377Z" fill="#5298FA" stroke="#444D5E"/>
<rect x="50.4961" y="88.2258" width="5.40567" height="24.6227" fill="#5298FA" stroke="#486085"/>
</svg>
