<svg width="180" height="200" viewBox="0 0 180 200" fill="none" xmlns="http://www.w3.org/2000/svg">
<rect x="0.5" y="0.5" width="179" height="199" fill="#D9D9D9" stroke="black"/>
<path d="M82.5 26C77.5 49.5 60 61.5 30 66.5V163H116.5" stroke="#A3800F"/>
<path d="M0 180H180" stroke="black"/>
<path d="M34.4794 188V183.636H37.1854V184.203H35.1378V185.533H36.9915V186.097H35.1378V188H34.4794ZM39.812 186.643V184.727H40.4512V188H39.8248V187.433H39.7907C39.7154 187.608 39.5946 187.754 39.4284 187.87C39.2637 187.985 39.0584 188.043 38.8127 188.043C38.6025 188.043 38.4164 187.996 38.2544 187.904C38.0939 187.81 37.9675 187.672 37.8752 187.489C37.7843 187.305 37.7388 187.079 37.7388 186.809V184.727H38.3759V186.732C38.3759 186.955 38.4377 187.133 38.5613 187.265C38.6848 187.397 38.8453 187.463 39.0428 187.463C39.1621 187.463 39.2807 187.433 39.3986 187.374C39.5179 187.314 39.6167 187.224 39.6948 187.103C39.7743 186.982 39.8134 186.829 39.812 186.643ZM42.7177 188.066C42.3952 188.066 42.1175 187.997 41.8846 187.859C41.6531 187.72 41.4741 187.525 41.3477 187.273C41.2227 187.021 41.1602 186.724 41.1602 186.385C41.1602 186.05 41.2227 185.754 41.3477 185.499C41.4741 185.243 41.6502 185.043 41.8761 184.9C42.1033 184.756 42.369 184.685 42.6729 184.685C42.8576 184.685 43.0366 184.715 43.2099 184.776C43.3832 184.837 43.5387 184.933 43.6765 185.064C43.8143 185.195 43.9229 185.364 44.0025 185.573C44.082 185.781 44.1218 186.033 44.1218 186.33V186.555H41.5202V186.078H43.4975C43.4975 185.911 43.4634 185.762 43.3952 185.633C43.3271 185.502 43.2312 185.399 43.1076 185.324C42.9854 185.249 42.842 185.211 42.6772 185.211C42.4982 185.211 42.342 185.255 42.2085 185.343C42.0763 185.43 41.9741 185.543 41.9016 185.684C41.8306 185.823 41.7951 185.974 41.7951 186.138V186.511C41.7951 186.729 41.8335 186.915 41.9102 187.069C41.9883 187.222 42.0969 187.339 42.2362 187.42C42.3754 187.5 42.538 187.54 42.7241 187.54C42.8448 187.54 42.9549 187.523 43.0543 187.489C43.1538 187.453 43.2397 187.401 43.3121 187.331C43.3846 187.261 43.44 187.175 43.4783 187.073L44.0813 187.182C44.033 187.359 43.9464 187.515 43.8214 187.648C43.6978 187.781 43.5423 187.884 43.3548 187.957C43.1687 188.03 42.9563 188.066 42.7177 188.066ZM45.4657 183.636V188H44.8287V183.636H45.4657ZM50.3418 184.783C50.3191 184.581 50.2253 184.425 50.0605 184.314C49.8958 184.202 49.6884 184.146 49.4384 184.146C49.2594 184.146 49.1046 184.174 48.9739 184.231C48.8432 184.286 48.7417 184.363 48.6692 184.461C48.5982 184.558 48.5627 184.668 48.5627 184.791C48.5627 184.895 48.5868 184.984 48.6351 185.06C48.6848 185.135 48.7495 185.198 48.829 185.249C48.91 185.299 48.9966 185.341 49.089 185.375C49.1813 185.408 49.2701 185.435 49.3553 185.456L49.7814 185.567C49.9206 185.601 50.0634 185.647 50.2097 185.705C50.356 185.763 50.4917 185.84 50.6167 185.935C50.7417 186.031 50.8425 186.148 50.9192 186.289C50.9973 186.43 51.0364 186.598 51.0364 186.794C51.0364 187.041 50.9725 187.261 50.8446 187.452C50.7182 187.644 50.5343 187.795 50.2928 187.906C50.0527 188.017 49.7623 188.072 49.4213 188.072C49.0946 188.072 48.812 188.021 48.5733 187.917C48.3347 187.813 48.1479 187.666 48.013 187.476C47.878 187.284 47.8034 187.057 47.7892 186.794H48.4498C48.4625 186.952 48.5137 187.083 48.6032 187.188C48.6941 187.292 48.8098 187.369 48.9505 187.42C49.0925 187.47 49.248 187.495 49.4171 187.495C49.6032 187.495 49.7686 187.466 49.9135 187.408C50.0598 187.348 50.1749 187.266 50.2587 187.161C50.3425 187.054 50.3844 186.93 50.3844 186.788C50.3844 186.658 50.3475 186.553 50.2736 186.47C50.2012 186.388 50.1025 186.32 49.9775 186.266C49.8539 186.212 49.714 186.164 49.5577 186.123L49.0421 185.982C48.6926 185.887 48.4157 185.747 48.2111 185.562C48.008 185.378 47.9064 185.134 47.9064 184.83C47.9064 184.578 47.9746 184.359 48.111 184.171C48.2473 183.984 48.432 183.838 48.665 183.734C48.8979 183.629 49.1607 183.577 49.4533 183.577C49.7488 183.577 50.0094 183.629 50.2353 183.732C50.4625 183.836 50.6415 183.979 50.7722 184.161C50.9029 184.341 50.9711 184.548 50.9767 184.783H50.3418ZM52.1747 189.227C52.0795 189.227 51.9929 189.219 51.9148 189.204C51.8366 189.19 51.7784 189.174 51.7401 189.157L51.8935 188.635C52.0099 188.666 52.1136 188.68 52.2045 188.675C52.2955 188.671 52.3757 188.637 52.4453 188.573C52.5163 188.509 52.5788 188.405 52.6328 188.26L52.7116 188.043L51.5142 184.727H52.196L53.0249 187.267H53.0589L53.8878 184.727H54.5717L53.223 188.437C53.1605 188.607 53.081 188.751 52.9844 188.869C52.8878 188.989 52.7727 189.078 52.6392 189.138C52.5057 189.197 52.3509 189.227 52.1747 189.227ZM57.6229 185.526L57.0455 185.629C57.0213 185.555 56.983 185.484 56.9304 185.418C56.8793 185.351 56.8097 185.296 56.7216 185.254C56.6335 185.211 56.5234 185.19 56.3913 185.19C56.2109 185.19 56.0604 185.23 55.9396 185.311C55.8189 185.391 55.7585 185.494 55.7585 185.62C55.7585 185.729 55.799 185.817 55.88 185.884C55.9609 185.951 56.0916 186.006 56.272 186.048L56.7919 186.168C57.093 186.237 57.3175 186.344 57.4652 186.489C57.6129 186.634 57.6868 186.822 57.6868 187.054C57.6868 187.25 57.63 187.425 57.5163 187.578C57.4041 187.73 57.2472 187.849 57.0455 187.936C56.8452 188.023 56.6129 188.066 56.3487 188.066C55.9822 188.066 55.6832 187.988 55.4517 187.832C55.2202 187.674 55.0781 187.45 55.0256 187.161L55.6413 187.067C55.6797 187.227 55.7585 187.349 55.8778 187.431C55.9972 187.512 56.1527 187.553 56.3445 187.553C56.5533 187.553 56.7202 187.509 56.8452 187.423C56.9702 187.335 57.0327 187.227 57.0327 187.101C57.0327 186.999 56.9943 186.913 56.9176 186.843C56.8423 186.773 56.7266 186.721 56.5703 186.685L56.0163 186.564C55.7109 186.494 55.4851 186.384 55.3388 186.232C55.1939 186.08 55.1214 185.887 55.1214 185.654C55.1214 185.461 55.1754 185.292 55.2834 185.147C55.3913 185.002 55.5405 184.889 55.7308 184.808C55.9212 184.726 56.1392 184.685 56.3849 184.685C56.7386 184.685 57.017 184.761 57.2202 184.915C57.4233 185.067 57.5575 185.271 57.6229 185.526ZM59.915 184.727V185.239H58.1273V184.727H59.915ZM58.6067 183.943H59.2438V187.039C59.2438 187.163 59.2623 187.256 59.2992 187.318C59.3361 187.379 59.3837 187.421 59.4419 187.444C59.5016 187.465 59.5662 187.476 59.6358 187.476C59.687 187.476 59.7317 187.472 59.7701 187.465C59.8084 187.458 59.8382 187.452 59.8596 187.448L59.9746 187.974C59.9377 187.989 59.8851 188.003 59.8169 188.017C59.7488 188.033 59.6635 188.041 59.5613 188.043C59.3936 188.045 59.2374 188.016 59.0925 187.953C58.9476 187.891 58.8304 187.794 58.7409 187.663C58.6515 187.533 58.6067 187.369 58.6067 187.171V183.943ZM61.995 188.066C61.6726 188.066 61.3949 187.997 61.1619 187.859C60.9304 187.72 60.7514 187.525 60.625 187.273C60.5 187.021 60.4375 186.724 60.4375 186.385C60.4375 186.05 60.5 185.754 60.625 185.499C60.7514 185.243 60.9276 185.043 61.1534 184.9C61.3807 184.756 61.6463 184.685 61.9503 184.685C62.1349 184.685 62.3139 184.715 62.4872 184.776C62.6605 184.837 62.8161 184.933 62.9538 185.064C63.0916 185.195 63.2003 185.364 63.2798 185.573C63.3594 185.781 63.3991 186.033 63.3991 186.33V186.555H60.7976V186.078H62.7749C62.7749 185.911 62.7408 185.762 62.6726 185.633C62.6044 185.502 62.5085 185.399 62.3849 185.324C62.2628 185.249 62.1193 185.211 61.9545 185.211C61.7756 185.211 61.6193 185.255 61.4858 185.343C61.3537 185.43 61.2514 185.543 61.179 185.684C61.108 185.823 61.0724 185.974 61.0724 186.138V186.511C61.0724 186.729 61.1108 186.915 61.1875 187.069C61.2656 187.222 61.3743 187.339 61.5135 187.42C61.6527 187.5 61.8153 187.54 62.0014 187.54C62.1222 187.54 62.2322 187.523 62.3317 187.489C62.4311 187.453 62.517 187.401 62.5895 187.331C62.6619 187.261 62.7173 187.175 62.7557 187.073L63.3587 187.182C63.3104 187.359 63.2237 187.515 63.0987 187.648C62.9751 187.781 62.8196 187.884 62.6321 187.957C62.446 188.03 62.2337 188.066 61.995 188.066ZM64.106 188V184.727H64.7175V185.26H64.758C64.8262 185.08 64.9377 184.939 65.0925 184.838C65.2473 184.736 65.4327 184.685 65.6486 184.685C65.8674 184.685 66.0506 184.736 66.1983 184.838C66.3475 184.94 66.4576 185.081 66.5286 185.26H66.5627C66.6408 185.085 66.7651 184.946 66.9355 184.842C67.106 184.737 67.3091 184.685 67.5449 184.685C67.8418 184.685 68.084 184.778 68.2715 184.964C68.4604 185.15 68.5549 185.43 68.5549 185.805V188H67.9178V185.865C67.9178 185.643 67.8574 185.483 67.7367 185.384C67.6159 185.284 67.4718 185.234 67.3042 185.234C67.0968 185.234 66.9355 185.298 66.8205 185.426C66.7054 185.553 66.6479 185.715 66.6479 185.914V188H66.013V185.825C66.013 185.647 65.9576 185.504 65.8468 185.396C65.736 185.288 65.5918 185.234 65.4142 185.234C65.2935 185.234 65.182 185.266 65.0797 185.33C64.9789 185.393 64.8972 185.48 64.8347 185.592C64.7736 185.705 64.7431 185.835 64.7431 185.982V188H64.106Z" fill="black"/>
<path d="M12.8608 191.636L14.0753 195.19H14.1243L15.3388 191.636H16.0504L14.4801 196H13.7195L12.1491 191.636H12.8608ZM16.6294 196V192.727H17.2665V196H16.6294ZM16.9512 192.222C16.8404 192.222 16.7452 192.185 16.6657 192.112C16.5875 192.036 16.5485 191.947 16.5485 191.843C16.5485 191.738 16.5875 191.648 16.6657 191.575C16.7452 191.499 16.8404 191.462 16.9512 191.462C17.062 191.462 17.1564 191.499 17.2346 191.575C17.3141 191.648 17.3539 191.738 17.3539 191.843C17.3539 191.947 17.3141 192.036 17.2346 192.112C17.1564 192.185 17.062 192.222 16.9512 192.222ZM19.3487 196.064C19.0845 196.064 18.8487 195.996 18.6413 195.862C18.4354 195.725 18.2734 195.531 18.1555 195.28C18.0391 195.027 17.9808 194.724 17.9808 194.37C17.9808 194.016 18.0398 193.714 18.1577 193.462C18.277 193.211 18.4403 193.018 18.6477 192.885C18.8551 192.751 19.0902 192.685 19.353 192.685C19.5561 192.685 19.7195 192.719 19.843 192.787C19.968 192.854 20.0646 192.932 20.1328 193.021C20.2024 193.111 20.2564 193.19 20.2947 193.258H20.3331V191.636H20.9702V196H20.348V195.491H20.2947C20.2564 195.56 20.201 195.64 20.1286 195.729C20.0575 195.819 19.9595 195.897 19.8345 195.964C19.7095 196.031 19.5476 196.064 19.3487 196.064ZM19.4893 195.521C19.6726 195.521 19.8274 195.472 19.9538 195.376C20.0817 195.278 20.1783 195.142 20.2436 194.969C20.3104 194.795 20.3438 194.594 20.3438 194.364C20.3438 194.136 20.3111 193.937 20.2457 193.767C20.1804 193.597 20.0845 193.464 19.9581 193.369C19.8317 193.273 19.6754 193.226 19.4893 193.226C19.2976 193.226 19.1378 193.276 19.0099 193.375C18.8821 193.474 18.7855 193.61 18.7202 193.782C18.6563 193.954 18.6243 194.148 18.6243 194.364C18.6243 194.582 18.657 194.779 18.7223 194.954C18.7876 195.129 18.8842 195.267 19.0121 195.369C19.1413 195.47 19.3004 195.521 19.4893 195.521ZM23.29 196.066C22.9675 196.066 22.6898 195.997 22.4569 195.859C22.2253 195.72 22.0463 195.525 21.9199 195.273C21.7949 195.021 21.7324 194.724 21.7324 194.385C21.7324 194.05 21.7949 193.754 21.9199 193.499C22.0463 193.243 22.2225 193.043 22.4483 192.9C22.6756 192.756 22.9412 192.685 23.2452 192.685C23.4299 192.685 23.6088 192.715 23.7821 192.776C23.9554 192.837 24.111 192.933 24.2488 193.064C24.3865 193.195 24.4952 193.364 24.5748 193.573C24.6543 193.781 24.6941 194.033 24.6941 194.33V194.555H22.0925V194.078H24.0698C24.0698 193.911 24.0357 193.762 23.9675 193.633C23.8993 193.502 23.8034 193.399 23.6799 193.324C23.5577 193.249 23.4142 193.211 23.2495 193.211C23.0705 193.211 22.9142 193.255 22.7807 193.343C22.6486 193.43 22.5463 193.543 22.4739 193.684C22.4029 193.823 22.3674 193.974 22.3674 194.138V194.511C22.3674 194.729 22.4057 194.915 22.4824 195.069C22.5605 195.222 22.6692 195.339 22.8084 195.42C22.9476 195.5 23.1103 195.54 23.2963 195.54C23.4171 195.54 23.5272 195.523 23.6266 195.489C23.726 195.453 23.812 195.401 23.8844 195.331C23.9569 195.261 24.0123 195.175 24.0506 195.073L24.6536 195.182C24.6053 195.359 24.5186 195.515 24.3936 195.648C24.2701 195.781 24.1145 195.884 23.927 195.957C23.7409 196.03 23.5286 196.066 23.29 196.066ZM26.7795 196.066C26.4727 196.066 26.2049 195.996 25.9762 195.855C25.7475 195.714 25.57 195.518 25.4435 195.265C25.3171 195.012 25.2539 194.717 25.2539 194.379C25.2539 194.039 25.3171 193.742 25.4435 193.488C25.57 193.234 25.7475 193.036 25.9762 192.896C26.2049 192.755 26.4727 192.685 26.7795 192.685C27.0863 192.685 27.354 192.755 27.5827 192.896C27.8114 193.036 27.989 193.234 28.1154 193.488C28.2418 193.742 28.305 194.039 28.305 194.379C28.305 194.717 28.2418 195.012 28.1154 195.265C27.989 195.518 27.8114 195.714 27.5827 195.855C27.354 195.996 27.0863 196.066 26.7795 196.066ZM26.7816 195.531C26.9805 195.531 27.1452 195.479 27.2759 195.374C27.4066 195.268 27.5032 195.129 27.5657 194.954C27.6296 194.779 27.6616 194.587 27.6616 194.376C27.6616 194.168 27.6296 193.976 27.5657 193.801C27.5032 193.625 27.4066 193.484 27.2759 193.377C27.1452 193.271 26.9805 193.217 26.7816 193.217C26.5813 193.217 26.4151 193.271 26.283 193.377C26.1523 193.484 26.055 193.625 25.9911 193.801C25.9286 193.976 25.8974 194.168 25.8974 194.376C25.8974 194.587 25.9286 194.779 25.9911 194.954C26.055 195.129 26.1523 195.268 26.283 195.374C26.4151 195.479 26.5813 195.531 26.7816 195.531ZM32.1616 192.727V193.239H30.3121V192.727H32.1616ZM30.8192 196V192.348C30.8192 192.143 30.864 191.974 30.9535 191.839C31.043 191.702 31.1616 191.601 31.3093 191.534C31.457 191.466 31.6175 191.432 31.7908 191.432C31.9187 191.432 32.0281 191.442 32.119 191.464C32.2099 191.484 32.2773 191.502 32.3214 191.519L32.1722 192.035C32.1424 192.026 32.104 192.016 32.0572 192.005C32.0103 191.992 31.9535 191.986 31.8867 191.986C31.7319 191.986 31.6211 192.024 31.5543 192.101C31.489 192.178 31.4563 192.288 31.4563 192.433V196H30.8192ZM32.8189 196V192.727H33.4347V193.247H33.4688C33.5284 193.071 33.6335 192.933 33.7841 192.832C33.9361 192.729 34.108 192.678 34.2997 192.678C34.3395 192.678 34.3864 192.68 34.4403 192.683C34.4957 192.685 34.5391 192.689 34.5703 192.693V193.303C34.5447 193.295 34.4993 193.288 34.4339 193.279C34.3686 193.269 34.3033 193.264 34.2379 193.264C34.0874 193.264 33.9531 193.296 33.8352 193.36C33.7188 193.423 33.6264 193.51 33.5582 193.622C33.4901 193.733 33.456 193.859 33.456 194.001V196H32.8189ZM36.0447 196.072C35.8374 196.072 35.6499 196.034 35.4822 195.957C35.3146 195.879 35.1818 195.766 35.0838 195.619C34.9872 195.471 34.9389 195.29 34.9389 195.075C34.9389 194.891 34.9744 194.739 35.0455 194.619C35.1165 194.5 35.2124 194.406 35.3331 194.336C35.4538 194.266 35.5888 194.214 35.7379 194.178C35.8871 194.143 36.0391 194.116 36.1939 194.097C36.3899 194.075 36.549 194.056 36.6712 194.042C36.7933 194.026 36.8821 194.001 36.9375 193.967C36.9929 193.933 37.0206 193.878 37.0206 193.801V193.786C37.0206 193.6 36.968 193.456 36.8629 193.354C36.7592 193.251 36.6044 193.2 36.3984 193.2C36.1839 193.2 36.0149 193.248 35.8913 193.343C35.7692 193.437 35.6847 193.541 35.6378 193.656L35.0391 193.52C35.1101 193.321 35.2138 193.161 35.3501 193.038C35.4879 192.915 35.6463 192.825 35.8253 192.77C36.0043 192.713 36.1925 192.685 36.3899 192.685C36.5206 192.685 36.6591 192.7 36.8054 192.732C36.9531 192.761 37.0909 192.817 37.2188 192.898C37.348 192.979 37.4538 193.094 37.5362 193.245C37.6186 193.394 37.6598 193.588 37.6598 193.827V196H37.0376V195.553H37.0121C36.9709 195.635 36.9091 195.716 36.8267 195.795C36.7443 195.875 36.6385 195.941 36.5092 195.994C36.38 196.046 36.2251 196.072 36.0447 196.072ZM36.1832 195.561C36.3594 195.561 36.5099 195.526 36.6349 195.457C36.7614 195.387 36.8572 195.296 36.9226 195.184C36.9893 195.07 37.0227 194.949 37.0227 194.82V194.398C37 194.42 36.956 194.442 36.8906 194.462C36.8267 194.48 36.7536 194.496 36.6712 194.511C36.5888 194.523 36.5085 194.536 36.4304 194.547C36.3523 194.557 36.2869 194.565 36.2344 194.572C36.1108 194.588 35.9979 194.614 35.8956 194.651C35.7947 194.688 35.7138 194.741 35.6527 194.811C35.593 194.879 35.5632 194.97 35.5632 195.084C35.5632 195.241 35.6214 195.361 35.7379 195.442C35.8544 195.521 36.0028 195.561 36.1832 195.561ZM38.5083 196V192.727H39.1199V193.26H39.1603C39.2285 193.08 39.34 192.939 39.4949 192.838C39.6497 192.736 39.835 192.685 40.051 192.685C40.2697 192.685 40.4529 192.736 40.6007 192.838C40.7498 192.94 40.8599 193.081 40.9309 193.26H40.965C41.0431 193.085 41.1674 192.946 41.3379 192.842C41.5083 192.737 41.7115 192.685 41.9473 192.685C42.2441 192.685 42.4863 192.778 42.6738 192.964C42.8627 193.15 42.9572 193.43 42.9572 193.805V196H42.3201V193.865C42.3201 193.643 42.2598 193.483 42.139 193.384C42.0183 193.284 41.8741 193.234 41.7065 193.234C41.4991 193.234 41.3379 193.298 41.2228 193.426C41.1078 193.553 41.0502 193.715 41.0502 193.914V196H40.4153V193.825C40.4153 193.647 40.3599 193.504 40.2491 193.396C40.1383 193.288 39.9941 193.234 39.8166 193.234C39.6958 193.234 39.5843 193.266 39.4821 193.33C39.3812 193.393 39.2995 193.48 39.237 193.592C39.176 193.705 39.1454 193.835 39.1454 193.982V196H38.5083ZM45.2216 196.066C44.8991 196.066 44.6214 195.997 44.3885 195.859C44.157 195.72 43.978 195.525 43.8516 195.273C43.7266 195.021 43.6641 194.724 43.6641 194.385C43.6641 194.05 43.7266 193.754 43.8516 193.499C43.978 193.243 44.1541 193.043 44.38 192.9C44.6072 192.756 44.8729 192.685 45.1768 192.685C45.3615 192.685 45.5405 192.715 45.7138 192.776C45.8871 192.837 46.0426 192.933 46.1804 193.064C46.3182 193.195 46.4268 193.364 46.5064 193.573C46.5859 193.781 46.6257 194.033 46.6257 194.33V194.555H44.0241V194.078H46.0014C46.0014 193.911 45.9673 193.762 45.8991 193.633C45.831 193.502 45.7351 193.399 45.6115 193.324C45.4893 193.249 45.3459 193.211 45.1811 193.211C45.0021 193.211 44.8459 193.255 44.7124 193.343C44.5803 193.43 44.478 193.543 44.4055 193.684C44.3345 193.823 44.299 193.974 44.299 194.138V194.511C44.299 194.729 44.3374 194.915 44.4141 195.069C44.4922 195.222 44.6009 195.339 44.7401 195.42C44.8793 195.5 45.0419 195.54 45.228 195.54C45.3487 195.54 45.4588 195.523 45.5582 195.489C45.6577 195.453 45.7436 195.401 45.8161 195.331C45.8885 195.261 45.9439 195.175 45.9822 195.073L46.5852 195.182C46.5369 195.359 46.4503 195.515 46.3253 195.648C46.2017 195.781 46.0462 195.884 45.8587 195.957C45.6726 196.03 45.4602 196.066 45.2216 196.066ZM52.4936 191.636V196H51.8885L49.6705 192.8H49.63V196H48.9716V191.636H49.581L51.8011 194.841H51.8416V191.636H52.4936ZM54.3532 193.701C54.16 193.701 53.9838 193.654 53.8248 193.56C53.6671 193.465 53.5414 193.339 53.4476 193.181C53.3539 193.022 53.307 192.846 53.307 192.653C53.307 192.461 53.3539 192.286 53.4476 192.129C53.5414 191.969 53.6671 191.843 53.8248 191.749C53.9838 191.654 54.16 191.607 54.3532 191.607C54.5463 191.607 54.7218 191.654 54.8794 191.749C55.0385 191.843 55.165 191.969 55.2587 192.129C55.3525 192.286 55.3993 192.461 55.3993 192.653C55.3993 192.846 55.3525 193.022 55.2587 193.181C55.165 193.339 55.0385 193.465 54.8794 193.56C54.7218 193.654 54.5463 193.701 54.3532 193.701ZM54.3532 193.096C54.4355 193.096 54.5101 193.076 54.5769 193.036C54.6436 192.996 54.6962 192.943 54.7346 192.876C54.7743 192.81 54.7942 192.735 54.7942 192.653C54.7942 192.572 54.7743 192.498 54.7346 192.431C54.6962 192.364 54.6436 192.311 54.5769 192.271C54.5101 192.232 54.4355 192.212 54.3532 192.212C54.2722 192.212 54.1983 192.232 54.1316 192.271C54.0648 192.311 54.0115 192.364 53.9718 192.431C53.932 192.498 53.9121 192.572 53.9121 192.653C53.9121 192.735 53.932 192.81 53.9718 192.876C54.0115 192.943 54.0648 192.996 54.1316 193.036C54.1983 193.076 54.2722 193.096 54.3532 193.096ZM57.6733 196.06C57.3807 196.06 57.1193 196.009 56.8892 195.908C56.6605 195.808 56.4794 195.668 56.3459 195.489C56.2138 195.308 56.1428 195.099 56.1328 194.862H56.8018C56.8104 194.991 56.8537 195.104 56.9318 195.199C57.0114 195.293 57.1151 195.365 57.2429 195.416C57.3707 195.467 57.5128 195.493 57.669 195.493C57.8409 195.493 57.9929 195.463 58.125 195.403C58.2585 195.344 58.3629 195.261 58.4382 195.154C58.5135 195.046 58.5511 194.922 58.5511 194.781C58.5511 194.635 58.5135 194.506 58.4382 194.396C58.3643 194.283 58.2557 194.195 58.1122 194.131C57.9702 194.067 57.7983 194.036 57.5966 194.036H57.228V193.499H57.5966C57.7585 193.499 57.9006 193.469 58.0227 193.411C58.1463 193.353 58.2429 193.272 58.3125 193.168C58.3821 193.063 58.4169 192.94 58.4169 192.8C58.4169 192.665 58.3864 192.548 58.3253 192.448C58.2656 192.347 58.1804 192.268 58.0696 192.212C57.9602 192.155 57.831 192.126 57.6818 192.126C57.5398 192.126 57.407 192.153 57.2834 192.205C57.1612 192.256 57.0618 192.33 56.9851 192.427C56.9084 192.522 56.8672 192.636 56.8615 192.77H56.2244C56.2315 192.534 56.3011 192.327 56.4332 192.148C56.5668 191.969 56.7429 191.829 56.9616 191.728C57.1804 191.627 57.4233 191.577 57.6903 191.577C57.9702 191.577 58.2116 191.631 58.4148 191.741C58.6193 191.849 58.777 191.993 58.8878 192.173C59 192.354 59.0554 192.551 59.054 192.766C59.0554 193.01 58.9872 193.217 58.8494 193.388C58.7131 193.558 58.5313 193.673 58.304 193.731V193.765C58.5938 193.809 58.8182 193.924 58.9773 194.11C59.1378 194.296 59.2173 194.527 59.2159 194.803C59.2173 195.043 59.1506 195.258 59.0156 195.448C58.8821 195.638 58.6996 195.788 58.468 195.898C58.2365 196.006 57.9716 196.06 57.6733 196.06Z" fill="black"/>
<path d="M77.8945 40.6052L55.1348 15.1567" stroke="#8F7E70"/>
<path d="M55.0398 16.3383L54.6793 14.2583L56.7063 14.8479L55.0398 16.3383Z" fill="white" stroke="#8F7E70"/>
<path d="M58.583 57.8765L35.8233 32.4279" stroke="#8F7E70"/>
<path d="M35.7283 33.6098L35.3678 31.5298L37.3947 32.1194L35.7283 33.6098Z" fill="white" stroke="#8F7E70"/>
<path d="M63 55L39.6857 28.9736" stroke="#8F7E70"/>
<path d="M39.5904 30.1556L39.2298 28.0757L41.2568 28.6653L39.5904 30.1556Z" fill="white" stroke="#8F7E70"/>
<path d="M67 52L43.5479 25.519" stroke="#8F7E70"/>
<path d="M43.4527 26.7011L43.0921 24.6211L45.1191 25.2107L43.4527 26.7011Z" fill="white" stroke="#8F7E70"/>
<path d="M70.5 48.5L47.4102 22.0649" stroke="#8F7E70"/>
<path d="M47.315 23.247L46.9544 21.167L48.9814 21.7566L47.315 23.247Z" fill="white" stroke="#8F7E70"/>
<path d="M74 44.5L51.2726 18.6109" stroke="#8F7E70"/>
<path d="M51.1775 19.7926L50.817 17.7126L52.844 18.3023L51.1775 19.7926Z" fill="white" stroke="#8F7E70"/>
<path d="M9 45.9942V5H71C62.047 32.1294 55.6412 46.3301 9 45.9942Z" stroke="#A3800F"/>
<path d="M80.5 5C74.5 51 43.5 60.5 9 56.5V169H179" stroke="#A3800F"/>
<path d="M83 74L85.8867 69L80.1132 69L83 74ZM82.5 26L82.5 69.5L83.5 69.5L83.5 26L82.5 26Z" fill="#A3800F"/>
<path d="M85.6312 42.2497L82.7797 47.4772L79.9282 42.2497H85.6312Z" stroke="#A3800F" stroke-width="0.5"/>
<path d="M79.9274 52.7488L82.7789 47.5213L85.6304 52.7488H79.9274Z" stroke="#A3800F" stroke-width="0.5"/>
<path d="M95 45.9942V5H157C148.047 32.1294 141.641 46.3301 95 45.9942Z" stroke="#A3800F"/>
<path d="M166.5 5C160.5 47.9146 129.5 59.7774 95 56.0457V158H179" stroke="#A3800F"/>
<path d="M168.5 26C163.5 49.5 146 61.5 116 66.5V175" stroke="#A3800F"/>
<path d="M169 74L171.887 69L166.113 69L169 74ZM168.5 26L168.5 69.5L169.5 69.5L169.5 26L168.5 26Z" fill="#A3800F"/>
<path d="M171.631 42.2497L168.78 47.4772L165.928 42.2497H171.631Z" stroke="#A3800F" stroke-width="0.5"/>
<path d="M165.927 52.7488L168.779 47.5213L171.63 52.7488H165.927Z" stroke="#A3800F" stroke-width="0.5"/>
<path d="M163.5 40L141 15" stroke="#8F7E70"/>
<path d="M141.04 16.3383L140.679 14.2583L142.706 14.8479L141.04 16.3383Z" fill="white" stroke="#8F7E70"/>
<path d="M144.583 57.8765L121.823 32.4279" stroke="#8F7E70"/>
<path d="M121.728 33.6098L121.368 31.5298L123.395 32.1194L121.728 33.6098Z" fill="white" stroke="#8F7E70"/>
<path d="M149 55L125.686 28.9736" stroke="#8F7E70"/>
<path d="M125.59 30.1556L125.23 28.0757L127.257 28.6653L125.59 30.1556Z" fill="white" stroke="#8F7E70"/>
<path d="M153 52L129.548 25.519" stroke="#8F7E70"/>
<path d="M129.453 26.7011L129.092 24.6211L131.119 25.2107L129.453 26.7011Z" fill="white" stroke="#8F7E70"/>
<path d="M157 48L133.41 22.0649" stroke="#8F7E70"/>
<path d="M133.315 23.247L132.954 21.167L134.981 21.7566L133.315 23.247Z" fill="white" stroke="#8F7E70"/>
<path d="M161 44L137.273 18.6108" stroke="#8F7E70"/>
<path d="M137.178 19.7926L136.817 17.7126L138.844 18.3023L137.178 19.7926Z" fill="white" stroke="#8F7E70"/>
<path d="M113.402 179.5L116 175L118.598 179.5H113.402Z" stroke="#A3800F"/>
<path d="M9 45.9942V5H71C62.047 32.1294 55.6412 46.3301 9 45.9942Z" stroke="#A3800F"/>
<path d="M80.5 5C74.5 51 43.5 60.5 9 56.5V169H169" stroke="#A3800F"/>
<path d="M83 74L85.8867 69L80.1132 69L83 74ZM82.5 26L82.5 69.5L83.5 69.5L83.5 26L82.5 26Z" fill="#A3800F"/>
<path d="M85.6312 42.2497L82.7797 47.4772L79.9282 42.2497H85.6312Z" stroke="#A3800F" stroke-width="0.5"/>
<path d="M79.9274 52.7488L82.7789 47.5213L85.6304 52.7488H79.9274Z" stroke="#A3800F" stroke-width="0.5"/>
<path d="M82.5 26C77.5 49.5 60 61.5 30 66.5" stroke="#A3800F"/>
</svg>
