<svg width="180" height="200" viewBox="0 0 180 200" fill="none" xmlns="http://www.w3.org/2000/svg">
<g clip-path="url(#clip0_3786_356)">
<path d="M179.5 0.5H0.5V199.5H179.5V0.5Z" fill="#D9D9D9" stroke="black"/>
<path d="M85.9298 156.262C107.341 156.262 124.698 138.905 124.698 117.494C124.698 96.083 107.341 78.7261 85.9298 78.7261C64.5189 78.7261 47.162 96.083 47.162 117.494C47.162 138.905 64.5189 156.262 85.9298 156.262Z" fill="#A7A4A2" stroke="black" stroke-width="0.8"/>
<path d="M91.4643 99.6133C94.5209 99.6133 96.9988 97.1354 96.9988 94.0788C96.9988 91.0221 94.5209 88.5442 91.4643 88.5442C88.4076 88.5442 85.9297 91.0221 85.9297 94.0788C85.9297 97.1354 88.4076 99.6133 91.4643 99.6133Z" fill="#FF4D7F"/>
<path d="M15.6831 179.5V94.5044" stroke="#002F7E"/>
<path d="M15.2573 94.0046H79.1179" stroke="#002F7E"/>
<path d="M65.1658 96.0486L78.9108 93.6717" stroke="#002F7E"/>
<path d="M65.4989 96.0222L79.2477 97.4483" stroke="#002F7E"/>
<path d="M65.0742 99.9768L78.9061 97.4775" stroke="#002F7E"/>
<path d="M65.5493 99.9878L78.5053 102.851" stroke="#002F7E"/>
<path d="M62 106L78.4265 103" stroke="#002F7E"/>
<path d="M85.9299 151.303C104.602 151.303 119.739 136.166 119.739 117.494C119.739 98.8219 104.602 83.6851 85.9299 83.6851C67.2577 83.6851 52.1208 98.8219 52.1208 117.494C52.1208 136.166 67.2577 151.303 85.9299 151.303Z" stroke="black" stroke-width="0.5"/>
<path d="M73 84V8" stroke="#47ACDE"/>
<path d="M73.4484 83C65.3096 85.847 58.4415 91.4832 54.0611 98.9101C49.6807 106.337 48.071 115.075 49.5171 123.575C50.9633 132.075 55.372 139.789 61.9619 145.349C68.5518 150.91 76.8974 153.958 85.5198 153.953" stroke="#47ACDE" stroke-width="0.5"/>
<path d="M120.046 114.452L116.338 116.688L116.256 112.359L120.046 114.452Z" fill="#5298FA"/>
<path d="M86 84V8" stroke="#EA7C57"/>
<path d="M73 8H105" stroke="#47ACDE"/>
<path d="M105 9V1" stroke="#47ACDE"/>
<path d="M108.225 100.583C112.041 105.919 113.87 112.423 113.394 118.966C112.918 125.509 110.168 131.679 105.62 136.407C101.072 141.135 95.0125 144.123 88.4928 144.852C81.973 145.581 75.4036 144.006 69.9234 140.4C64.4431 136.793 60.3975 131.383 58.4877 125.107C56.578 118.831 56.9246 112.084 59.4674 106.036" stroke="#002F7E" stroke-width="0.5"/>
<path d="M76.9893 122.603C79.7022 112.29 81.1631 106.647 87.2442 97.7358" stroke="#FF4D7F" stroke-width="0.7"/>
<path d="M79.9578 122.352C82.6707 112.039 84.1316 106.396 90.2127 97.4849" stroke="#FF4D7F" stroke-width="0.8"/>
<path d="M84.2151 124.905C86.928 114.592 91.4642 106.851 99.979 99.1875" stroke="#FF4D7F" stroke-width="0.7"/>
<path d="M88.058 139.632C91.7708 127.089 95.1516 114.606 104.662 104.722" stroke="#002F7E" stroke-width="0.7"/>
<path d="M80.3952 131.97C83.4518 131.97 85.9298 129.492 85.9298 126.435C85.9298 123.378 83.4518 120.9 80.3952 120.9C77.3385 120.9 74.8606 123.378 74.8606 126.435C74.8606 129.492 77.3385 131.97 80.3952 131.97Z" fill="#FF4D7F"/>
<path d="M84.6525 148.999C87.7092 148.999 90.1871 146.521 90.1871 143.464C90.1871 140.407 87.7092 137.929 84.6525 137.929C81.5958 137.929 79.1179 140.407 79.1179 143.464C79.1179 146.521 81.5958 148.999 84.6525 148.999Z" fill="#002F7E"/>
<path d="M114.028 108.128C123.433 108.128 131.058 100.504 131.058 91.0986C131.058 81.6935 123.433 74.0691 114.028 74.0691C104.623 74.0691 96.9985 81.6935 96.9985 91.0986C96.9985 100.504 104.623 108.128 114.028 108.128Z" fill="#D9D9D9"/>
<path d="M131.058 91.0986C131.058 93.3349 130.617 95.5494 129.761 97.6155C128.906 99.6816 127.651 101.559 126.07 103.14C124.489 104.722 122.611 105.976 120.545 106.832C118.479 107.688 116.265 108.128 114.028 108.128C111.792 108.128 109.577 107.688 107.511 106.832C105.445 105.976 103.568 104.722 101.987 103.14C100.405 101.559 99.1509 99.6816 98.2951 97.6155C97.4393 95.5494 96.9988 93.3349 96.9988 91.0986H114.028H131.058Z" fill="#002F7E"/>
<path d="M99.8766 100.571C98.0031 97.7725 97.0016 94.4808 96.9988 91.1127C96.996 87.7446 97.992 84.4513 99.8609 81.6493C101.73 78.8472 104.388 76.6623 107.498 75.3708C110.609 74.0793 114.033 73.7392 117.337 74.3936L116.623 77.995C114.032 77.4817 111.346 77.7485 108.906 78.7616C106.466 79.7746 104.381 81.4885 102.915 83.6864C101.449 85.8844 100.668 88.4677 100.67 91.1097C100.672 93.7516 101.458 96.3336 102.928 98.5291L99.8766 100.571Z" fill="#FF83FD"/>
<path d="M88 163V180" stroke="#AE902D"/>
<path d="M130.919 152.763L132.335 150.24L133.751 152.763H130.919Z" stroke="#AE902D" stroke-width="0.5"/>
<path d="M130.919 147.789L132.335 150.313L133.751 147.789H130.919Z" stroke="#AE902D" stroke-width="0.5"/>
<path d="M13.5545 84.2868L11.3423 81.0938H15.7667L13.5545 84.2868Z" fill="#FF83FD"/>
<path d="M97.9385 136.227L115.731 154.02" stroke="black" stroke-width="0.6"/>
<path d="M94.0186 140.059L110.257 157.63" stroke="black" stroke-width="0.6"/>
<path d="M94.9067 133.712L99.634 134.493L96.2902 138.299L94.9067 133.712Z" fill="#0EA30E"/>
<path d="M91.2664 137.854L95.9938 138.636L92.6499 142.442L91.2664 137.854Z" fill="#0EA30E"/>
<path d="M100.706 131.118L119.563 149.975" stroke="black" stroke-width="0.6"/>
<path d="M98.547 129.567L103.274 130.349L99.9305 134.155L98.547 129.567Z" fill="#0EA30E"/>
<path d="M104.75 127.712L123.395 146.356" stroke="black" stroke-width="0.6"/>
<path d="M102.187 125.425L106.915 126.206L103.571 130.012L102.187 125.425Z" fill="#0EA30E"/>
<path d="M108.156 123.455L126.375 141.673" stroke="black" stroke-width="0.6"/>
<path d="M105.828 121.281L110.555 122.062L107.211 125.868L105.828 121.281Z" fill="#0EA30E"/>
<path d="M112.325 119.322L129.355 136.351" stroke="black" stroke-width="0.6"/>
<path d="M109.468 117.138L114.196 117.919L110.852 121.725L109.468 117.138Z" fill="#0EA30E"/>
<path d="M55 63.5001L60 66.3869V60.6133L55 63.5001ZM110 63.0001H59.5V64.0001H110V63.0001Z" fill="#FF83FD"/>
<path d="M63 142H25" stroke="#FF83FD"/>
<path d="M25 152V1" stroke="#FF83FD"/>
<path d="M25 154L27.8868 149H22.1132L25 154ZM25.5 149.5V142H24.5V149.5H25.5Z" fill="#FF83FD"/>
<path d="M81.0308 126L62.0001 142.212" stroke="#FF83FD"/>
<path d="M46.5004 63.4258H13.5544" stroke="#FF83FD"/>
<path d="M13.5544 63V81.7324" stroke="#FF83FD"/>
<path d="M13.5544 1V63" stroke="#FF83FD"/>
<path d="M110.197 65.8039V63" stroke="#FF83FD"/>
<path d="M110.197 74.9208V71.0891" stroke="#FF83FD"/>
<path d="M132.463 127.331C130.146 137.546 124.443 146.676 116.279 153.238C108.116 159.799 98.106 163.407 87.6326 163.473" stroke="#AE902D" stroke-width="0.8"/>
<path d="M132.335 126.861V147.722" stroke="#AE902D"/>
<path d="M132.335 165.603L135.222 160.603H129.448L132.335 165.603ZM131.835 152.831V161.103H132.835V152.831H131.835Z" fill="#AE902D"/>
<path d="M48.1928 59.1963L51 62.0034L53.7926 59.2109C53.8543 59.1452 53.9286 59.0927 54.0111 59.0565C54.0936 59.0202 54.1825 59.001 54.2726 59C54.4655 59 54.6505 59.0766 54.7869 59.213C54.9233 59.3494 54.9999 59.5343 54.9999 59.7272C55.0016 59.8164 54.985 59.9049 54.9513 59.9875C54.9175 60.07 54.8672 60.1448 54.8035 60.2072L51.9745 62.9997L54.8035 65.8286C54.9234 65.9459 54.9937 66.1046 54.9999 66.2722C54.9999 66.4651 54.9233 66.65 54.7869 66.7864C54.6505 66.9228 54.4655 66.9994 54.2726 66.9994C54.1799 67.0033 54.0875 66.9878 54.0011 66.954C53.9147 66.9202 53.8363 66.8688 53.7708 66.8031L51 63.996L48.2001 66.7958C48.1386 66.8593 48.0652 66.9099 47.9841 66.9449C47.903 66.9798 47.8157 66.9984 47.7274 66.9994C47.5345 66.9994 47.3495 66.9228 47.2131 66.7864C47.0767 66.65 47.0001 66.4651 47.0001 66.2722C46.9984 66.183 47.015 66.0945 47.0487 66.0119C47.0825 65.9294 47.1328 65.8546 47.1965 65.7922L50.0255 62.9997L47.1965 60.1708C47.0766 60.0536 47.0063 59.8948 47.0001 59.7272C47.0001 59.5343 47.0767 59.3494 47.2131 59.213C47.3495 59.0766 47.5345 59 47.7274 59C47.9019 59.0022 48.0692 59.0727 48.1928 59.1963Z" fill="#FF83FD"/>
<path d="M108.762 71.4643L110.5 68.3679L112.238 71.4643H108.762Z" stroke="#FF83FD" stroke-width="0.5"/>
<path d="M108.762 65.5356L110.5 68.632L112.238 65.5356H108.762Z" stroke="#FF83FD" stroke-width="0.5"/>
<path d="M58.4426 106.346L61.75 103.551L62.5167 107.813L58.4426 106.346Z" fill="#002F7E"/>
<path d="M119 114.5H150" stroke="#5298FA"/>
<path d="M149.5 114V1" stroke="#5298FA"/>
<path d="M0 180H180" stroke="black"/>
<path d="M65.2642 185.203V184.636H68.6413V185.203H67.2798V189H66.6236V185.203H65.2642ZM69.671 189L68.7079 185.727H69.3663L70.0076 188.131H70.0396L70.6831 185.727H71.3414L71.9806 188.12H72.0126L72.6497 185.727H73.3081L72.3471 189H71.6973L71.0325 186.637H70.9835L70.3187 189H69.671ZM75.1916 189.066C74.8848 189.066 74.617 188.996 74.3883 188.855C74.1596 188.714 73.9821 188.518 73.8556 188.265C73.7292 188.012 73.666 187.717 73.666 187.379C73.666 187.039 73.7292 186.742 73.8556 186.488C73.9821 186.234 74.1596 186.036 74.3883 185.896C74.617 185.755 74.8848 185.685 75.1916 185.685C75.4984 185.685 75.7662 185.755 75.9949 185.896C76.2235 186.036 76.4011 186.234 76.5275 186.488C76.6539 186.742 76.7172 187.039 76.7172 187.379C76.7172 187.717 76.6539 188.012 76.5275 188.265C76.4011 188.518 76.2235 188.714 75.9949 188.855C75.7662 188.996 75.4984 189.066 75.1916 189.066ZM75.1937 188.531C75.3926 188.531 75.5574 188.479 75.688 188.374C75.8187 188.268 75.9153 188.129 75.9778 187.954C76.0417 187.779 76.0737 187.587 76.0737 187.376C76.0737 187.168 76.0417 186.976 75.9778 186.801C75.9153 186.625 75.8187 186.484 75.688 186.377C75.5574 186.271 75.3926 186.217 75.1937 186.217C74.9934 186.217 74.8272 186.271 74.6951 186.377C74.5645 186.484 74.4672 186.625 74.4032 186.801C74.3407 186.976 74.3095 187.168 74.3095 187.376C74.3095 187.587 74.3407 187.779 74.4032 187.954C74.4672 188.129 74.5645 188.268 74.6951 188.374C74.8272 188.479 74.9934 188.531 75.1937 188.531ZM79.3565 186.88V187.432H77.4219V186.88H79.3565ZM80.2567 189V184.636H80.8938V186.258H80.9322C80.9691 186.19 81.0224 186.111 81.092 186.021C81.1616 185.932 81.2582 185.854 81.3817 185.787C81.5053 185.719 81.6687 185.685 81.8718 185.685C82.136 185.685 82.3718 185.751 82.5792 185.885C82.7866 186.018 82.9492 186.211 83.0671 186.462C83.1864 186.714 83.2461 187.016 83.2461 187.37C83.2461 187.724 83.1871 188.027 83.0692 188.28C82.9513 188.531 82.7894 188.725 82.5835 188.862C82.3775 188.996 82.1424 189.064 81.8782 189.064C81.6793 189.064 81.5167 189.031 81.3903 188.964C81.2653 188.897 81.1673 188.819 81.0962 188.729C81.0252 188.64 80.9705 188.56 80.9322 188.491H80.8789V189H80.2567ZM80.881 187.364C80.881 187.594 80.9144 187.795 80.9812 187.969C81.0479 188.142 81.1445 188.278 81.271 188.376C81.3974 188.472 81.5522 188.521 81.7354 188.521C81.9258 188.521 82.0849 188.47 82.2127 188.369C82.3406 188.267 82.4371 188.129 82.5025 187.954C82.5692 187.779 82.6026 187.582 82.6026 187.364C82.6026 187.148 82.57 186.954 82.5046 186.782C82.4407 186.61 82.3441 186.474 82.2148 186.375C82.087 186.276 81.9272 186.226 81.7354 186.226C81.5508 186.226 81.3945 186.273 81.2667 186.369C81.1403 186.464 81.0444 186.597 80.979 186.767C80.9137 186.937 80.881 187.136 80.881 187.364ZM85.34 189.066C85.0332 189.066 84.7654 188.996 84.5368 188.855C84.3081 188.714 84.1305 188.518 84.0041 188.265C83.8777 188.012 83.8145 187.717 83.8145 187.379C83.8145 187.039 83.8777 186.742 84.0041 186.488C84.1305 186.234 84.3081 186.036 84.5368 185.896C84.7654 185.755 85.0332 185.685 85.34 185.685C85.6468 185.685 85.9146 185.755 86.1433 185.896C86.372 186.036 86.5495 186.234 86.676 186.488C86.8024 186.742 86.8656 187.039 86.8656 187.379C86.8656 187.717 86.8024 188.012 86.676 188.265C86.5495 188.518 86.372 188.714 86.1433 188.855C85.9146 188.996 85.6468 189.066 85.34 189.066ZM85.3422 188.531C85.541 188.531 85.7058 188.479 85.8365 188.374C85.9672 188.268 86.0637 188.129 86.1262 187.954C86.1902 187.779 86.2221 187.587 86.2221 187.376C86.2221 187.168 86.1902 186.976 86.1262 186.801C86.0637 186.625 85.9672 186.484 85.8365 186.377C85.7058 186.271 85.541 186.217 85.3422 186.217C85.1419 186.217 84.9757 186.271 84.8436 186.377C84.7129 186.484 84.6156 186.625 84.5517 186.801C84.4892 186.976 84.4579 187.168 84.4579 187.376C84.4579 187.587 84.4892 187.779 84.5517 187.954C84.6156 188.129 84.7129 188.268 84.8436 188.374C84.9757 188.479 85.1419 188.531 85.3422 188.531ZM87.5767 189V185.727H88.2138V189H87.5767ZM87.8984 185.222C87.7876 185.222 87.6925 185.185 87.6129 185.112C87.5348 185.036 87.4957 184.947 87.4957 184.843C87.4957 184.738 87.5348 184.648 87.6129 184.575C87.6925 184.499 87.7876 184.462 87.8984 184.462C88.0092 184.462 88.1037 184.499 88.1818 184.575C88.2614 184.648 88.3011 184.738 88.3011 184.843C88.3011 184.947 88.2614 185.036 88.1818 185.112C88.1037 185.185 88.0092 185.222 87.8984 185.222ZM89.7079 184.636V189H89.0708V184.636H89.7079ZM91.9755 189.066C91.6531 189.066 91.3754 188.997 91.1424 188.859C90.9109 188.72 90.7319 188.525 90.6055 188.273C90.4805 188.021 90.418 187.724 90.418 187.385C90.418 187.05 90.4805 186.754 90.6055 186.499C90.7319 186.243 90.908 186.043 91.1339 185.9C91.3612 185.756 91.6268 185.685 91.9308 185.685C92.1154 185.685 92.2944 185.715 92.4677 185.776C92.641 185.837 92.7965 185.933 92.9343 186.064C93.0721 186.195 93.1808 186.364 93.2603 186.573C93.3398 186.781 93.3796 187.033 93.3796 187.33V187.555H90.7781V187.078H92.7553C92.7553 186.911 92.7212 186.762 92.6531 186.633C92.5849 186.502 92.489 186.399 92.3654 186.324C92.2433 186.249 92.0998 186.211 91.935 186.211C91.756 186.211 91.5998 186.255 91.4663 186.343C91.3342 186.43 91.2319 186.543 91.1594 186.684C91.0884 186.823 91.0529 186.974 91.0529 187.138V187.511C91.0529 187.729 91.0913 187.915 91.168 188.069C91.2461 188.222 91.3548 188.339 91.494 188.42C91.6332 188.5 91.7958 188.54 91.9819 188.54C92.1026 188.54 92.2127 188.523 92.3121 188.489C92.4116 188.453 92.4975 188.401 92.57 188.331C92.6424 188.261 92.6978 188.175 92.7362 188.073L93.3391 188.182C93.2908 188.359 93.2042 188.515 93.0792 188.648C92.9556 188.781 92.8001 188.884 92.6126 188.957C92.4265 189.03 92.2141 189.066 91.9755 189.066ZM94.0865 189V185.727H94.7022V186.247H94.7363C94.796 186.071 94.9011 185.933 95.0517 185.832C95.2037 185.729 95.3755 185.678 95.5673 185.678C95.6071 185.678 95.6539 185.68 95.7079 185.683C95.7633 185.685 95.8066 185.689 95.8379 185.693V186.303C95.8123 186.295 95.7669 186.288 95.7015 186.279C95.6362 186.269 95.5708 186.264 95.5055 186.264C95.3549 186.264 95.2207 186.296 95.1028 186.36C94.9863 186.423 94.894 186.51 94.8258 186.622C94.7576 186.733 94.7235 186.859 94.7235 187.001V189H94.0865ZM97.9771 190.227V185.727H98.5993V186.258H98.6525C98.6895 186.19 98.7427 186.111 98.8123 186.021C98.8819 185.932 98.9785 185.854 99.1021 185.787C99.2257 185.719 99.389 185.685 99.5922 185.685C99.8564 185.685 100.092 185.751 100.3 185.885C100.507 186.018 100.67 186.211 100.787 186.462C100.907 186.714 100.966 187.016 100.966 187.37C100.966 187.724 100.907 188.027 100.79 188.28C100.672 188.531 100.51 188.725 100.304 188.862C100.098 188.996 99.8627 189.064 99.5985 189.064C99.3997 189.064 99.237 189.031 99.1106 188.964C98.9856 188.897 98.8876 188.819 98.8166 188.729C98.7456 188.64 98.6909 188.56 98.6525 188.491H98.6142V190.227H97.9771ZM98.6014 187.364C98.6014 187.594 98.6348 187.795 98.7015 187.969C98.7683 188.142 98.8649 188.278 98.9913 188.376C99.1177 188.472 99.2725 188.521 99.4558 188.521C99.6461 188.521 99.8052 188.47 99.9331 188.369C100.061 188.267 100.157 188.129 100.223 187.954C100.29 187.779 100.323 187.582 100.323 187.364C100.323 187.148 100.29 186.954 100.225 186.782C100.161 186.61 100.064 186.474 99.9352 186.375C99.8074 186.276 99.6475 186.226 99.4558 186.226C99.2711 186.226 99.1149 186.273 98.987 186.369C98.8606 186.464 98.7647 186.597 98.6994 186.767C98.6341 186.937 98.6014 187.136 98.6014 187.364ZM102.317 184.636V189H101.68V184.636H102.317ZM104.127 189.072C103.919 189.072 103.732 189.034 103.564 188.957C103.397 188.879 103.264 188.766 103.166 188.619C103.069 188.471 103.021 188.29 103.021 188.075C103.021 187.891 103.056 187.739 103.127 187.619C103.199 187.5 103.294 187.406 103.415 187.336C103.536 187.266 103.671 187.214 103.82 187.178C103.969 187.143 104.121 187.116 104.276 187.097C104.472 187.075 104.631 187.056 104.753 187.042C104.875 187.026 104.964 187.001 105.02 186.967C105.075 186.933 105.103 186.878 105.103 186.801V186.786C105.103 186.6 105.05 186.456 104.945 186.354C104.841 186.251 104.686 186.2 104.48 186.2C104.266 186.2 104.097 186.248 103.973 186.343C103.851 186.437 103.767 186.541 103.72 186.656L103.121 186.52C103.192 186.321 103.296 186.161 103.432 186.038C103.57 185.915 103.728 185.825 103.907 185.77C104.086 185.713 104.275 185.685 104.472 185.685C104.603 185.685 104.741 185.7 104.887 185.732C105.035 185.761 105.173 185.817 105.301 185.898C105.43 185.979 105.536 186.094 105.618 186.245C105.701 186.394 105.742 186.588 105.742 186.827V189H105.12V188.553H105.094C105.053 188.635 104.991 188.716 104.909 188.795C104.826 188.875 104.721 188.941 104.591 188.994C104.462 189.046 104.307 189.072 104.127 189.072ZM104.265 188.561C104.441 188.561 104.592 188.526 104.717 188.457C104.843 188.387 104.939 188.296 105.005 188.184C105.071 188.07 105.105 187.949 105.105 187.82V187.398C105.082 187.42 105.038 187.442 104.973 187.462C104.909 187.48 104.836 187.496 104.753 187.511C104.671 187.523 104.591 187.536 104.512 187.547C104.434 187.557 104.369 187.565 104.316 187.572C104.193 187.588 104.08 187.614 103.978 187.651C103.877 187.688 103.796 187.741 103.735 187.811C103.675 187.879 103.645 187.97 103.645 188.084C103.645 188.241 103.703 188.361 103.82 188.442C103.936 188.521 104.085 188.561 104.265 188.561ZM107.227 187.057V189H106.59V185.727H107.202V186.26H107.242C107.318 186.087 107.436 185.947 107.596 185.842C107.758 185.737 107.962 185.685 108.208 185.685C108.431 185.685 108.626 185.732 108.794 185.825C108.961 185.918 109.091 186.055 109.183 186.239C109.276 186.422 109.322 186.648 109.322 186.918V189H108.685V186.995C108.685 186.758 108.623 186.572 108.499 186.439C108.376 186.304 108.206 186.237 107.99 186.237C107.843 186.237 107.711 186.268 107.596 186.332C107.482 186.396 107.392 186.49 107.325 186.614C107.26 186.736 107.227 186.884 107.227 187.057ZM111.704 185.727V186.239H109.916V185.727H111.704ZM110.396 184.943H111.033V188.039C111.033 188.163 111.051 188.256 111.088 188.318C111.125 188.379 111.173 188.421 111.231 188.444C111.291 188.465 111.355 188.476 111.425 188.476C111.476 188.476 111.521 188.472 111.559 188.465C111.597 188.458 111.627 188.452 111.649 188.448L111.764 188.974C111.727 188.989 111.674 189.003 111.606 189.017C111.538 189.033 111.453 189.041 111.35 189.043C111.183 189.045 111.026 189.016 110.882 188.953C110.737 188.891 110.619 188.794 110.53 188.663C110.441 188.533 110.396 188.369 110.396 188.171V184.943Z" fill="black"/>
<path d="M65.8608 191.636L67.0753 195.19H67.1243L68.3388 191.636H69.0504L67.4801 196H66.7195L65.1491 191.636H65.8608ZM69.6294 196V192.727H70.2665V196H69.6294ZM69.9512 192.222C69.8404 192.222 69.7452 192.185 69.6657 192.112C69.5875 192.036 69.5485 191.947 69.5485 191.843C69.5485 191.738 69.5875 191.648 69.6657 191.575C69.7452 191.499 69.8404 191.462 69.9512 191.462C70.062 191.462 70.1564 191.499 70.2346 191.575C70.3141 191.648 70.3539 191.738 70.3539 191.843C70.3539 191.947 70.3141 192.036 70.2346 192.112C70.1564 192.185 70.062 192.222 69.9512 192.222ZM72.3487 196.064C72.0845 196.064 71.8487 195.996 71.6413 195.862C71.4354 195.725 71.2734 195.531 71.1555 195.28C71.0391 195.027 70.9808 194.724 70.9808 194.37C70.9808 194.016 71.0398 193.714 71.1577 193.462C71.277 193.211 71.4403 193.018 71.6477 192.885C71.8551 192.751 72.0902 192.685 72.353 192.685C72.5561 192.685 72.7195 192.719 72.843 192.787C72.968 192.854 73.0646 192.932 73.1328 193.021C73.2024 193.111 73.2564 193.19 73.2947 193.258H73.3331V191.636H73.9702V196H73.348V195.491H73.2947C73.2564 195.56 73.201 195.64 73.1286 195.729C73.0575 195.819 72.9595 195.897 72.8345 195.964C72.7095 196.031 72.5476 196.064 72.3487 196.064ZM72.4893 195.521C72.6726 195.521 72.8274 195.472 72.9538 195.376C73.0817 195.278 73.1783 195.142 73.2436 194.969C73.3104 194.795 73.3438 194.594 73.3438 194.364C73.3438 194.136 73.3111 193.937 73.2457 193.767C73.1804 193.597 73.0845 193.464 72.9581 193.369C72.8317 193.273 72.6754 193.226 72.4893 193.226C72.2976 193.226 72.1378 193.276 72.0099 193.375C71.8821 193.474 71.7855 193.61 71.7202 193.782C71.6563 193.954 71.6243 194.148 71.6243 194.364C71.6243 194.582 71.657 194.779 71.7223 194.954C71.7876 195.129 71.8842 195.267 72.0121 195.369C72.1413 195.47 72.3004 195.521 72.4893 195.521ZM76.29 196.066C75.9675 196.066 75.6898 195.997 75.4569 195.859C75.2253 195.72 75.0463 195.525 74.9199 195.273C74.7949 195.021 74.7324 194.724 74.7324 194.385C74.7324 194.05 74.7949 193.754 74.9199 193.499C75.0463 193.243 75.2225 193.043 75.4483 192.9C75.6756 192.756 75.9412 192.685 76.2452 192.685C76.4299 192.685 76.6088 192.715 76.7821 192.776C76.9554 192.837 77.111 192.933 77.2488 193.064C77.3865 193.195 77.4952 193.364 77.5748 193.573C77.6543 193.781 77.6941 194.033 77.6941 194.33V194.555H75.0925V194.078H77.0698C77.0698 193.911 77.0357 193.762 76.9675 193.633C76.8993 193.502 76.8034 193.399 76.6799 193.324C76.5577 193.249 76.4142 193.211 76.2495 193.211C76.0705 193.211 75.9142 193.255 75.7807 193.343C75.6486 193.43 75.5463 193.543 75.4739 193.684C75.4029 193.823 75.3674 193.974 75.3674 194.138V194.511C75.3674 194.729 75.4057 194.915 75.4824 195.069C75.5605 195.222 75.6692 195.339 75.8084 195.42C75.9476 195.5 76.1103 195.54 76.2963 195.54C76.4171 195.54 76.5272 195.523 76.6266 195.489C76.726 195.453 76.812 195.401 76.8844 195.331C76.9569 195.261 77.0123 195.175 77.0506 195.073L77.6536 195.182C77.6053 195.359 77.5186 195.515 77.3936 195.648C77.2701 195.781 77.1145 195.884 76.927 195.957C76.7409 196.03 76.5286 196.066 76.29 196.066ZM79.7795 196.066C79.4727 196.066 79.2049 195.996 78.9762 195.855C78.7475 195.714 78.57 195.518 78.4435 195.265C78.3171 195.012 78.2539 194.717 78.2539 194.379C78.2539 194.039 78.3171 193.742 78.4435 193.488C78.57 193.234 78.7475 193.036 78.9762 192.896C79.2049 192.755 79.4727 192.685 79.7795 192.685C80.0863 192.685 80.354 192.755 80.5827 192.896C80.8114 193.036 80.989 193.234 81.1154 193.488C81.2418 193.742 81.305 194.039 81.305 194.379C81.305 194.717 81.2418 195.012 81.1154 195.265C80.989 195.518 80.8114 195.714 80.5827 195.855C80.354 195.996 80.0863 196.066 79.7795 196.066ZM79.7816 195.531C79.9805 195.531 80.1452 195.479 80.2759 195.374C80.4066 195.268 80.5032 195.129 80.5657 194.954C80.6296 194.779 80.6616 194.587 80.6616 194.376C80.6616 194.168 80.6296 193.976 80.5657 193.801C80.5032 193.625 80.4066 193.484 80.2759 193.377C80.1452 193.271 79.9805 193.217 79.7816 193.217C79.5813 193.217 79.4151 193.271 79.283 193.377C79.1523 193.484 79.055 193.625 78.9911 193.801C78.9286 193.976 78.8974 194.168 78.8974 194.376C78.8974 194.587 78.9286 194.779 78.9911 194.954C79.055 195.129 79.1523 195.268 79.283 195.374C79.4151 195.479 79.5813 195.531 79.7816 195.531ZM85.1616 192.727V193.239H83.3121V192.727H85.1616ZM83.8192 196V192.348C83.8192 192.143 83.864 191.974 83.9535 191.839C84.043 191.702 84.1616 191.601 84.3093 191.534C84.457 191.466 84.6175 191.432 84.7908 191.432C84.9187 191.432 85.0281 191.442 85.119 191.464C85.2099 191.484 85.2773 191.502 85.3214 191.519L85.1722 192.035C85.1424 192.026 85.104 192.016 85.0572 192.005C85.0103 191.992 84.9535 191.986 84.8867 191.986C84.7319 191.986 84.6211 192.024 84.5543 192.101C84.489 192.178 84.4563 192.288 84.4563 192.433V196H83.8192ZM85.8189 196V192.727H86.4347V193.247H86.4688C86.5284 193.071 86.6335 192.933 86.7841 192.832C86.9361 192.729 87.108 192.678 87.2997 192.678C87.3395 192.678 87.3864 192.68 87.4403 192.683C87.4957 192.685 87.5391 192.689 87.5703 192.693V193.303C87.5447 193.295 87.4993 193.288 87.4339 193.279C87.3686 193.269 87.3033 193.264 87.2379 193.264C87.0874 193.264 86.9531 193.296 86.8352 193.36C86.7188 193.423 86.6264 193.51 86.5582 193.622C86.4901 193.733 86.456 193.859 86.456 194.001V196H85.8189ZM89.0447 196.072C88.8374 196.072 88.6499 196.034 88.4822 195.957C88.3146 195.879 88.1818 195.766 88.0838 195.619C87.9872 195.471 87.9389 195.29 87.9389 195.075C87.9389 194.891 87.9744 194.739 88.0455 194.619C88.1165 194.5 88.2124 194.406 88.3331 194.336C88.4538 194.266 88.5888 194.214 88.7379 194.178C88.8871 194.143 89.0391 194.116 89.1939 194.097C89.3899 194.075 89.549 194.056 89.6712 194.042C89.7933 194.026 89.8821 194.001 89.9375 193.967C89.9929 193.933 90.0206 193.878 90.0206 193.801V193.786C90.0206 193.6 89.968 193.456 89.8629 193.354C89.7592 193.251 89.6044 193.2 89.3984 193.2C89.1839 193.2 89.0149 193.248 88.8913 193.343C88.7692 193.437 88.6847 193.541 88.6378 193.656L88.0391 193.52C88.1101 193.321 88.2138 193.161 88.3501 193.038C88.4879 192.915 88.6463 192.825 88.8253 192.77C89.0043 192.713 89.1925 192.685 89.3899 192.685C89.5206 192.685 89.6591 192.7 89.8054 192.732C89.9531 192.761 90.0909 192.817 90.2188 192.898C90.348 192.979 90.4538 193.094 90.5362 193.245C90.6186 193.394 90.6598 193.588 90.6598 193.827V196H90.0376V195.553H90.0121C89.9709 195.635 89.9091 195.716 89.8267 195.795C89.7443 195.875 89.6385 195.941 89.5092 195.994C89.38 196.046 89.2251 196.072 89.0447 196.072ZM89.1832 195.561C89.3594 195.561 89.5099 195.526 89.6349 195.457C89.7614 195.387 89.8572 195.296 89.9226 195.184C89.9893 195.07 90.0227 194.949 90.0227 194.82V194.398C90 194.42 89.956 194.442 89.8906 194.462C89.8267 194.48 89.7536 194.496 89.6712 194.511C89.5888 194.523 89.5085 194.536 89.4304 194.547C89.3523 194.557 89.2869 194.565 89.2344 194.572C89.1108 194.588 88.9979 194.614 88.8956 194.651C88.7947 194.688 88.7138 194.741 88.6527 194.811C88.593 194.879 88.5632 194.97 88.5632 195.084C88.5632 195.241 88.6214 195.361 88.7379 195.442C88.8544 195.521 89.0028 195.561 89.1832 195.561ZM91.5083 196V192.727H92.1199V193.26H92.1603C92.2285 193.08 92.34 192.939 92.4949 192.838C92.6497 192.736 92.835 192.685 93.051 192.685C93.2697 192.685 93.4529 192.736 93.6007 192.838C93.7498 192.94 93.8599 193.081 93.9309 193.26H93.965C94.0431 193.085 94.1674 192.946 94.3379 192.842C94.5083 192.737 94.7115 192.685 94.9473 192.685C95.2441 192.685 95.4863 192.778 95.6738 192.964C95.8627 193.15 95.9572 193.43 95.9572 193.805V196H95.3201V193.865C95.3201 193.643 95.2598 193.483 95.139 193.384C95.0183 193.284 94.8741 193.234 94.7065 193.234C94.4991 193.234 94.3379 193.298 94.2228 193.426C94.1078 193.553 94.0502 193.715 94.0502 193.914V196H93.4153V193.825C93.4153 193.647 93.3599 193.504 93.2491 193.396C93.1383 193.288 92.9941 193.234 92.8166 193.234C92.6958 193.234 92.5843 193.266 92.4821 193.33C92.3812 193.393 92.2995 193.48 92.237 193.592C92.176 193.705 92.1454 193.835 92.1454 193.982V196H91.5083ZM98.2216 196.066C97.8991 196.066 97.6214 195.997 97.3885 195.859C97.157 195.72 96.978 195.525 96.8516 195.273C96.7266 195.021 96.6641 194.724 96.6641 194.385C96.6641 194.05 96.7266 193.754 96.8516 193.499C96.978 193.243 97.1541 193.043 97.38 192.9C97.6072 192.756 97.8729 192.685 98.1768 192.685C98.3615 192.685 98.5405 192.715 98.7138 192.776C98.8871 192.837 99.0426 192.933 99.1804 193.064C99.3182 193.195 99.4268 193.364 99.5064 193.573C99.5859 193.781 99.6257 194.033 99.6257 194.33V194.555H97.0241V194.078H99.0014C99.0014 193.911 98.9673 193.762 98.8991 193.633C98.831 193.502 98.7351 193.399 98.6115 193.324C98.4893 193.249 98.3459 193.211 98.1811 193.211C98.0021 193.211 97.8459 193.255 97.7124 193.343C97.5803 193.43 97.478 193.543 97.4055 193.684C97.3345 193.823 97.299 193.974 97.299 194.138V194.511C97.299 194.729 97.3374 194.915 97.4141 195.069C97.4922 195.222 97.6009 195.339 97.7401 195.42C97.8793 195.5 98.0419 195.54 98.228 195.54C98.3487 195.54 98.4588 195.523 98.5582 195.489C98.6577 195.453 98.7436 195.401 98.8161 195.331C98.8885 195.261 98.9439 195.175 98.9822 195.073L99.5852 195.182C99.5369 195.359 99.4503 195.515 99.3253 195.648C99.2017 195.781 99.0462 195.884 98.8587 195.957C98.6726 196.03 98.4602 196.066 98.2216 196.066ZM105.494 191.636V196H104.888L102.67 192.8H102.63V196H101.972V191.636H102.581L104.801 194.841H104.842V191.636H105.494ZM107.781 196.066C107.475 196.066 107.207 195.996 106.978 195.855C106.749 195.714 106.572 195.518 106.445 195.265C106.319 195.012 106.256 194.717 106.256 194.379C106.256 194.039 106.319 193.742 106.445 193.488C106.572 193.234 106.749 193.036 106.978 192.896C107.207 192.755 107.475 192.685 107.781 192.685C108.088 192.685 108.356 192.755 108.585 192.896C108.813 193.036 108.991 193.234 109.117 193.488C109.244 193.742 109.307 194.039 109.307 194.379C109.307 194.717 109.244 195.012 109.117 195.265C108.991 195.518 108.813 195.714 108.585 195.855C108.356 195.996 108.088 196.066 107.781 196.066ZM107.784 195.531C107.982 195.531 108.147 195.479 108.278 195.374C108.409 195.268 108.505 195.129 108.568 194.954C108.632 194.779 108.664 194.587 108.664 194.376C108.664 194.168 108.632 193.976 108.568 193.801C108.505 193.625 108.409 193.484 108.278 193.377C108.147 193.271 107.982 193.217 107.784 193.217C107.583 193.217 107.417 193.271 107.285 193.377C107.154 193.484 107.057 193.625 106.993 193.801C106.931 193.976 106.899 194.168 106.899 194.376C106.899 194.587 106.931 194.779 106.993 194.954C107.057 195.129 107.154 195.268 107.285 195.374C107.417 195.479 107.583 195.531 107.784 195.531ZM111.597 196V195.523L113.074 193.993C113.232 193.827 113.362 193.681 113.464 193.556C113.568 193.43 113.645 193.31 113.696 193.196C113.747 193.082 113.773 192.962 113.773 192.834C113.773 192.689 113.739 192.564 113.671 192.459C113.602 192.352 113.509 192.271 113.392 192.214C113.274 192.156 113.141 192.126 112.993 192.126C112.837 192.126 112.7 192.158 112.584 192.222C112.468 192.286 112.378 192.376 112.316 192.493C112.253 192.609 112.222 192.746 112.222 192.902H111.593C111.593 192.636 111.654 192.404 111.776 192.205C111.899 192.006 112.066 191.852 112.279 191.743C112.492 191.632 112.735 191.577 113.006 191.577C113.28 191.577 113.521 191.631 113.73 191.741C113.941 191.849 114.105 191.996 114.222 192.184C114.34 192.37 114.399 192.58 114.399 192.815C114.399 192.977 114.369 193.135 114.308 193.29C114.248 193.445 114.144 193.617 113.994 193.808C113.845 193.996 113.638 194.226 113.372 194.496L112.505 195.403V195.435H114.47V196H111.597Z" fill="black"/>
</g>
<defs>
<clipPath id="clip0_3786_356">
<rect width="180" height="200" fill="white"/>
</clipPath>
</defs>
</svg>
