<svg width="180" height="200" viewBox="0 0 180 200" fill="none" xmlns="http://www.w3.org/2000/svg">
<g clip-path="url(#clip0_3786_308)">
<path d="M179.5 0.5H0.5V199.5H179.5V0.5Z" fill="#D9D9D9" stroke="black"/>
<path d="M82.5 26C77.5 49.5 60 61.5 30 66.5V163H116.5" stroke="#A3800F"/>
<path d="M0 180H180" stroke="black"/>
<path d="M77.8945 40.6052L55.1348 15.1567" stroke="#8F7E70"/>
<path d="M55.0398 16.3383L54.6793 14.2583L56.7063 14.8479L55.0398 16.3383Z" fill="white" stroke="#8F7E70"/>
<path d="M58.583 57.8766L35.8233 32.428" stroke="#8F7E70"/>
<path d="M35.7283 33.6098L35.3678 31.5298L37.3947 32.1194L35.7283 33.6098Z" fill="white" stroke="#8F7E70"/>
<path d="M63 55L39.6857 28.9736" stroke="#8F7E70"/>
<path d="M39.5904 30.1556L39.2298 28.0757L41.2568 28.6653L39.5904 30.1556Z" fill="white" stroke="#8F7E70"/>
<path d="M67 52L43.5479 25.519" stroke="#8F7E70"/>
<path d="M43.4527 26.7011L43.0921 24.6211L45.1191 25.2107L43.4527 26.7011Z" fill="white" stroke="#8F7E70"/>
<path d="M70.5 48.5L47.4102 22.0649" stroke="#8F7E70"/>
<path d="M47.315 23.247L46.9544 21.167L48.9814 21.7566L47.315 23.247Z" fill="white" stroke="#8F7E70"/>
<path d="M74 44.4999L51.2726 18.6108" stroke="#8F7E70"/>
<path d="M51.1775 19.7926L50.817 17.7126L52.844 18.3023L51.1775 19.7926Z" fill="white" stroke="#8F7E70"/>
<path d="M9 45.9942V5H71C62.047 32.1294 55.6412 46.3301 9 45.9942Z" stroke="#A3800F"/>
<path d="M80.5 5C74.5 51 43.5 60.5 9 56.5V169H179" stroke="#A3800F"/>
<path d="M83 74L85.8867 69H80.1132L83 74ZM82.5 26V69.5H83.5V26H82.5Z" fill="#A3800F"/>
<path d="M85.6312 42.2498L82.7797 47.4773L79.9282 42.2498H85.6312Z" stroke="#A3800F" stroke-width="0.5"/>
<path d="M79.9274 52.7487L82.7789 47.5212L85.6304 52.7487H79.9274Z" stroke="#A3800F" stroke-width="0.5"/>
<path d="M95 45.9942V5H157C148.047 32.1294 141.641 46.3301 95 45.9942Z" stroke="#A3800F"/>
<path d="M166.5 5C160.5 47.9146 129.5 59.7774 95 56.0457V158H179" stroke="#A3800F"/>
<path d="M168.5 26C163.5 49.5 146 61.5 116 66.5V175" stroke="#A3800F"/>
<path d="M169 74L171.887 69H166.113L169 74ZM168.5 26V69.5H169.5V26H168.5Z" fill="#A3800F"/>
<path d="M171.631 42.2498L168.78 47.4773L165.928 42.2498H171.631Z" stroke="#A3800F" stroke-width="0.5"/>
<path d="M165.927 52.7487L168.779 47.5212L171.63 52.7487H165.927Z" stroke="#A3800F" stroke-width="0.5"/>
<path d="M163.5 40L141 15" stroke="#8F7E70"/>
<path d="M141.04 16.3383L140.679 14.2583L142.706 14.8479L141.04 16.3383Z" fill="white" stroke="#8F7E70"/>
<path d="M144.583 57.8766L121.823 32.428" stroke="#8F7E70"/>
<path d="M121.728 33.6098L121.368 31.5298L123.395 32.1194L121.728 33.6098Z" fill="white" stroke="#8F7E70"/>
<path d="M149 55L125.686 28.9736" stroke="#8F7E70"/>
<path d="M125.59 30.1556L125.23 28.0757L127.257 28.6653L125.59 30.1556Z" fill="white" stroke="#8F7E70"/>
<path d="M153 52L129.548 25.519" stroke="#8F7E70"/>
<path d="M129.453 26.7011L129.092 24.6211L131.119 25.2107L129.453 26.7011Z" fill="white" stroke="#8F7E70"/>
<path d="M157 48L133.41 22.0649" stroke="#8F7E70"/>
<path d="M133.315 23.247L132.954 21.167L134.981 21.7566L133.315 23.247Z" fill="white" stroke="#8F7E70"/>
<path d="M161 44L137.273 18.6108" stroke="#8F7E70"/>
<path d="M137.178 19.7926L136.817 17.7126L138.844 18.3023L137.178 19.7926Z" fill="white" stroke="#8F7E70"/>
<path d="M113.402 179.5L116 175L118.598 179.5H113.402Z" stroke="#A3800F"/>
<path d="M9 45.9942V5H71C62.047 32.1294 55.6412 46.3301 9 45.9942Z" stroke="#A3800F"/>
<path d="M80.5 5C74.5 51 43.5 60.5 9 56.5V169H169" stroke="#A3800F"/>
<path d="M83 74L85.8867 69H80.1132L83 74ZM82.5 26V69.5H83.5V26H82.5Z" fill="#A3800F"/>
<path d="M85.6312 42.2498L82.7797 47.4773L79.9282 42.2498H85.6312Z" stroke="#A3800F" stroke-width="0.5"/>
<path d="M79.9274 52.7487L82.7789 47.5212L85.6304 52.7487H79.9274Z" stroke="#A3800F" stroke-width="0.5"/>
<path d="M82.5 26C77.5 49.5 60 61.5 30 66.5" stroke="#A3800F"/>
<path d="M76.4794 189V184.636H79.1854V185.203H77.1378V186.533H78.9915V187.097H77.1378V189H76.4794ZM81.812 187.643V185.727H82.4512V189H81.8248V188.433H81.7907C81.7154 188.608 81.5946 188.754 81.4284 188.87C81.2637 188.985 81.0584 189.043 80.8127 189.043C80.6025 189.043 80.4164 188.996 80.2544 188.904C80.0939 188.81 79.9675 188.672 79.8752 188.489C79.7843 188.305 79.7388 188.079 79.7388 187.809V185.727H80.3759V187.732C80.3759 187.955 80.4377 188.133 80.5613 188.265C80.6848 188.397 80.8453 188.463 81.0428 188.463C81.1621 188.463 81.2807 188.433 81.3986 188.374C81.5179 188.314 81.6167 188.224 81.6948 188.103C81.7743 187.982 81.8134 187.829 81.812 187.643ZM84.7177 189.066C84.3952 189.066 84.1175 188.997 83.8846 188.859C83.6531 188.72 83.4741 188.525 83.3477 188.273C83.2227 188.021 83.1602 187.724 83.1602 187.385C83.1602 187.05 83.2227 186.754 83.3477 186.499C83.4741 186.243 83.6502 186.043 83.8761 185.9C84.1033 185.756 84.369 185.685 84.6729 185.685C84.8576 185.685 85.0366 185.715 85.2099 185.776C85.3832 185.837 85.5387 185.933 85.6765 186.064C85.8143 186.195 85.9229 186.364 86.0025 186.573C86.082 186.781 86.1218 187.033 86.1218 187.33V187.555H83.5202V187.078H85.4975C85.4975 186.911 85.4634 186.762 85.3952 186.633C85.3271 186.502 85.2312 186.399 85.1076 186.324C84.9854 186.249 84.842 186.211 84.6772 186.211C84.4982 186.211 84.342 186.255 84.2085 186.343C84.0763 186.43 83.9741 186.543 83.9016 186.684C83.8306 186.823 83.7951 186.974 83.7951 187.138V187.511C83.7951 187.729 83.8335 187.915 83.9102 188.069C83.9883 188.222 84.0969 188.339 84.2362 188.42C84.3754 188.5 84.538 188.54 84.7241 188.54C84.8448 188.54 84.9549 188.523 85.0543 188.489C85.1538 188.453 85.2397 188.401 85.3121 188.331C85.3846 188.261 85.44 188.175 85.4783 188.073L86.0813 188.182C86.033 188.359 85.9464 188.515 85.8214 188.648C85.6978 188.781 85.5423 188.884 85.3548 188.957C85.1687 189.03 84.9563 189.066 84.7177 189.066ZM87.4657 184.636V189H86.8287V184.636H87.4657ZM92.3418 185.783C92.3191 185.581 92.2253 185.425 92.0605 185.314C91.8958 185.202 91.6884 185.146 91.4384 185.146C91.2594 185.146 91.1046 185.174 90.9739 185.231C90.8432 185.286 90.7417 185.363 90.6692 185.461C90.5982 185.558 90.5627 185.668 90.5627 185.791C90.5627 185.895 90.5868 185.984 90.6351 186.06C90.6848 186.135 90.7495 186.198 90.829 186.249C90.91 186.299 90.9966 186.341 91.089 186.375C91.1813 186.408 91.2701 186.435 91.3553 186.456L91.7814 186.567C91.9206 186.601 92.0634 186.647 92.2097 186.705C92.356 186.763 92.4917 186.84 92.6167 186.935C92.7417 187.031 92.8425 187.148 92.9192 187.289C92.9973 187.43 93.0364 187.598 93.0364 187.794C93.0364 188.041 92.9725 188.261 92.8446 188.452C92.7182 188.644 92.5343 188.795 92.2928 188.906C92.0527 189.017 91.7623 189.072 91.4213 189.072C91.0946 189.072 90.812 189.021 90.5733 188.917C90.3347 188.813 90.1479 188.666 90.013 188.476C89.878 188.284 89.8034 188.057 89.7892 187.794H90.4498C90.4625 187.952 90.5137 188.083 90.6032 188.188C90.6941 188.292 90.8098 188.369 90.9505 188.42C91.0925 188.47 91.248 188.495 91.4171 188.495C91.6032 188.495 91.7686 188.466 91.9135 188.408C92.0598 188.348 92.1749 188.266 92.2587 188.161C92.3425 188.054 92.3844 187.93 92.3844 187.788C92.3844 187.658 92.3475 187.553 92.2736 187.47C92.2012 187.388 92.1025 187.32 91.9775 187.266C91.8539 187.212 91.714 187.164 91.5577 187.123L91.0421 186.982C90.6926 186.887 90.4157 186.747 90.2111 186.562C90.008 186.378 89.9064 186.134 89.9064 185.83C89.9064 185.578 89.9746 185.359 90.111 185.171C90.2473 184.984 90.432 184.838 90.665 184.734C90.8979 184.629 91.1607 184.577 91.4533 184.577C91.7488 184.577 92.0094 184.629 92.2353 184.732C92.4625 184.836 92.6415 184.979 92.7722 185.161C92.9029 185.341 92.9711 185.548 92.9767 185.783H92.3418ZM94.1747 190.227C94.0795 190.227 93.9929 190.219 93.9148 190.204C93.8366 190.19 93.7784 190.174 93.7401 190.157L93.8935 189.635C94.0099 189.666 94.1136 189.68 94.2045 189.675C94.2955 189.671 94.3757 189.637 94.4453 189.573C94.5163 189.509 94.5788 189.405 94.6328 189.26L94.7116 189.043L93.5142 185.727H94.196L95.0249 188.267H95.0589L95.8878 185.727H96.5717L95.223 189.437C95.1605 189.607 95.081 189.751 94.9844 189.869C94.8878 189.989 94.7727 190.078 94.6392 190.138C94.5057 190.197 94.3509 190.227 94.1747 190.227ZM99.6229 186.526L99.0455 186.629C99.0213 186.555 98.983 186.484 98.9304 186.418C98.8793 186.351 98.8097 186.296 98.7216 186.254C98.6335 186.211 98.5234 186.19 98.3913 186.19C98.2109 186.19 98.0604 186.23 97.9396 186.311C97.8189 186.391 97.7585 186.494 97.7585 186.62C97.7585 186.729 97.799 186.817 97.88 186.884C97.9609 186.951 98.0916 187.006 98.272 187.048L98.7919 187.168C99.093 187.237 99.3175 187.344 99.4652 187.489C99.6129 187.634 99.6868 187.822 99.6868 188.054C99.6868 188.25 99.63 188.425 99.5163 188.578C99.4041 188.73 99.2472 188.849 99.0455 188.936C98.8452 189.023 98.6129 189.066 98.3487 189.066C97.9822 189.066 97.6832 188.988 97.4517 188.832C97.2202 188.674 97.0781 188.45 97.0256 188.161L97.6413 188.067C97.6797 188.227 97.7585 188.349 97.8778 188.431C97.9972 188.512 98.1527 188.553 98.3445 188.553C98.5533 188.553 98.7202 188.509 98.8452 188.423C98.9702 188.335 99.0327 188.227 99.0327 188.101C99.0327 187.999 98.9943 187.913 98.9176 187.843C98.8423 187.773 98.7266 187.721 98.5703 187.685L98.0163 187.564C97.7109 187.494 97.4851 187.384 97.3388 187.232C97.1939 187.08 97.1214 186.887 97.1214 186.654C97.1214 186.461 97.1754 186.292 97.2834 186.147C97.3913 186.002 97.5405 185.889 97.7308 185.808C97.9212 185.726 98.1392 185.685 98.3849 185.685C98.7386 185.685 99.017 185.761 99.2202 185.915C99.4233 186.067 99.5575 186.271 99.6229 186.526ZM101.915 185.727V186.239H100.127V185.727H101.915ZM100.607 184.943H101.244V188.039C101.244 188.163 101.262 188.256 101.299 188.318C101.336 188.379 101.384 188.421 101.442 188.444C101.502 188.465 101.566 188.476 101.636 188.476C101.687 188.476 101.732 188.472 101.77 188.465C101.808 188.458 101.838 188.452 101.86 188.448L101.975 188.974C101.938 188.989 101.885 189.003 101.817 189.017C101.749 189.033 101.664 189.041 101.561 189.043C101.394 189.045 101.237 189.016 101.093 188.953C100.948 188.891 100.83 188.794 100.741 188.663C100.651 188.533 100.607 188.369 100.607 188.171V184.943ZM103.995 189.066C103.673 189.066 103.395 188.997 103.162 188.859C102.93 188.72 102.751 188.525 102.625 188.273C102.5 188.021 102.438 187.724 102.438 187.385C102.438 187.05 102.5 186.754 102.625 186.499C102.751 186.243 102.928 186.043 103.153 185.9C103.381 185.756 103.646 185.685 103.95 185.685C104.135 185.685 104.314 185.715 104.487 185.776C104.661 185.837 104.816 185.933 104.954 186.064C105.092 186.195 105.2 186.364 105.28 186.573C105.359 186.781 105.399 187.033 105.399 187.33V187.555H102.798V187.078H104.775C104.775 186.911 104.741 186.762 104.673 186.633C104.604 186.502 104.509 186.399 104.385 186.324C104.263 186.249 104.119 186.211 103.955 186.211C103.776 186.211 103.619 186.255 103.486 186.343C103.354 186.43 103.251 186.543 103.179 186.684C103.108 186.823 103.072 186.974 103.072 187.138V187.511C103.072 187.729 103.111 187.915 103.188 188.069C103.266 188.222 103.374 188.339 103.513 188.42C103.653 188.5 103.815 188.54 104.001 188.54C104.122 188.54 104.232 188.523 104.332 188.489C104.431 188.453 104.517 188.401 104.589 188.331C104.662 188.261 104.717 188.175 104.756 188.073L105.359 188.182C105.31 188.359 105.224 188.515 105.099 188.648C104.975 188.781 104.82 188.884 104.632 188.957C104.446 189.03 104.234 189.066 103.995 189.066ZM106.106 189V185.727H106.718V186.26H106.758C106.826 186.08 106.938 185.939 107.093 185.838C107.247 185.736 107.433 185.685 107.649 185.685C107.867 185.685 108.051 185.736 108.198 185.838C108.347 185.94 108.458 186.081 108.529 186.26H108.563C108.641 186.085 108.765 185.946 108.936 185.842C109.106 185.737 109.309 185.685 109.545 185.685C109.842 185.685 110.084 185.778 110.271 185.964C110.46 186.15 110.555 186.43 110.555 186.805V189H109.918V186.865C109.918 186.643 109.857 186.483 109.737 186.384C109.616 186.284 109.472 186.234 109.304 186.234C109.097 186.234 108.936 186.298 108.82 186.426C108.705 186.553 108.648 186.715 108.648 186.914V189H108.013V186.825C108.013 186.647 107.958 186.504 107.847 186.396C107.736 186.288 107.592 186.234 107.414 186.234C107.294 186.234 107.182 186.266 107.08 186.33C106.979 186.393 106.897 186.48 106.835 186.592C106.774 186.705 106.743 186.835 106.743 186.982V189H106.106Z" fill="black"/>
<path d="M68.8608 191.636L70.0753 195.19H70.1243L71.3388 191.636H72.0504L70.4801 196H69.7195L68.1491 191.636H68.8608ZM72.6294 196V192.727H73.2665V196H72.6294ZM72.9512 192.222C72.8404 192.222 72.7452 192.185 72.6657 192.112C72.5875 192.036 72.5485 191.947 72.5485 191.843C72.5485 191.738 72.5875 191.648 72.6657 191.575C72.7452 191.499 72.8404 191.462 72.9512 191.462C73.062 191.462 73.1564 191.499 73.2346 191.575C73.3141 191.648 73.3539 191.738 73.3539 191.843C73.3539 191.947 73.3141 192.036 73.2346 192.112C73.1564 192.185 73.062 192.222 72.9512 192.222ZM75.3487 196.064C75.0845 196.064 74.8487 195.996 74.6413 195.862C74.4354 195.725 74.2734 195.531 74.1555 195.28C74.0391 195.027 73.9808 194.724 73.9808 194.37C73.9808 194.016 74.0398 193.714 74.1577 193.462C74.277 193.211 74.4403 193.018 74.6477 192.885C74.8551 192.751 75.0902 192.685 75.353 192.685C75.5561 192.685 75.7195 192.719 75.843 192.787C75.968 192.854 76.0646 192.932 76.1328 193.021C76.2024 193.111 76.2564 193.19 76.2947 193.258H76.3331V191.636H76.9702V196H76.348V195.491H76.2947C76.2564 195.56 76.201 195.64 76.1286 195.729C76.0575 195.819 75.9595 195.897 75.8345 195.964C75.7095 196.031 75.5476 196.064 75.3487 196.064ZM75.4893 195.521C75.6726 195.521 75.8274 195.472 75.9538 195.376C76.0817 195.278 76.1783 195.142 76.2436 194.969C76.3104 194.795 76.3438 194.594 76.3438 194.364C76.3438 194.136 76.3111 193.937 76.2457 193.767C76.1804 193.597 76.0845 193.464 75.9581 193.369C75.8317 193.273 75.6754 193.226 75.4893 193.226C75.2976 193.226 75.1378 193.276 75.0099 193.375C74.8821 193.474 74.7855 193.61 74.7202 193.782C74.6563 193.954 74.6243 194.148 74.6243 194.364C74.6243 194.582 74.657 194.779 74.7223 194.954C74.7876 195.129 74.8842 195.267 75.0121 195.369C75.1413 195.47 75.3004 195.521 75.4893 195.521ZM79.29 196.066C78.9675 196.066 78.6898 195.997 78.4569 195.859C78.2253 195.72 78.0463 195.525 77.9199 195.273C77.7949 195.021 77.7324 194.724 77.7324 194.385C77.7324 194.05 77.7949 193.754 77.9199 193.499C78.0463 193.243 78.2225 193.043 78.4483 192.9C78.6756 192.756 78.9412 192.685 79.2452 192.685C79.4299 192.685 79.6088 192.715 79.7821 192.776C79.9554 192.837 80.111 192.933 80.2488 193.064C80.3865 193.195 80.4952 193.364 80.5748 193.573C80.6543 193.781 80.6941 194.033 80.6941 194.33V194.555H78.0925V194.078H80.0698C80.0698 193.911 80.0357 193.762 79.9675 193.633C79.8993 193.502 79.8034 193.399 79.6799 193.324C79.5577 193.249 79.4142 193.211 79.2495 193.211C79.0705 193.211 78.9142 193.255 78.7807 193.343C78.6486 193.43 78.5463 193.543 78.4739 193.684C78.4029 193.823 78.3674 193.974 78.3674 194.138V194.511C78.3674 194.729 78.4057 194.915 78.4824 195.069C78.5605 195.222 78.6692 195.339 78.8084 195.42C78.9476 195.5 79.1103 195.54 79.2963 195.54C79.4171 195.54 79.5272 195.523 79.6266 195.489C79.726 195.453 79.812 195.401 79.8844 195.331C79.9569 195.261 80.0123 195.175 80.0506 195.073L80.6536 195.182C80.6053 195.359 80.5186 195.515 80.3936 195.648C80.2701 195.781 80.1145 195.884 79.927 195.957C79.7409 196.03 79.5286 196.066 79.29 196.066ZM82.7795 196.066C82.4727 196.066 82.2049 195.996 81.9762 195.855C81.7475 195.714 81.57 195.518 81.4435 195.265C81.3171 195.012 81.2539 194.717 81.2539 194.379C81.2539 194.039 81.3171 193.742 81.4435 193.488C81.57 193.234 81.7475 193.036 81.9762 192.896C82.2049 192.755 82.4727 192.685 82.7795 192.685C83.0863 192.685 83.354 192.755 83.5827 192.896C83.8114 193.036 83.989 193.234 84.1154 193.488C84.2418 193.742 84.305 194.039 84.305 194.379C84.305 194.717 84.2418 195.012 84.1154 195.265C83.989 195.518 83.8114 195.714 83.5827 195.855C83.354 195.996 83.0863 196.066 82.7795 196.066ZM82.7816 195.531C82.9805 195.531 83.1452 195.479 83.2759 195.374C83.4066 195.268 83.5032 195.129 83.5657 194.954C83.6296 194.779 83.6616 194.587 83.6616 194.376C83.6616 194.168 83.6296 193.976 83.5657 193.801C83.5032 193.625 83.4066 193.484 83.2759 193.377C83.1452 193.271 82.9805 193.217 82.7816 193.217C82.5813 193.217 82.4151 193.271 82.283 193.377C82.1523 193.484 82.055 193.625 81.9911 193.801C81.9286 193.976 81.8974 194.168 81.8974 194.376C81.8974 194.587 81.9286 194.779 81.9911 194.954C82.055 195.129 82.1523 195.268 82.283 195.374C82.4151 195.479 82.5813 195.531 82.7816 195.531ZM88.1616 192.727V193.239H86.3121V192.727H88.1616ZM86.8192 196V192.348C86.8192 192.143 86.864 191.974 86.9535 191.839C87.043 191.702 87.1616 191.601 87.3093 191.534C87.457 191.466 87.6175 191.432 87.7908 191.432C87.9187 191.432 88.0281 191.442 88.119 191.464C88.2099 191.484 88.2773 191.502 88.3214 191.519L88.1722 192.035C88.1424 192.026 88.104 192.016 88.0572 192.005C88.0103 191.992 87.9535 191.986 87.8867 191.986C87.7319 191.986 87.6211 192.024 87.5543 192.101C87.489 192.178 87.4563 192.288 87.4563 192.433V196H86.8192ZM88.8189 196V192.727H89.4347V193.247H89.4688C89.5284 193.071 89.6335 192.933 89.7841 192.832C89.9361 192.729 90.108 192.678 90.2997 192.678C90.3395 192.678 90.3864 192.68 90.4403 192.683C90.4957 192.685 90.5391 192.689 90.5703 192.693V193.303C90.5447 193.295 90.4993 193.288 90.4339 193.279C90.3686 193.269 90.3033 193.264 90.2379 193.264C90.0874 193.264 89.9531 193.296 89.8352 193.36C89.7188 193.423 89.6264 193.51 89.5582 193.622C89.4901 193.733 89.456 193.859 89.456 194.001V196H88.8189ZM92.0447 196.072C91.8374 196.072 91.6499 196.034 91.4822 195.957C91.3146 195.879 91.1818 195.766 91.0838 195.619C90.9872 195.471 90.9389 195.29 90.9389 195.075C90.9389 194.891 90.9744 194.739 91.0455 194.619C91.1165 194.5 91.2124 194.406 91.3331 194.336C91.4538 194.266 91.5888 194.214 91.7379 194.178C91.8871 194.143 92.0391 194.116 92.1939 194.097C92.3899 194.075 92.549 194.056 92.6712 194.042C92.7933 194.026 92.8821 194.001 92.9375 193.967C92.9929 193.933 93.0206 193.878 93.0206 193.801V193.786C93.0206 193.6 92.968 193.456 92.8629 193.354C92.7592 193.251 92.6044 193.2 92.3984 193.2C92.1839 193.2 92.0149 193.248 91.8913 193.343C91.7692 193.437 91.6847 193.541 91.6378 193.656L91.0391 193.52C91.1101 193.321 91.2138 193.161 91.3501 193.038C91.4879 192.915 91.6463 192.825 91.8253 192.77C92.0043 192.713 92.1925 192.685 92.3899 192.685C92.5206 192.685 92.6591 192.7 92.8054 192.732C92.9531 192.761 93.0909 192.817 93.2188 192.898C93.348 192.979 93.4538 193.094 93.5362 193.245C93.6186 193.394 93.6598 193.588 93.6598 193.827V196H93.0376V195.553H93.0121C92.9709 195.635 92.9091 195.716 92.8267 195.795C92.7443 195.875 92.6385 195.941 92.5092 195.994C92.38 196.046 92.2251 196.072 92.0447 196.072ZM92.1832 195.561C92.3594 195.561 92.5099 195.526 92.6349 195.457C92.7614 195.387 92.8572 195.296 92.9226 195.184C92.9893 195.07 93.0227 194.949 93.0227 194.82V194.398C93 194.42 92.956 194.442 92.8906 194.462C92.8267 194.48 92.7536 194.496 92.6712 194.511C92.5888 194.523 92.5085 194.536 92.4304 194.547C92.3523 194.557 92.2869 194.565 92.2344 194.572C92.1108 194.588 91.9979 194.614 91.8956 194.651C91.7947 194.688 91.7138 194.741 91.6527 194.811C91.593 194.879 91.5632 194.97 91.5632 195.084C91.5632 195.241 91.6214 195.361 91.7379 195.442C91.8544 195.521 92.0028 195.561 92.1832 195.561ZM94.5083 196V192.727H95.1199V193.26H95.1603C95.2285 193.08 95.34 192.939 95.4949 192.838C95.6497 192.736 95.835 192.685 96.051 192.685C96.2697 192.685 96.4529 192.736 96.6007 192.838C96.7498 192.94 96.8599 193.081 96.9309 193.26H96.965C97.0431 193.085 97.1674 192.946 97.3379 192.842C97.5083 192.737 97.7115 192.685 97.9473 192.685C98.2441 192.685 98.4863 192.778 98.6738 192.964C98.8627 193.15 98.9572 193.43 98.9572 193.805V196H98.3201V193.865C98.3201 193.643 98.2598 193.483 98.139 193.384C98.0183 193.284 97.8741 193.234 97.7065 193.234C97.4991 193.234 97.3379 193.298 97.2228 193.426C97.1078 193.553 97.0502 193.715 97.0502 193.914V196H96.4153V193.825C96.4153 193.647 96.3599 193.504 96.2491 193.396C96.1383 193.288 95.9941 193.234 95.8166 193.234C95.6958 193.234 95.5843 193.266 95.4821 193.33C95.3812 193.393 95.2995 193.48 95.237 193.592C95.176 193.705 95.1454 193.835 95.1454 193.982V196H94.5083ZM101.222 196.066C100.899 196.066 100.621 195.997 100.388 195.859C100.157 195.72 99.978 195.525 99.8516 195.273C99.7266 195.021 99.6641 194.724 99.6641 194.385C99.6641 194.05 99.7266 193.754 99.8516 193.499C99.978 193.243 100.154 193.043 100.38 192.9C100.607 192.756 100.873 192.685 101.177 192.685C101.362 192.685 101.54 192.715 101.714 192.776C101.887 192.837 102.043 192.933 102.18 193.064C102.318 193.195 102.427 193.364 102.506 193.573C102.586 193.781 102.626 194.033 102.626 194.33V194.555H100.024V194.078H102.001C102.001 193.911 101.967 193.762 101.899 193.633C101.831 193.502 101.735 193.399 101.612 193.324C101.489 193.249 101.346 193.211 101.181 193.211C101.002 193.211 100.846 193.255 100.712 193.343C100.58 193.43 100.478 193.543 100.406 193.684C100.335 193.823 100.299 193.974 100.299 194.138V194.511C100.299 194.729 100.337 194.915 100.414 195.069C100.492 195.222 100.601 195.339 100.74 195.42C100.879 195.5 101.042 195.54 101.228 195.54C101.349 195.54 101.459 195.523 101.558 195.489C101.658 195.453 101.744 195.401 101.816 195.331C101.888 195.261 101.944 195.175 101.982 195.073L102.585 195.182C102.537 195.359 102.45 195.515 102.325 195.648C102.202 195.781 102.046 195.884 101.859 195.957C101.673 196.03 101.46 196.066 101.222 196.066ZM108.494 191.636V196H107.888L105.67 192.8H105.63V196H104.972V191.636H105.581L107.801 194.841H107.842V191.636H108.494ZM110.781 196.066C110.475 196.066 110.207 195.996 109.978 195.855C109.749 195.714 109.572 195.518 109.445 195.265C109.319 195.012 109.256 194.717 109.256 194.379C109.256 194.039 109.319 193.742 109.445 193.488C109.572 193.234 109.749 193.036 109.978 192.896C110.207 192.755 110.475 192.685 110.781 192.685C111.088 192.685 111.356 192.755 111.585 192.896C111.813 193.036 111.991 193.234 112.117 193.488C112.244 193.742 112.307 194.039 112.307 194.379C112.307 194.717 112.244 195.012 112.117 195.265C111.991 195.518 111.813 195.714 111.585 195.855C111.356 195.996 111.088 196.066 110.781 196.066ZM110.784 195.531C110.982 195.531 111.147 195.479 111.278 195.374C111.409 195.268 111.505 195.129 111.568 194.954C111.632 194.779 111.664 194.587 111.664 194.376C111.664 194.168 111.632 193.976 111.568 193.801C111.505 193.625 111.409 193.484 111.278 193.377C111.147 193.271 110.982 193.217 110.784 193.217C110.583 193.217 110.417 193.271 110.285 193.377C110.154 193.484 110.057 193.625 109.993 193.801C109.931 193.976 109.899 194.168 109.899 194.376C109.899 194.587 109.931 194.779 109.993 194.954C110.057 195.129 110.154 195.268 110.285 195.374C110.417 195.479 110.583 195.531 110.784 195.531ZM116.117 196.06C115.824 196.06 115.563 196.009 115.333 195.908C115.104 195.808 114.923 195.668 114.789 195.489C114.657 195.308 114.586 195.099 114.576 194.862H115.245C115.254 194.991 115.297 195.104 115.375 195.199C115.455 195.293 115.558 195.365 115.686 195.416C115.814 195.467 115.956 195.493 116.112 195.493C116.284 195.493 116.436 195.463 116.568 195.403C116.702 195.344 116.806 195.261 116.882 195.154C116.957 195.046 116.994 194.922 116.994 194.781C116.994 194.635 116.957 194.506 116.882 194.396C116.808 194.283 116.699 194.195 116.556 194.131C116.414 194.067 116.242 194.036 116.04 194.036H115.671V193.499H116.04C116.202 193.499 116.344 193.469 116.466 193.411C116.59 193.353 116.686 193.272 116.756 193.168C116.825 193.063 116.86 192.94 116.86 192.8C116.86 192.665 116.83 192.548 116.769 192.448C116.709 192.347 116.624 192.268 116.513 192.212C116.404 192.155 116.274 192.126 116.125 192.126C115.983 192.126 115.85 192.153 115.727 192.205C115.605 192.256 115.505 192.33 115.428 192.427C115.352 192.522 115.311 192.636 115.305 192.77H114.668C114.675 192.534 114.744 192.327 114.877 192.148C115.01 191.969 115.186 191.829 115.405 191.728C115.624 191.627 115.867 191.577 116.134 191.577C116.414 191.577 116.655 191.631 116.858 191.741C117.063 191.849 117.22 191.993 117.331 192.173C117.443 192.354 117.499 192.551 117.497 192.766C117.499 193.01 117.431 193.217 117.293 193.388C117.156 193.558 116.975 193.673 116.747 193.731V193.765C117.037 193.809 117.262 193.924 117.421 194.11C117.581 194.296 117.661 194.527 117.659 194.803C117.661 195.043 117.594 195.258 117.459 195.448C117.325 195.638 117.143 195.788 116.911 195.898C116.68 196.006 116.415 196.06 116.117 196.06Z" fill="black"/>
</g>
<defs>
<clipPath id="clip0_3786_308">
<rect width="180" height="200" fill="white"/>
</clipPath>
</defs>
</svg>
