<svg id="screen4" xmlns="http://www.w3.org/2000/svg" xmlns:xlink="http://www.w3.org/1999/xlink" viewBox="0 0 532 631" shape-rendering="geometricPrecision" text-rendering="geometricPrecision" project-id="3443b2274f844a308a2204262fd9fecc" export-id="91a619b7c9a44a12bf9f53a49f0eeb11" cached="true"><path id="screen4-s-path1" d="M430.08,51.5h-378.8632v431h378.8632v-431Z" transform="translate(1175.036515 26.760388)" fill="none" stroke="#000"/><path id="screen4-s-path2" d="M494.716,200.5h-49.72v36h49.72v-36Z" transform="translate(1175.036515 26.760388)" fill="none" stroke="#000"/><path id="screen4-s-path3" d="M493.722,78.5h-48.726v36h48.726v-36Z" transform="translate(1175.036515 26.760388)" fill="none" stroke="#000"/><path id="screen4-s-path4" d="M493.722,119.5h-48.726v36h48.726v-36Z" transform="translate(1175.036515 26.760388)" fill="none" stroke="#000"/><path id="screen4-s-path5" d="M494.716,159.5h-49.72v36h49.72v-36Z" transform="translate(1175.036515 26.760388)" fill="none" stroke="#5a4141"/><path id="screen4-s-path6" d="M463.629,176.5v-4.364h2.691v.567h-2.035v1.33h1.842v.564h-1.842v1.903h-.656Zm5.303-1.357v-1.916h.636v3.273h-.623v-.567h-.035c-.074.175-.194.321-.36.437-.164.115-.367.173-.612.173-.209,0-.394-.047-.555-.139-.159-.094-.285-.232-.377-.415-.09-.184-.135-.41-.135-.68v-2.082h.633v2.005c0,.223.061.401.184.533.124.132.283.198.48.198.118,0,.236-.03.353-.089.119-.06.216-.15.295-.271s.117-.274.116-.46Zm2.889,1.423c-.32,0-.597-.069-.828-.207-.23-.139-.408-.334-.534-.586-.125-.252-.186-.549-.186-.888c0-.335.061-.631.186-.886.126-.256.301-.456.526-.599.225-.144.49-.215.792-.215.183,0,.361.03.534.091.172.061.326.157.464.288.137.131.245.3.324.509.079.208.119.46.119.757v.225h-2.587v-.477h1.966c0-.167-.034-.316-.102-.445-.067-.131-.163-.234-.286-.309-.121-.075-.264-.113-.428-.113-.178,0-.333.044-.466.132-.131.087-.233.2-.305.341-.071.139-.106.29-.106.454v.373c0,.218.038.404.115.558.077.153.185.27.324.351.138.08.3.12.485.12.12,0,.23-.017.328-.051.1-.036.184-.088.257-.158.071-.07.127-.156.165-.258l.599.109c-.047.177-.134.333-.258.466-.123.133-.278.236-.464.309s-.396.109-.634.109Zm2.734-4.43v4.364h-.635v-4.364h.635Zm-12.545,8.147c-.022-.202-.115-.358-.279-.469-.164-.112-.37-.168-.619-.168-.178,0-.332.028-.462.085-.129.055-.231.132-.302.23-.071.097-.107.207-.107.33c0,.104.024.193.073.269.049.075.113.138.193.189.08.05.166.092.258.126.092.033.18.06.265.081l.423.111c.139.034.281.08.426.138.146.058.281.135.405.23.124.096.225.213.301.354.078.141.116.309.116.505c0,.247-.063.467-.19.658-.126.192-.309.343-.549.454-.239.111-.527.166-.867.166-.325,0-.605-.051-.843-.155-.237-.104-.423-.251-.557-.441-.134-.192-.208-.419-.222-.682h.656c.013.158.064.289.153.394.091.104.205.181.345.232.141.05.296.075.465.075.184,0,.349-.029.493-.087.145-.06.259-.142.343-.247.083-.107.125-.231.125-.373c0-.13-.037-.235-.11-.318-.072-.082-.17-.15-.295-.204-.123-.054-.261-.102-.417-.143l-.512-.141c-.348-.095-.624-.235-.827-.42-.202-.184-.303-.428-.303-.732c0-.252.068-.471.204-.659.135-.187.319-.333.551-.437.23-.105.492-.157.783-.157.294,0,.553.052.778.155.226.104.404.247.534.429.129.18.198.387.203.622h-.632Zm1.823,4.444c-.094,0-.181-.008-.258-.023-.078-.014-.136-.03-.174-.047l.153-.522c.115.031.218.045.309.04.09-.004.17-.038.24-.102s.132-.168.185-.313l.079-.217-1.19-3.316h.678l.823,2.54h.035l.823-2.54h.681l-1.341,3.71c-.062.17-.141.314-.237.432-.097.12-.211.209-.344.269-.133.059-.287.089-.462.089Zm5.417-3.701l-.573.103c-.024-.074-.062-.145-.115-.211-.05-.067-.12-.122-.207-.164-.088-.043-.197-.064-.329-.064-.18,0-.329.04-.449.121-.12.08-.18.183-.18.309c0,.109.041.197.121.264s.21.122.39.164l.516.12c.3.069.523.176.67.321s.22.333.22.565c0,.196-.056.371-.169.524-.111.152-.267.271-.468.358-.199.087-.431.13-.693.13-.364,0-.662-.078-.892-.234-.23-.158-.371-.382-.424-.671l.613-.094c.037.16.116.282.234.364.12.081.274.122.465.122.208,0,.374-.044.498-.13.124-.088.186-.196.186-.322c0-.102-.038-.188-.115-.258-.074-.07-.189-.122-.345-.158l-.55-.121c-.305-.07-.529-.18-.675-.332-.144-.152-.215-.345-.215-.578c0-.193.053-.362.161-.507.107-.145.255-.258.444-.339.19-.082.407-.123.65-.123.352,0,.63.076.832.23.202.152.335.356.399.611Zm2.281-.799v.512h-1.778v-.512h1.778Zm-1.302-.784h.633v3.096c0,.124.019.217.056.279.037.061.084.103.141.126.06.021.125.032.193.032.052,0,.096-.004.134-.011s.068-.013.089-.017l.114.526c-.036.015-.088.029-.157.043-.067.016-.152.024-.253.026-.167.002-.323-.027-.467-.09-.144-.062-.26-.159-.35-.29-.088-.13-.133-.294-.133-.492v-3.228Zm3.37,4.123c-.321,0-.598-.069-.829-.207-.23-.139-.408-.334-.533-.586s-.187-.549-.187-.888c0-.335.062-.631.187-.886.125-.256.3-.456.525-.599.225-.144.49-.215.792-.215.183,0,.361.03.534.091.172.061.327.157.464.288s.245.3.324.509c.079.208.119.46.119.757v.225h-2.587v-.477h1.966c0-.167-.034-.316-.102-.445-.067-.131-.163-.234-.286-.309-.121-.075-.264-.113-.428-.113-.178,0-.333.044-.466.132-.131.087-.233.2-.304.341-.071.139-.107.29-.107.454v.373c0,.218.038.404.115.558.077.153.185.27.324.351.138.08.3.12.485.12.12,0,.23-.017.328-.051.1-.036.185-.088.257-.158.071-.07.127-.156.165-.258l.599.109c-.047.177-.134.333-.258.466-.123.133-.278.236-.464.309-.185.073-.396.109-.633.109Zm2.099-.066v-3.273h.608v.533h.04c.068-.18.178-.321.333-.422.154-.102.338-.153.552-.153.218,0,.4.051.547.153.149.102.258.243.329.422h.033c.078-.175.202-.314.371-.418.17-.105.372-.157.606-.157.295,0,.537.093.723.279.188.186.281.466.281.841v2.195h-.633v-2.135c0-.222-.06-.382-.18-.481-.121-.1-.264-.15-.43-.15-.207,0-.367.064-.481.192-.114.127-.172.289-.172.488v2.086h-.631v-2.175c0-.178-.055-.321-.166-.429-.109-.108-.253-.162-.429-.162-.12,0-.231.032-.333.096-.101.063-.181.15-.244.262-.061.113-.09.243-.09.39v2.018h-.634Z" transform="translate(1175.036515 26.760388)"/><path id="screen4-s-path7" d="M494.716,241.5h-49.72v36h49.72v-36Z" transform="translate(1175.036515 26.760388)" fill="none" stroke="#000"/><path id="screen4-s-path8" d="M494.716,298.5h-49.72v36h49.72v-36Z" transform="translate(1175.036515 26.760388)" fill="none" stroke="#000"/><path id="screen4-s-path9" d="M463.733,312.283c-.023-.202-.117-.358-.28-.469-.164-.112-.371-.168-.619-.168-.178,0-.332.028-.462.085-.13.055-.23.132-.303.23-.071.097-.105.207-.105.33c0,.104.023.193.071.269.05.075.114.138.193.189.081.05.167.092.259.126.091.033.18.06.264.081l.424.111c.139.034.28.08.426.138.145.058.281.135.405.23.124.096.225.213.3.354.078.141.117.309.117.505c0,.247-.064.467-.19.658-.127.192-.31.343-.549.454s-.528.166-.867.166c-.324,0-.606-.051-.844-.155-.236-.104-.422-.251-.556-.441-.135-.192-.209-.419-.223-.682h.657c.013.158.064.289.152.394.091.104.206.181.345.232.143.05.297.075.465.075.185,0,.35-.029.494-.087.145-.06.26-.142.343-.247.084-.107.124-.231.124-.373c0-.13-.036-.235-.109-.318-.073-.082-.171-.15-.295-.204-.123-.054-.262-.102-.417-.143l-.513-.141c-.347-.095-.623-.235-.826-.42-.202-.184-.304-.428-.304-.732c0-.252.069-.471.204-.659.135-.187.319-.333.551-.437.232-.105.493-.157.784-.157.294,0,.552.052.777.155.227.104.405.247.534.429.13.18.198.387.204.622h-.631Zm2.825,3.283c-.322,0-.598-.069-.83-.207-.229-.139-.407-.334-.534-.586-.123-.252-.186-.549-.186-.888c0-.335.063-.631.186-.886.127-.256.302-.456.526-.599.226-.144.491-.215.793-.215.183,0,.361.03.534.091.172.061.327.157.463.288.137.131.246.3.324.509.08.208.12.46.12.757v.225h-2.588v-.477h1.966c0-.167-.034-.316-.101-.445-.068-.131-.163-.234-.287-.309-.121-.075-.263-.113-.427-.113-.178,0-.333.044-.467.132-.131.087-.232.2-.305.341-.07.139-.105.29-.105.454v.373c0,.218.038.404.114.558.078.153.186.27.324.351.139.08.301.12.486.12.12,0,.229-.017.328-.051.099-.036.185-.088.256-.158.072-.07.128-.156.165-.258l.6.109c-.048.177-.134.333-.259.466-.122.133-.277.236-.463.309-.185.073-.397.109-.633.109Zm2.732-4.43v4.364h-.633v-4.364h.633Zm2.255,4.43c-.321,0-.597-.069-.829-.207-.23-.139-.408-.334-.534-.586-.124-.252-.186-.549-.186-.888c0-.335.062-.631.186-.886.126-.256.301-.456.526-.599.226-.144.489-.215.792-.215.184,0,.362.03.534.091.173.061.327.157.464.288s.245.3.324.509c.08.208.119.46.119.757v.225h-2.587v-.477h1.966c0-.167-.034-.316-.101-.445-.068-.131-.163-.234-.287-.309-.121-.075-.264-.113-.427-.113-.178,0-.334.044-.467.132-.131.087-.232.2-.305.341-.071.139-.105.29-.105.454v.373c0,.218.037.404.114.558.078.153.185.27.324.351.138.08.3.12.485.12.12,0,.229-.017.329-.051.098-.036.184-.088.256-.158s.126-.156.165-.258l.6.109c-.049.177-.134.333-.259.466-.123.133-.277.236-.464.309-.185.073-.396.109-.633.109Zm3.47,0c-.315,0-.587-.072-.814-.215-.226-.145-.399-.345-.522-.599-.121-.254-.182-.545-.182-.873c0-.333.063-.626.187-.88.125-.256.3-.456.525-.599.226-.144.493-.215.799-.215.248,0,.467.046.661.138.194.091.35.219.469.384.12.164.191.357.213.577h-.616c-.034-.153-.111-.285-.233-.396-.12-.111-.281-.166-.483-.166-.177,0-.331.046-.464.14-.132.093-.234.225-.308.397-.072.17-.109.372-.109.605c0,.238.036.444.107.618.073.173.174.307.306.402.133.095.289.143.468.143.12,0,.229-.022.326-.066.099-.046.182-.11.248-.194.068-.084.115-.185.142-.303h.616c-.022.212-.09.401-.205.567s-.268.297-.46.392c-.191.095-.415.143-.671.143Zm3.533-3.339v.512h-1.778v-.512h1.778Zm-1.301-.784h.634v3.096c0,.124.018.217.054.279.037.061.085.103.143.126.059.021.123.032.193.032.05,0,.095-.004.133-.011.039-.007.067-.013.089-.017l.115.526c-.037.015-.09.029-.157.043-.068.016-.153.024-.255.026-.166.002-.321-.027-.465-.09-.145-.062-.261-.159-.35-.29-.089-.13-.134-.294-.134-.492v-3.228Zm-17.525,6.693h.795l1.382,3.392h.051l1.381-3.392h.794v4.364h-.622v-3.158h-.041l-1.28,3.152h-.517l-1.28-3.154h-.039v3.16h-.624v-4.364Zm6.676,4.43c-.306,0-.572-.07-.8-.211-.227-.141-.404-.337-.529-.59-.126-.253-.189-.548-.189-.886c0-.34.063-.637.189-.891.125-.254.302-.452.529-.592.228-.141.494-.211.8-.211.304,0,.57.07.798.211.228.14.404.338.53.592.125.254.188.551.188.891c0,.338-.063.633-.188.886-.126.253-.302.449-.53.59s-.494.211-.798.211Zm.002-.535c.197,0,.36-.052.491-.157.13-.106.225-.245.288-.42.064-.175.096-.367.096-.578c0-.208-.032-.4-.096-.575-.063-.176-.158-.317-.288-.424-.131-.106-.294-.16-.491-.16-.199,0-.365.054-.497.16-.129.107-.226.248-.29.424-.062.175-.093.367-.093.575c0,.211.031.403.093.578.064.175.161.314.29.42.132.105.298.157.497.157Zm3.439.533c-.262,0-.497-.068-.703-.202-.205-.137-.366-.331-.483-.582-.116-.253-.173-.556-.173-.91s.058-.656.175-.908c.119-.251.281-.444.487-.577.207-.134.441-.2.702-.2.202,0,.364.034.487.102.125.067.22.145.289.234.068.09.122.169.161.237h.038v-1.622h.633v4.364h-.618v-.509h-.053c-.039.069-.094.149-.166.238-.071.09-.168.168-.293.235-.124.067-.285.1-.483.1Zm.14-.543c.182,0,.336-.049.463-.145.126-.098.222-.234.287-.407.067-.174.101-.375.101-.605c0-.228-.033-.427-.098-.597-.066-.17-.161-.303-.286-.398-.127-.096-.282-.143-.467-.143-.191,0-.349.05-.476.149s-.224.235-.288.407-.096.366-.096.582c0,.218.033.415.098.59.064.175.161.313.288.415.128.101.286.152.474.152Zm4.438-.878v-1.916h.637v3.273h-.624v-.567h-.034c-.074.175-.194.321-.36.437-.164.115-.367.173-.612.173-.209,0-.394-.047-.555-.139-.16-.094-.285-.232-.377-.415-.09-.184-.136-.41-.136-.68v-2.082h.633v2.005c0,.223.062.401.185.533s.283.198.479.198c.119,0,.236-.03.354-.089.118-.06.216-.15.294-.271.08-.121.118-.274.116-.46Zm2.121-3.007v4.364h-.633v-4.364h.633Zm2.255,4.43c-.321,0-.597-.069-.829-.207-.229-.139-.407-.334-.534-.586-.124-.252-.186-.549-.186-.888c0-.335.062-.631.186-.886.127-.256.302-.456.526-.599.226-.144.49-.215.792-.215.184,0,.362.03.534.091.173.061.327.157.464.288s.245.3.324.509c.08.208.119.46.119.757v.225h-2.587v-.477h1.966c0-.167-.034-.316-.101-.445-.068-.131-.163-.234-.287-.309-.121-.075-.263-.113-.427-.113-.178,0-.333.044-.467.132-.131.087-.232.2-.305.341-.07.139-.105.29-.105.454v.373c0,.218.038.404.114.558.078.153.185.27.324.351.139.08.301.12.486.12.119,0,.228-.017.328-.051.098-.036.184-.088.256-.158s.128-.156.165-.258l.6.109c-.048.177-.134.333-.259.466-.123.133-.277.236-.464.309-.185.073-.396.109-.633.109Z" transform="translate(1175.036515 26.760388)"/><path id="screen4-s-path10" d="M494.716,339.5h-49.72v36h49.72v-36Z" transform="translate(1175.036515 26.760388)" fill="none" stroke="#000"/><path id="screen4-s-path11" d="M456.874,356.5h-1.405v-4.364h1.45c.425,0,.79.088,1.095.262s.539.423.701.748c.164.324.247.713.247,1.166c0,.454-.084.845-.249,1.172-.164.326-.401.578-.712.754-.31.175-.686.262-1.127.262Zm-.749-.575h.714c.33,0,.604-.063.823-.188.22-.126.383-.309.492-.547.108-.24.163-.533.163-.878c0-.343-.055-.633-.163-.872-.107-.238-.267-.419-.481-.543-.213-.124-.478-.185-.795-.185h-.753v3.213Zm4.546.647c-.206,0-.392-.038-.559-.115-.167-.078-.298-.191-.396-.338-.096-.148-.144-.329-.144-.544c0-.184.035-.336.106-.456.07-.119.166-.213.286-.283s.254-.122.403-.158c.148-.035.299-.062.453-.081.195-.022.353-.041.474-.055.122-.016.21-.041.265-.075.056-.034.082-.089.082-.166v-.015c0-.186-.051-.33-.156-.432-.103-.103-.257-.154-.462-.154-.213,0-.381.048-.504.143-.122.094-.206.198-.252.313l-.595-.136c.07-.199.174-.359.309-.482.137-.123.294-.213.472-.268.178-.057.365-.085.562-.085.129,0,.267.015.413.047.147.029.284.085.411.166.129.081.234.196.316.347.081.149.123.343.123.582v2.173h-.62v-.447h-.025c-.04.082-.102.163-.184.242-.082.08-.187.146-.316.199-.128.052-.282.078-.462.078Zm.138-.511c.175,0,.325-.035.45-.104.125-.07.22-.161.285-.273.067-.114.099-.235.099-.364v-.422c-.021.022-.065.044-.131.064-.063.018-.136.034-.218.049-.081.012-.162.025-.239.036-.078.01-.142.018-.195.025-.122.016-.235.042-.337.079-.101.037-.18.09-.242.16-.059.068-.088.159-.088.273c0,.157.057.277.174.358.115.079.263.119.442.119Zm3.832-2.834v.512h-1.778v-.512h1.778Zm-1.301-.784h.633v3.096c0,.124.018.217.055.279.037.061.084.103.142.126.059.021.123.032.193.032.051,0,.096-.004.133-.011.038-.007.068-.013.089-.017l.114.526c-.036.015-.088.029-.156.043-.068.016-.153.024-.255.026-.167.002-.322-.027-.466-.09-.144-.062-.26-.159-.349-.29-.089-.13-.133-.294-.133-.492v-3.228Zm3.369,4.123c-.321,0-.597-.069-.828-.207-.231-.139-.409-.334-.534-.586s-.187-.549-.187-.888c0-.335.062-.631.187-.886.125-.256.3-.456.525-.599.226-.144.49-.215.792-.215.184,0,.362.03.534.091s.327.157.464.288.245.3.325.509c.078.208.118.46.118.757v.225h-2.587v-.477h1.966c0-.167-.033-.316-.102-.445-.068-.131-.163-.234-.285-.309s-.265-.113-.429-.113c-.178,0-.333.044-.465.132-.132.087-.234.2-.306.341-.07.139-.106.29-.106.454v.373c0,.218.039.404.114.558.078.153.186.27.325.351.139.08.3.12.485.12.12,0,.23-.017.329-.051.098-.036.184-.088.255-.158.073-.07.128-.156.167-.258l.599.109c-.049.177-.134.333-.258.466s-.279.236-.465.309c-.185.073-.396.109-.633.109Zm3.752-4.634l-1.398,5.224h-.566l1.398-5.224h.566Zm.375.771v-.567h3.358v.567h-1.354v3.797h-.653v-3.797h-1.351Zm4.049,3.797v-3.273h.633v3.273h-.633Zm.32-3.778c-.11,0-.205-.037-.284-.11-.078-.076-.117-.165-.117-.269c0-.105.039-.195.117-.268.079-.076.174-.113.284-.113s.204.037.281.113c.08.073.12.163.12.268c0,.104-.04.193-.12.269-.077.073-.171.11-.281.11Zm1.165,3.778v-3.273h.609v.533h.04c.067-.18.179-.321.333-.422.154-.102.338-.153.553-.153.217,0,.399.051.547.153s.257.243.328.422h.034c.077-.175.2-.314.371-.418.169-.105.37-.157.605-.157.295,0,.536.093.723.279.188.186.281.466.281.841v2.195h-.633v-2.135c0-.222-.06-.382-.18-.481-.12-.1-.264-.15-.431-.15-.205,0-.366.064-.48.192-.114.127-.172.289-.172.488v2.086h-.631v-2.175c0-.178-.055-.321-.165-.429-.111-.108-.254-.162-.43-.162-.12,0-.232.032-.333.096-.101.063-.181.15-.244.262-.06.113-.091.243-.091.39v2.018h-.634Zm6.677.066c-.321,0-.598-.069-.83-.207-.229-.139-.407-.334-.533-.586-.124-.252-.187-.549-.187-.888c0-.335.063-.631.187-.886.126-.256.301-.456.525-.599.226-.144.491-.215.793-.215.183,0,.361.03.534.091.172.061.327.157.463.288.138.131.246.3.325.509.079.208.119.46.119.757v.225h-2.588v-.477h1.966c0-.167-.033-.316-.101-.445-.068-.131-.163-.234-.286-.309-.122-.075-.264-.113-.428-.113-.178,0-.333.044-.466.132-.132.087-.233.2-.305.341-.071.139-.106.29-.106.454v.373c0,.218.038.404.114.558.078.153.186.27.324.351.139.08.301.12.486.12.12,0,.229-.017.328-.051.099-.036.185-.088.256-.158.072-.07.128-.156.165-.258l.6.109c-.048.177-.134.333-.258.466-.123.133-.278.236-.464.309-.185.073-.397.109-.633.109Zm-20.263,4.46l-.575.103c-.024-.074-.061-.145-.114-.211-.051-.067-.12-.122-.208-.164-.087-.043-.197-.064-.328-.064-.179,0-.329.04-.45.121-.119.08-.18.183-.18.309c0,.109.041.197.122.264.08.067.21.122.39.164l.517.12c.299.069.522.176.669.321s.22.333.22.565c0,.196-.056.371-.169.524-.112.152-.268.271-.469.358-.199.087-.429.13-.693.13-.364,0-.661-.078-.892-.234-.23-.158-.371-.382-.423-.671l.612-.094c.038.16.116.282.235.364.119.081.273.122.464.122.208,0,.374-.044.498-.13.125-.088.186-.196.186-.322c0-.102-.037-.188-.114-.258-.075-.07-.19-.122-.345-.158l-.551-.121c-.303-.07-.528-.18-.674-.332-.143-.152-.216-.345-.216-.578c0-.193.054-.362.161-.507s.256-.258.445-.339c.19-.082.406-.123.651-.123.351,0,.628.076.83.23.202.152.335.356.401.611Zm2.162,2.54c-.32,0-.597-.069-.829-.207-.229-.139-.407-.334-.534-.586-.124-.252-.185-.549-.185-.888c0-.335.061-.631.185-.886.127-.256.302-.456.527-.599.225-.144.49-.215.792-.215.183,0,.361.03.534.091.172.061.326.157.463.288.138.131.246.3.325.509.079.208.119.46.119.757v.225h-2.588v-.477h1.966c0-.167-.033-.316-.101-.445-.068-.131-.163-.234-.286-.309-.122-.075-.264-.113-.428-.113-.178,0-.333.044-.466.132-.132.087-.233.2-.306.341-.07.139-.105.29-.105.454v.373c0,.218.038.404.114.558.078.153.186.27.324.351.139.08.301.12.486.12.12,0,.229-.017.328-.051.098-.036.184-.088.256-.158s.128-.156.166-.258l.599.109c-.048.177-.134.333-.258.466-.123.133-.278.236-.465.309-.185.073-.396.109-.633.109Zm3.618-3.339v.512h-1.778v-.512h1.778Zm-1.3-.784h.633v3.096c0,.124.018.217.055.279.037.061.084.103.142.126.06.021.123.032.193.032.051,0,.095-.004.133-.011.039-.007.068-.013.09-.017l.114.526c-.037.015-.089.029-.157.043-.068.016-.152.024-.255.026-.166.002-.321-.027-.465-.09-.144-.062-.261-.159-.35-.29-.089-.13-.133-.294-.133-.492v-3.228Zm3.521.784v.512h-1.778v-.512h1.778Zm-1.302-.784h.634v3.096c0,.124.019.217.055.279.037.061.084.103.142.126.059.021.124.032.192.032.052,0,.096-.004.135-.011.037-.007.067-.013.088-.017l.115.526c-.037.015-.089.029-.158.043-.067.016-.152.024-.253.026-.167.002-.322-.027-.467-.09-.144-.062-.26-.159-.35-.29-.088-.13-.133-.294-.133-.492v-3.228Zm2.002,4.057v-3.273h.633v3.273h-.633Zm.32-3.778c-.11,0-.205-.037-.284-.11-.078-.076-.117-.165-.117-.269c0-.105.039-.195.117-.268.079-.076.174-.113.284-.113s.204.037.282.113c.079.073.119.163.119.268c0,.104-.04.193-.119.269-.078.073-.172.11-.282.11Zm1.799,1.835v1.943h-.633v-3.273h.608v.533h.04c.075-.173.193-.313.352-.418.161-.105.364-.157.608-.157.222,0,.416.047.582.14.167.093.297.23.388.414.092.183.138.409.138.679v2.082h-.633v-2.005c0-.237-.062-.423-.185-.556-.122-.135-.292-.202-.506-.202-.147,0-.278.031-.392.095-.113.064-.203.158-.27.282-.064.122-.097.27-.097.443Zm4.297,3.238c-.258,0-.481-.034-.667-.102-.185-.068-.337-.158-.454-.27-.117-.113-.205-.235-.262-.369l.544-.226c.038.063.089.129.153.198.064.071.153.132.262.181.112.05.256.075.431.075.239,0,.438-.059.595-.177.156-.116.235-.302.235-.558v-.644h-.04c-.039.07-.093.147-.166.233-.07.085-.168.159-.292.221-.124.063-.286.094-.485.094-.257,0-.489-.06-.695-.181-.204-.122-.367-.302-.487-.539-.119-.239-.178-.532-.178-.88s.058-.646.175-.895c.12-.249.282-.439.487-.571.207-.134.441-.2.703-.2.201,0,.364.034.489.102.124.067.221.145.29.234.071.09.125.169.163.237h.047v-.531h.62v3.345c0,.282-.064.513-.194.693-.131.18-.307.314-.528.4-.22.087-.469.13-.746.13Zm-.006-1.872c.182,0,.336-.043.462-.128.126-.087.223-.21.288-.371.066-.162.099-.356.099-.582c0-.22-.032-.414-.097-.581-.065-.168-.161-.299-.286-.392-.126-.096-.281-.143-.466-.143-.191,0-.349.05-.477.149-.127.098-.223.232-.288.401-.064.169-.095.358-.095.566c0,.215.032.403.097.565s.161.288.288.379c.129.091.287.137.475.137Z" transform="translate(1175.036515 26.760388)"/><path id="screen4-s-path12" d="M494.716,446.5h-49.72v36h49.72v-36Z" transform="translate(1175.036515 26.760388)" fill="none" stroke="#000"/><path id="screen4-s-path13" d="M458.934,459.136h.794l1.381,3.392h.051l1.381-3.392h.795v4.364h-.623v-3.158h-.04l-1.28,3.152h-.517l-1.28-3.154h-.04v3.16h-.622v-4.364Zm6.674,4.43c-.305,0-.572-.07-.799-.211s-.404-.337-.53-.59-.188-.548-.188-.886c0-.34.062-.637.188-.891s.303-.452.53-.592c.227-.141.494-.211.799-.211s.571.07.799.211c.227.14.403.338.53.592.125.254.187.551.187.891c0,.338-.062.633-.187.886-.127.253-.303.449-.53.59-.228.141-.494.211-.799.211Zm.002-.535c.198,0,.361-.052.491-.157.13-.106.226-.245.289-.42s.095-.367.095-.578c0-.208-.032-.4-.095-.575-.063-.176-.159-.317-.289-.424-.13-.106-.293-.16-.491-.16-.199,0-.365.054-.496.16-.129.107-.227.248-.291.424-.061.175-.092.367-.092.575c0,.211.031.403.092.578.064.175.162.314.291.42.131.105.297.157.496.157Zm3.441.533c-.264,0-.498-.068-.704-.202-.205-.137-.366-.331-.484-.582-.115-.253-.173-.556-.173-.91s.059-.656.175-.908c.12-.251.282-.444.489-.577.205-.134.439-.2.701-.2.201,0,.364.034.487.102.124.067.22.145.288.234.069.09.122.169.161.237h.038v-1.622h.633v4.364h-.618v-.509h-.053c-.039.069-.093.149-.166.238-.07.09-.168.168-.292.235s-.286.1-.482.1Zm.139-.543c.182,0,.336-.049.462-.145.126-.098.223-.234.288-.407.066-.174.1-.375.1-.605c0-.228-.033-.427-.097-.597-.066-.17-.162-.303-.287-.398-.126-.096-.281-.143-.466-.143-.191,0-.349.05-.477.149-.127.099-.223.235-.288.407-.064.172-.095.366-.095.582c0,.218.032.415.097.59s.161.313.288.415c.129.101.287.152.475.152Zm4.438-.878v-1.916h.636v3.273h-.623v-.567h-.034c-.075.175-.195.321-.36.437-.164.115-.368.173-.613.173-.208,0-.393-.047-.555-.139-.16-.094-.285-.232-.376-.415-.091-.184-.137-.41-.137-.68v-2.082h.634v2.005c0,.223.061.401.185.533.122.132.282.198.478.198.119,0,.237-.03.354-.089.118-.06.217-.15.294-.271.08-.121.119-.274.117-.46Zm2.121-3.007v4.364h-.634v-4.364h.634Zm2.254,4.43c-.32,0-.597-.069-.828-.207-.23-.139-.408-.334-.534-.586-.125-.252-.186-.549-.186-.888c0-.335.061-.631.186-.886.126-.256.301-.456.526-.599.226-.144.49-.215.792-.215.183,0,.361.03.533.091.173.061.328.157.465.288s.245.3.324.509c.079.208.118.46.118.757v.225h-2.586v-.477h1.966c0-.167-.034-.316-.102-.445-.067-.131-.163-.234-.286-.309-.121-.075-.264-.113-.428-.113-.178,0-.333.044-.466.132-.131.087-.233.2-.305.341-.071.139-.106.29-.106.454v.373c0,.218.038.404.115.558.077.153.186.27.324.351.138.08.3.12.485.12.119,0,.229-.017.328-.051.099-.036.184-.088.257-.158.071-.07.127-.156.165-.258l.599.109c-.047.177-.134.333-.258.466-.123.133-.278.236-.464.309-.185.073-.396.109-.634.109Zm-18.452,2.57v4.364h-.633v-4.364h.633Zm2.223,4.43c-.306,0-.571-.07-.799-.211s-.404-.337-.53-.59c-.125-.253-.188-.548-.188-.886c0-.34.063-.637.188-.891.126-.254.302-.452.53-.592.228-.141.493-.211.799-.211.305,0,.571.07.799.211.227.14.404.338.529.592.126.254.189.551.189.891c0,.338-.063.633-.189.886-.125.253-.302.449-.529.59-.228.141-.494.211-.799.211Zm.002-.535c.197,0,.362-.052.492-.157.129-.106.226-.245.287-.42.064-.175.096-.367.096-.578c0-.208-.032-.4-.096-.575-.061-.176-.158-.317-.287-.424-.13-.106-.295-.16-.492-.16-.199,0-.364.054-.496.16-.13.107-.226.248-.29.424-.063.175-.093.367-.093.575c0,.211.03.403.093.578.064.175.16.314.29.42.132.105.297.157.496.157Zm3.592.535c-.314,0-.585-.072-.813-.215-.226-.145-.4-.345-.521-.599s-.182-.545-.182-.873c0-.333.062-.626.186-.88.124-.256.3-.456.526-.599.226-.144.492-.215.798-.215.248,0,.468.046.662.138.193.091.349.219.468.384.119.164.191.357.214.577h-.617c-.034-.153-.111-.285-.232-.396s-.282-.166-.484-.166c-.177,0-.331.046-.464.14-.131.093-.234.225-.307.397-.074.17-.111.372-.111.605c0,.238.037.444.109.618.071.173.174.307.305.402.132.095.288.143.468.143.12,0,.229-.022.326-.066.099-.046.181-.11.248-.194.068-.084.115-.185.142-.303h.617c-.023.212-.092.401-.206.567s-.268.297-.459.392-.415.143-.673.143Zm2.963.006c-.207,0-.393-.038-.56-.115-.166-.078-.299-.191-.396-.338-.096-.148-.144-.329-.144-.544c0-.184.035-.336.105-.456.071-.119.166-.213.287-.283.12-.07.254-.122.402-.158.149-.035.3-.062.454-.081.195-.022.353-.041.474-.055.121-.016.21-.041.265-.075s.082-.089.082-.166v-.015c0-.186-.052-.33-.156-.432-.103-.103-.257-.154-.462-.154-.213,0-.381.048-.504.143-.122.094-.205.198-.252.313l-.596-.136c.071-.199.174-.359.31-.482.137-.123.294-.213.472-.268.178-.057.365-.085.562-.085.129,0,.267.015.412.047.148.029.285.085.412.166.128.081.234.196.315.347.083.149.124.343.124.582v2.173h-.619v-.447h-.026c-.041.082-.102.163-.184.242-.082.08-.188.146-.316.199-.128.052-.282.078-.461.078Zm.137-.511c.175,0,.325-.035.449-.104.126-.07.221-.161.286-.273.066-.114.1-.235.1-.364v-.422c-.023.022-.066.044-.131.064-.064.018-.137.034-.219.049-.081.012-.162.025-.24.036-.077.01-.142.018-.194.025-.123.016-.235.042-.338.079-.099.037-.179.09-.24.16-.06.068-.09.159-.09.273c0,.157.058.277.174.358.116.079.264.119.443.119Zm3.831-2.834v.512h-1.778v-.512h1.778Zm-1.3-.784h.633v3.096c0,.124.018.217.055.279.037.061.084.103.142.126.06.021.123.032.193.032.051,0,.095-.004.133-.011s.068-.013.09-.017l.114.526c-.037.015-.09.029-.157.043-.068.016-.152.024-.255.026-.166.002-.322-.027-.466-.09-.143-.062-.261-.159-.349-.29-.09-.13-.133-.294-.133-.492v-3.228ZM473,470.5v-3.273h.634v3.273h-.634Zm.32-3.778c-.11,0-.205-.037-.284-.11-.077-.076-.116-.165-.116-.269c0-.105.039-.195.116-.268.079-.076.174-.113.284-.113s.204.037.282.113c.078.073.118.163.118.268c0,.104-.04.193-.118.269-.078.073-.172.11-.282.11Zm2.536,3.844c-.304,0-.571-.07-.798-.211-.228-.141-.404-.337-.53-.59s-.188-.548-.188-.886c0-.34.062-.637.188-.891s.302-.452.53-.592c.227-.141.494-.211.798-.211.305,0,.572.07.8.211.226.14.403.338.529.592s.189.551.189.891c0,.338-.063.633-.189.886s-.303.449-.529.59c-.228.141-.495.211-.8.211Zm.002-.535c.198,0,.362-.052.492-.157.13-.106.226-.245.289-.42.062-.175.094-.367.094-.578c0-.208-.032-.4-.094-.575-.063-.176-.159-.317-.289-.424-.13-.106-.294-.16-.492-.16-.199,0-.364.054-.495.16-.13.107-.227.248-.29.424-.062.175-.094.367-.094.575c0,.211.032.403.094.578.063.175.16.314.29.42.131.105.296.157.495.157Zm2.856-1.474v1.943h-.633v-3.273h.608v.533h.04c.075-.173.192-.313.352-.418.161-.105.363-.157.608-.157.221,0,.416.047.582.14.167.093.297.23.388.414.092.183.138.409.138.679v2.082h-.633v-2.005c0-.237-.062-.423-.185-.556-.122-.135-.291-.202-.506-.202-.147,0-.278.031-.392.095-.113.064-.203.158-.269.282-.065.122-.098.27-.098.443Z" transform="translate(1175.036515 26.760388)"/><path id="screen4-s-path14" d="M453.925,60.0001v-4.3636h1.547c.337,0,.618.0618.839.1853.222.1236.387.2926.498.5071.11.2131.165.4532.165.7202c0,.2685-.056.5099-.167.7244-.111.2131-.277.3821-.501.5071-.221.1236-.5.1854-.836.1854h-1.064v-.5582h1.005c.213,0,.386-.037.519-.1108.133-.0753.23-.1776.292-.3068.063-.1293.093-.2763.093-.4411s-.03-.3111-.093-.4389c-.062-.1279-.16-.228-.294-.3004-.134-.0725-.309-.1087-.526-.1087h-.822v3.799h-.655Zm3.766,0v-3.2727h.612v.5199h.034c.06-.1762.164-.3147.313-.4155.151-.1023.322-.1534.513-.1534.04,0,.087.0014.141.0042s.097.0064.129.0107v.6094c-.026-.0071-.071-.015-.136-.0235-.065-.0099-.13-.0149-.195-.0149-.149,0-.284.032-.401.0959-.115.0625-.207.1498-.274.2621-.069.1108-.103.2372-.103.3792v1.9986h-.633Zm3.544.0661c-.306,0-.571-.0704-.799-.211s-.404-.3373-.53-.5902c-.125-.2528-.188-.5483-.188-.8863c0-.3395.063-.6364.188-.8907.126-.2542.302-.4517.53-.5923s.493-.2109.799-.2109c.305,0,.571.0703.799.2109.227.1406.404.3381.529.5923.126.2543.189.5512.189.8907c0,.338-.063.6335-.189.8863-.125.2529-.302.4496-.529.5902-.228.1406-.494.211-.799.211Zm.002-.5349c.198,0,.362-.0525.492-.1576.129-.1051.226-.245.287-.4198.064-.1747.096-.3672.096-.5774c0-.2088-.032-.4005-.096-.5753-.061-.1761-.158-.3174-.287-.424-.13-.1065-.294-.1598-.492-.1598-.199,0-.364.0533-.496.1598-.13.1066-.226.2479-.29.424-.063.1748-.093.3665-.093.5753c0,.2102.03.4027.093.5774.064.1748.16.3147.29.4198.132.1051.297.1576.496.1576Zm2.222,1.6961v-4.5h.619v.5305h.052c.037-.0682.091-.147.159-.2365.07-.0895.166-.1676.289-.2344.123-.0681.285-.1022.487-.1022.263,0,.497.0667.703.2002.207.1336.368.326.485.5775.12.2514.178.5539.178.9076s-.058.657-.176.9098c-.116.2514-.277.4453-.482.5817-.205.1349-.438.2024-.702.2024-.197,0-.359-.0334-.485-.1001-.124-.0668-.222-.1449-.293-.2344-.07-.0895-.124-.169-.163-.2386h-.037v1.7365h-.634Zm.621-2.8637c0,.2301.033.4319.099.6052.067.1732.163.3089.288.4069.127.0966.28.1449.463.1449.189,0,.347-.0504.474-.1513.127-.1023.223-.2407.289-.4155.065-.1747.099-.3714.099-.5902c0-.2159-.033-.4098-.097-.5816-.064-.1719-.161-.3076-.289-.407-.127-.0994-.286-.1491-.476-.1491-.184,0-.339.0475-.467.1427-.126.0952-.22.228-.286.3984-.065.1705-.097.3694-.097.5966Zm4.464,1.7025c-.321,0-.597-.0689-.829-.2067-.23-.1392-.408-.3345-.533-.586-.124-.2528-.187-.549-.187-.8885c0-.3352.063-.6306.187-.8863.125-.2557.3-.4553.525-.5987.226-.1435.49-.2152.793-.2152.183,0,.361.0305.534.0916.172.0611.327.1569.463.2876.137.1307.246.3004.324.5093.08.2073.12.4595.12.7563v.2259h-2.588v-.4773h1.966c0-.1676-.034-.316-.101-.4453-.068-.1307-.163-.2337-.287-.3089-.121-.0753-.263-.113-.427-.113-.178,0-.333.0441-.467.1321-.131.0867-.232.2003-.304.3409-.071.1393-.106.2905-.106.4539v.3729c0,.2187.037.4048.114.5582.078.1534.186.2706.324.3516.138.0795.301.1193.485.1193.121,0,.23-.0171.329-.0512.099-.0355.185-.088.256-.1576.072-.0696.127-.1556.165-.2578l.6.1086c-.048.1776-.134.3331-.259.4666-.122.1321-.277.2351-.463.309-.185.0724-.397.1087-.634.1087Zm2.1-.0661v-3.2727h.611v.5199h.034c.06-.1762.164-.3147.314-.4155.151-.1023.322-.1534.512-.1534.04,0,.087.0014.141.0042s.098.0064.129.0107v.6094c-.026-.0071-.071-.015-.135-.0235-.066-.0099-.131-.0149-.195-.0149-.15,0-.284.032-.401.0959-.116.0625-.208.1498-.275.2621-.068.1108-.102.2372-.102.3792v1.9986h-.633Zm4-3.2727v.5113h-1.777v-.5113h1.777Zm-1.301-.7841h.634v3.0959c0,.1235.019.2166.056.2791.036.0611.083.103.141.1257.059.0213.124.032.193.032.05,0,.095-.0036.133-.0107.039-.0071.069-.0128.089-.017l.115.5262c-.037.0142-.089.0284-.157.0426-.068.0157-.153.0242-.254.0256-.167.0029-.322-.027-.466-.0895s-.261-.1591-.35-.2897-.134-.2948-.134-.4922v-3.228Zm2.002,4.0568v-3.2727h.634v3.2727h-.634Zm.32-3.7777c-.11,0-.205-.0369-.284-.1108-.078-.0753-.116-.1648-.116-.2685c0-.1051.038-.1946.116-.2684.079-.0753.174-.113.284-.113.111,0,.204.0377.282.113.079.0738.118.1633.118.2684c0,.1037-.039.1932-.118.2685-.078.0739-.171.1108-.282.1108Zm2.569,3.8438c-.321,0-.597-.0689-.828-.2067-.231-.1392-.409-.3345-.534-.586-.125-.2528-.187-.549-.187-.8885c0-.3352.062-.6306.187-.8863s.3-.4553.525-.5987.49-.2152.792-.2152c.184,0,.362.0305.534.0916s.327.1569.464.2876.245.3004.325.5093c.078.2073.118.4595.118.7563v.2259h-2.587v-.4773h1.966c0-.1676-.034-.316-.102-.4453-.068-.1307-.163-.2337-.285-.3089-.123-.0753-.265-.113-.429-.113-.178,0-.333.0441-.466.1321-.132.0867-.233.2003-.305.3409-.07.1393-.106.2905-.106.4539v.3729c0,.2187.038.4048.114.5582.078.1534.186.2706.325.3516.138.0795.3.1193.485.1193.12,0,.229-.0171.328-.0512.099-.0355.185-.088.257-.1576s.127-.1556.165-.2578l.599.1086c-.048.1776-.134.3331-.258.4666-.123.1321-.278.2351-.464.309-.185.0724-.397.1087-.633.1087Zm4.537-2.5398l-.573.1023c-.024-.0739-.063-.1442-.115-.211s-.12-.1214-.208-.164c-.087-.0427-.197-.064-.328-.064-.18,0-.329.0405-.449.1215-.121.0795-.18.1825-.18.3089c0,.1094.039.1975.12.2642s.211.1215.39.1641l.517.1193c.299.0696.523.1769.669.3217.147.1449.221.3331.221.5647c0,.196-.057.3707-.169.5241-.113.152-.269.2713-.468.358-.2.0866-.431.13-.694.13-.365,0-.662-.0782-.892-.2344-.23-.1577-.371-.3814-.423-.6712l.612-.0937c.038.1605.117.2819.235.3643.118.081.273.1215.464.1215.208,0,.373-.0434.498-.13.124-.0881.187-.1953.187-.3217c0-.1023-.038-.1883-.115-.2579-.074-.0696-.19-.1221-.345-.1576l-.551-.1215c-.304-.0696-.529-.1804-.674-.3324-.144-.152-.216-.3444-.216-.5774c0-.1932.054-.3622.161-.5071.108-.1449.256-.2578.445-.3388.189-.0823.406-.1235.65-.1235.352,0,.629.0767.831.2301.202.152.336.3558.4.6115Z" transform="translate(1175.036515 26.760388)"/><path id="screen4-s-path15" d="M444.499,70.5h47.731" transform="translate(1175.036515 26.760388)" fill="none" stroke="#000"/><path id="screen4-s-path16" d="M444.499,286.5h50.714" transform="translate(1175.036515 26.760388)" fill="none" stroke="#000"/><path id="screen4-s-path17" d="M470.353,520L25.5,520v15h444.853v-15Z" transform="translate(1175.036515 26.760388)" fill="none" stroke="#000"/><rect id="screen4-s-rect1" width="25" height="631" rx="0" ry="0" transform="translate(1682.036515 27.421138)" fill="#334342"/><rect id="screen4-s-rect2" width="25" height="631" rx="0" ry="0" transform="matrix(1 0 0 0.993718 1175.036515 30.724609)" fill="#334342"/><rect id="screen4-s-rect3" width="25" height="532" rx="0" ry="0" transform="matrix(0-1 1 0 1175.036515 657.760388)" fill="#334342"/><rect id="screen4-s-rect4" width="24" height="532" rx="0" ry="0" transform="matrix(0-1 1 0 1175.036515 50.760388)" fill="#334342"/><path id="screen4-s-path18" d="M457.826,98v-3.6364h1.331c.258,0,.472.0426.641.1279.17.084.296.1982.38.3427.084.1432.126.3048.126.4847c0,.1515-.027.2793-.083.3835-.056.103-.13.1859-.224.2486-.092.0615-.194.1065-.305.1349v.0355c.121.006.238.045.353.1172.116.0711.212.1723.288.3037s.113.2912.113.4794c0,.1858-.043.3527-.131.5007-.086.1468-.22.2633-.401.3498-.181.0852-.413.1278-.695.1278h-1.393Zm.548-.4705h.792c.263,0,.451-.0509.565-.1527.113-.1018.17-.2291.17-.3818c0-.1148-.029-.2201-.087-.316s-.141-.1723-.248-.2291-.233-.0852-.38-.0852h-.812v1.1648Zm0-1.5927h.735c.123,0,.234-.0237.332-.071.1-.0474.179-.1137.237-.1989.059-.0864.088-.1882.088-.3054c0-.1503-.052-.2764-.158-.3782-.105-.1018-.267-.1527-.484-.1527h-.75v1.1062Zm3.829,2.1182c-.255,0-.478-.0586-.669-.1757-.191-.1172-.339-.2812-.444-.4919s-.158-.4569-.158-.7386c0-.2829.053-.5303.158-.7422s.253-.3764.444-.4936.414-.1758.669-.1758c.256,0,.479.0586.67.1758.19.1172.338.2817.444.4936.105.2119.158.4593.158.7422c0,.2817-.053.5279-.158.7386-.106.2107-.254.3747-.444.4919-.191.1171-.414.1757-.67.1757Zm.002-.4456c.166,0,.303-.0438.412-.1314s.189-.2042.241-.3498c.054-.1456.08-.306.08-.4812c0-.174-.026-.3338-.08-.4794-.052-.1468-.132-.2645-.241-.3533s-.246-.1332-.412-.1332c-.167,0-.305.0444-.415.1332-.109.0888-.19.2065-.244.3533-.052.1456-.078.3054-.078.4794c0,.1752.026.3356.078.4812.054.1456.135.2622.244.3498.11.0876.248.1314.415.1314ZM464.067,98v-2.7273h.531v2.7273h-.531Zm.268-3.1481c-.092,0-.171-.0308-.238-.0923-.065-.0627-.097-.1373-.097-.2237c0-.0876.032-.1622.097-.2238.067-.0627.146-.0941.238-.0941.093,0,.171.0314.236.0941.067.0616.1.1362.1.2238c0,.0864-.033.161-.1.2237-.065.0615-.143.0923-.236.0923Zm1.508-.4883v3.6364h-.531v-3.6364h.531Zm1.89,3.6914c-.269,0-.5-.0574-.694-.1722-.193-.116-.342-.2788-.448-.4883-.104-.2107-.156-.4575-.156-.7404c0-.2793.052-.5255.156-.7386.106-.2131.252-.3794.441-.499.189-.1195.41-.1793.664-.1793.153,0,.303.0255.447.0764s.274.1308.389.2397.205.2503.272.4243c.066.1728.099.383.099.6304v.1882h-2.168v-.3978h1.648c0-.1396-.029-.2633-.085-.3711-.057-.1089-.137-.1947-.24-.2574-.102-.0628-.222-.0941-.359-.0941-.149,0-.279.0367-.39.1101-.111.0722-.196.1669-.256.2841-.059.116-.089.242-.089.3782v.3107c0,.1823.032.3373.096.4652.065.1278.156.2255.272.2929.116.0663.251.0995.406.0995.101,0,.193-.0142.275-.0426.083-.0296.155-.0734.215-.1314.061-.058.107-.1296.139-.2149l.502.0906c-.04.1479-.112.2776-.216.3888-.103.1101-.233.1959-.389.2575-.155.0604-.332.0905-.531.0905ZM469.492,98v-2.7273h.513v.4333h.029c.049-.1468.137-.2622.262-.3463.127-.0852.27-.1278.43-.1278.033,0,.072.0012.117.0035.046.0024.082.0054.109.0089v.5078c-.022-.0059-.06-.0124-.114-.0195-.055-.0083-.109-.0124-.163-.0124-.126,0-.238.0266-.336.0799-.097.0521-.174.1249-.231.2184-.057.0923-.085.1976-.085.316v1.6655h-.531Zm6.22-3.6364v3.6364h-.504l-1.849-2.6669h-.034v2.6669h-.548v-3.6364h.508l1.85,2.6705h.034v-2.6705h.543Zm1.906,3.6914c-.255,0-.478-.0586-.669-.1757-.191-.1172-.339-.2812-.444-.4919s-.158-.4569-.158-.7386c0-.2829.053-.5303.158-.7422s.253-.3764.444-.4936.414-.1758.669-.1758c.256,0,.479.0586.67.1758.19.1172.338.2817.444.4936.105.2119.158.4593.158.7422c0,.2817-.053.5279-.158.7386-.106.2107-.254.3747-.444.4919-.191.1171-.414.1757-.67.1757Zm.002-.4456c.166,0,.303-.0438.412-.1314s.189-.2042.242-.3498.079-.306.079-.4812c0-.174-.026-.3338-.079-.4794-.053-.1468-.133-.2645-.242-.3533s-.246-.1332-.412-.1332c-.167,0-.305.0444-.415.1332-.109.0888-.19.2065-.244.3533-.052.1456-.078.3054-.078.4794c0,.1752.026.3356.078.4812.054.1456.135.2622.244.3498.11.0876.248.1314.415.1314Zm4.558-3.2458v3.6364h-.55v-3.0859h-.022l-.87.5681v-.5255l.908-.5931h.534Z" transform="translate(1175.036515 26.760388)"/><path id="screen4-s-path19" d="M457.826,140v-3.636h1.331c.258,0,.472.042.641.127.17.085.296.199.38.343.084.143.126.305.126.485c0,.151-.027.279-.083.383-.056.103-.13.186-.224.249-.092.062-.194.107-.305.135v.035c.121.006.238.045.353.118.116.071.212.172.288.303.076.132.113.291.113.48c0,.186-.043.352-.131.5-.086.147-.22.264-.401.35-.181.085-.413.128-.695.128h-1.393Zm.548-.471h.792c.263,0,.451-.05.565-.152.113-.102.17-.229.17-.382c0-.115-.029-.22-.087-.316s-.141-.172-.248-.229-.233-.085-.38-.085h-.812v1.164Zm0-1.592h.735c.123,0,.234-.024.332-.071.1-.048.179-.114.237-.199.059-.087.088-.188.088-.305c0-.151-.052-.277-.158-.379-.105-.101-.267-.152-.484-.152h-.75v1.106Zm3.829,2.118c-.255,0-.478-.059-.669-.176s-.339-.281-.444-.492c-.105-.21-.158-.456-.158-.738c0-.283.053-.531.158-.742.105-.212.253-.377.444-.494s.414-.176.669-.176c.256,0,.479.059.67.176.19.117.338.282.444.494.105.211.158.459.158.742c0,.282-.053.528-.158.738-.106.211-.254.375-.444.492-.191.117-.414.176-.67.176Zm.002-.446c.166,0,.303-.043.412-.131s.189-.204.241-.35c.054-.145.08-.306.08-.481c0-.174-.026-.334-.08-.479-.052-.147-.132-.265-.241-.354s-.246-.133-.412-.133c-.167,0-.305.044-.415.133-.109.089-.19.207-.244.354-.052.145-.078.305-.078.479c0,.175.026.336.078.481.054.146.135.262.244.35.11.088.248.131.415.131Zm1.862.391v-2.727h.531v2.727h-.531Zm.268-3.148c-.092,0-.171-.031-.238-.092-.065-.063-.097-.138-.097-.224c0-.088.032-.162.097-.224.067-.063.146-.094.238-.094.093,0,.171.031.236.094.067.062.1.136.1.224c0,.086-.033.161-.1.224-.065.061-.143.092-.236.092Zm1.508-.488v3.636h-.531v-3.636h.531Zm1.89,3.691c-.269,0-.5-.057-.694-.172-.193-.116-.342-.279-.448-.488-.104-.211-.156-.458-.156-.741c0-.279.052-.525.156-.739.106-.213.252-.379.441-.498.189-.12.41-.18.664-.18.153,0,.303.026.447.077.144.05.274.13.389.239s.205.251.272.425c.066.172.099.383.099.63v.188h-2.168v-.398h1.648c0-.139-.029-.263-.085-.371-.057-.109-.137-.194-.24-.257-.102-.063-.222-.094-.359-.094-.149,0-.279.036-.39.11-.111.072-.196.167-.256.284-.059.116-.089.242-.089.378v.311c0,.182.032.337.096.465.065.128.156.226.272.293.116.066.251.099.406.099.101,0,.193-.014.275-.042.083-.03.155-.074.215-.132.061-.058.107-.129.139-.214l.502.09c-.04.148-.112.278-.216.389-.103.11-.233.196-.389.257-.155.061-.332.091-.531.091Zm1.759-.055v-2.727h.513v.433h.029c.049-.147.137-.262.262-.346.127-.085.27-.128.43-.128.033,0,.072.001.117.003.046.003.082.006.109.009v.508c-.022-.006-.06-.012-.114-.019-.055-.009-.109-.013-.163-.013-.126,0-.238.027-.336.08-.097.052-.174.125-.231.218s-.085.198-.085.317v1.665h-.531Zm6.22-3.636v3.636h-.504l-1.849-2.667h-.034v2.667h-.548v-3.636h.508l1.85,2.67h.034v-2.67h.543Zm1.906,3.691c-.255,0-.478-.059-.669-.176s-.339-.281-.444-.492c-.105-.21-.158-.456-.158-.738c0-.283.053-.531.158-.742.105-.212.253-.377.444-.494s.414-.176.669-.176c.256,0,.479.059.67.176.19.117.338.282.444.494.105.211.158.459.158.742c0,.282-.053.528-.158.738-.106.211-.254.375-.444.492-.191.117-.414.176-.67.176Zm.002-.446c.166,0,.303-.043.412-.131s.189-.204.242-.35c.053-.145.079-.306.079-.481c0-.174-.026-.334-.079-.479-.053-.147-.133-.265-.242-.354s-.246-.133-.412-.133c-.167,0-.305.044-.415.133-.109.089-.19.207-.244.354-.052.145-.078.305-.078.479c0,.175.026.336.078.481.054.146.135.262.244.35.11.088.248.131.415.131Zm3.178.391v-.398l1.231-1.275c.131-.138.24-.259.325-.364.086-.105.151-.205.193-.3.043-.094.064-.195.064-.301c0-.121-.028-.225-.085-.313-.057-.089-.134-.157-.233-.204-.098-.049-.209-.073-.332-.073-.13,0-.243.027-.341.08-.097.053-.171.128-.223.225s-.078.211-.078.341h-.524c0-.221.051-.415.153-.58.101-.166.241-.294.419-.386.177-.092.379-.138.605-.138.229,0,.43.045.604.137.175.09.312.213.41.369.098.155.147.33.147.526c0,.134-.025.266-.076.395-.05.13-.137.273-.261.432-.124.157-.297.349-.519.573l-.722.757v.026h1.637v.471h-2.394Z" transform="translate(1175.036515 26.760388)"/><path id="screen4-s-path20" d="M459.22,217.836v-.472h2.814v.472h-1.134v3.164h-.547v-3.164h-1.133ZM462.656,221v-3.636h1.332c.258,0,.472.042.641.127s.296.199.38.343c.084.143.126.305.126.485c0,.151-.028.279-.083.383-.056.103-.131.186-.224.249-.092.062-.194.107-.306.135v.035c.121.006.239.045.354.118.116.071.212.172.287.303.076.132.114.291.114.48c0,.186-.044.352-.131.5-.087.147-.22.264-.402.35-.181.085-.412.128-.694.128h-1.394Zm.549-.471h.792c.263,0,.451-.05.565-.152.113-.102.17-.229.17-.382c0-.115-.029-.22-.087-.316s-.141-.172-.249-.229c-.106-.057-.233-.085-.38-.085h-.811v1.164Zm0-1.592h.735c.123,0,.234-.024.332-.071.1-.048.178-.114.236-.199.059-.087.089-.188.089-.305c0-.151-.053-.277-.158-.379-.105-.101-.267-.152-.485-.152h-.749v1.106Zm5.061-1.573h.551v2.391c0,.255-.06.48-.18.677-.119.195-.287.349-.504.461s-.47.167-.762.167c-.29,0-.543-.055-.76-.167-.216-.112-.384-.266-.504-.461-.119-.197-.179-.422-.179-.677v-2.391h.548v2.347c0,.164.037.311.109.439.073.127.177.228.311.301.133.073.292.109.475.109.185,0,.344-.036.478-.109.135-.073.238-.174.309-.301.072-.128.108-.275.108-.439v-2.347Zm5.607,0v3.636h-.505l-1.848-2.667h-.034v2.667h-.548v-3.636h.507l1.851,2.67h.033v-2.67h.544Zm1.906,3.691c-.256,0-.479-.059-.669-.176-.191-.117-.339-.281-.444-.492-.106-.21-.158-.456-.158-.738c0-.283.052-.531.158-.742.105-.212.253-.377.444-.494.19-.117.413-.176.669-.176s.479.059.67.176c.19.117.338.282.443.494.106.211.158.459.158.742c0,.282-.052.528-.158.738-.105.211-.253.375-.443.492-.191.117-.414.176-.67.176Zm.002-.446c.166,0,.303-.043.412-.131s.189-.204.241-.35c.054-.145.08-.306.08-.481c0-.174-.026-.334-.08-.479-.052-.147-.132-.265-.241-.354s-.246-.133-.412-.133c-.167,0-.306.044-.416.133-.108.089-.19.207-.243.354-.052.145-.078.305-.078.479c0,.175.026.336.078.481.053.146.135.262.243.35.11.088.249.131.416.131Zm4.558-3.245v3.636h-.551v-3.086h-.021l-.87.568v-.525l.907-.593h.535Z" transform="translate(1175.036515 26.760388)"/><path id="screen4-s-path21" d="M458.22,258.836v-.472h2.814v.472h-1.134v3.164h-.547v-3.164h-1.133ZM461.656,262v-3.636h1.332c.258,0,.472.042.641.127s.296.199.38.343c.084.143.126.305.126.485c0,.151-.028.279-.083.383-.056.103-.131.186-.224.249-.092.062-.194.107-.306.135v.035c.121.006.239.045.354.118.116.071.212.172.287.303.076.132.114.291.114.48c0,.186-.044.352-.131.5-.087.147-.22.264-.402.35-.181.085-.412.128-.694.128h-1.394Zm.549-.471h.792c.263,0,.451-.05.565-.152.113-.102.17-.229.17-.382c0-.115-.029-.22-.087-.316s-.141-.172-.249-.229c-.106-.057-.233-.085-.38-.085h-.811v1.164Zm0-1.592h.735c.123,0,.234-.024.332-.071.1-.048.178-.114.236-.199.059-.087.089-.188.089-.305c0-.151-.053-.277-.158-.379-.105-.101-.267-.152-.485-.152h-.749v1.106Zm5.061-1.573h.551v2.391c0,.255-.06.48-.18.677-.119.195-.287.349-.504.461s-.47.167-.762.167c-.29,0-.543-.055-.76-.167-.216-.112-.384-.266-.504-.461-.119-.197-.179-.422-.179-.677v-2.391h.548v2.347c0,.164.037.311.109.439.073.127.177.228.311.301.133.073.292.109.475.109.185,0,.344-.036.478-.109.135-.073.238-.174.309-.301.072-.128.108-.275.108-.439v-2.347Zm5.607,0v3.636h-.505l-1.848-2.667h-.034v2.667h-.548v-3.636h.507l1.851,2.67h.033v-2.67h.544Zm1.906,3.691c-.256,0-.479-.059-.669-.176-.191-.117-.339-.281-.444-.492-.106-.21-.158-.456-.158-.738c0-.283.052-.531.158-.742.105-.212.253-.377.444-.494.19-.117.413-.176.669-.176s.479.059.67.176c.19.117.338.282.443.494.106.211.158.459.158.742c0,.282-.052.528-.158.738-.105.211-.253.375-.443.492-.191.117-.414.176-.67.176Zm.002-.446c.166,0,.303-.043.412-.131s.189-.204.241-.35c.054-.145.08-.306.08-.481c0-.174-.026-.334-.08-.479-.052-.147-.132-.265-.241-.354s-.246-.133-.412-.133c-.167,0-.306.044-.416.133-.108.089-.19.207-.243.354-.052.145-.078.305-.078.479c0,.175.026.336.078.481.053.146.135.262.243.35.11.088.249.131.416.131Zm4.501.391v-.398l1.231-1.275c.131-.138.24-.259.325-.364.086-.105.151-.205.193-.3.043-.094.064-.195.064-.301c0-.121-.028-.225-.085-.313-.057-.089-.134-.157-.233-.204-.098-.049-.208-.073-.332-.073-.13,0-.243.027-.341.08-.097.053-.171.128-.223.225s-.078.211-.078.341h-.524c0-.221.051-.415.153-.58.101-.166.241-.294.419-.386.177-.092.379-.138.605-.138.229,0,.43.045.604.137.175.09.312.213.41.369.098.155.147.33.147.526c0,.134-.025.266-.076.395-.05.13-.137.273-.261.432-.124.157-.297.349-.519.573l-.722.757v.026h1.637v.471h-2.394Z" transform="translate(1175.036515 26.760388)"/><path id="screen4-s-path22" d="M25.5,535.5h23v14h-23v-14Z" transform="translate(1175.036515 26.760388)" fill="none" stroke="#000"/><path id="screen4-s-path23" d="M48.9822,535.5h22.6169v14h-22.6169v-14Z" transform="translate(1175.036515 26.760388)" fill="none" stroke="#000"/><path id="screen4-s-path24" d="M25.5,549.5h23v14h-23v-14Z" transform="translate(1175.036515 26.760388)" fill="none" stroke="#000"/><path id="screen4-s-path25" d="M48.9822,549.5h22.6169v14h-22.6169v-14Z" transform="translate(1175.036515 26.760388)" fill="#fff" stroke="#000"/><path id="screen4-s-path26" d="M25.5,563.5h23v14h-23v-14Z" transform="translate(1175.036515 26.760388)" fill="none" stroke="#000"/><path id="screen4-s-path27" d="M48.9822,563.5h22.6169v14h-22.6169v-14Z" transform="translate(1175.036515 26.760388)" fill="#fff" stroke="#000"/><path id="screen4-s-path28" d="M25.5,577.5h23v14h-23v-14Z" transform="translate(1175.036515 26.760388)" fill="none" stroke="#000"/><path id="screen4-s-path29" d="M48.9822,577.5h22.6169v14h-22.6169v-14Z" transform="translate(1175.036515 26.760388)" fill="#fff" stroke="#000"/><path id="screen4-s-path30" d="M25.5,591.5h23v14h-23v-14Z" transform="translate(1175.036515 26.760388)" fill="none" stroke="#000"/><path id="screen4-s-path31" d="M48.9822,591.5h22.6169v14h-22.6169v-14Z" transform="translate(1175.036515 26.760388)" fill="#fff" stroke="#000"/><path id="screen4-s-path32" d="M71.6047,535.5h36.5383v14h-36.5383v-14Z" transform="translate(1175.036515 26.760388)" fill="none" stroke="#000"/><path id="screen4-s-path33" d="M108.149,535.5h36.538v14h-36.538v-14Z" transform="translate(1175.036515 26.760388)" fill="none" stroke="#000"/><path id="screen4-s-path34" d="M71.6047,549.5h36.5383v14h-36.5383v-14Z" transform="translate(1175.036515 26.760388)" fill="#fff" stroke="#000"/><path id="screen4-s-path35" d="M108.149,549.5h36.538v14h-36.538v-14Z" transform="translate(1175.036515 26.760388)" fill="#fff" stroke="#000"/><path id="screen4-s-path36" d="M71.6047,563.5h36.5383v14h-36.5383v-14Z" transform="translate(1175.036515 26.760388)" fill="#fff" stroke="#000"/><path id="screen4-s-path37" d="M108.149,563.5h36.538v14h-36.538v-14Z" transform="translate(1175.036515 26.760388)" fill="#fff" stroke="#000"/><path id="screen4-s-path38" d="M71.6047,577.5h36.5383v14h-36.5383v-14Z" transform="translate(1175.036515 26.760388)" fill="#fff" stroke="#000"/><path id="screen4-s-path39" d="M108.149,577.5h36.538v14h-36.538v-14Z" transform="translate(1175.036515 26.760388)" fill="#fff" stroke="#000"/><path id="screen4-s-path40" d="M71.6047,591.5h36.5383v14h-36.5383v-14Z" transform="translate(1175.036515 26.760388)" fill="#fff" stroke="#000"/><path id="screen4-s-path41" d="M108.149,591.5h36.538v14h-36.538v-14Z" transform="translate(1175.036515 26.760388)" fill="#fff" stroke="#000"/><path id="screen4-s-path42" d="M403.235,535.5h36.538v14h-36.538v-14Z" transform="translate(1175.036515 26.760388)" fill="none" stroke="#000"/><path id="screen4-s-path43" d="M403.235,549.5h36.538v14h-36.538v-14Z" transform="translate(1175.036515 26.760388)" fill="#fff" stroke="#000"/><path id="screen4-s-path44" d="M403.235,563.5h36.538v14h-36.538v-14Z" transform="translate(1175.036515 26.760388)" fill="#fff" stroke="#000"/><path id="screen4-s-path45" d="M403.235,577.5h36.538v14h-36.538v-14Z" transform="translate(1175.036515 26.760388)" fill="#fff" stroke="#000"/><path id="screen4-s-path46" d="M403.235,591.5h36.538v14h-36.538v-14Z" transform="translate(1175.036515 26.760388)" fill="#fff" stroke="#000"/><path id="screen4-s-path47" d="M439.779,535.5h36.538v14h-36.538v-14Z" transform="translate(1175.036515 26.760388)" fill="none" stroke="#000"/><path id="screen4-s-path48" d="M439.779,549.5h36.538v14h-36.538v-14Z" transform="translate(1175.036515 26.760388)" fill="#fff" stroke="#000"/><path id="screen4-s-path49" d="M439.779,563.5h36.538v14h-36.538v-14Z" transform="translate(1175.036515 26.760388)" fill="#fff" stroke="#000"/><path id="screen4-s-path50" d="M439.779,577.5h36.538v14h-36.538v-14Z" transform="translate(1175.036515 26.760388)" fill="#fff" stroke="#000"/><path id="screen4-s-path51" d="M439.779,591.5h36.538v14h-36.538v-14Z" transform="translate(1175.036515 26.760388)" fill="#fff" stroke="#000"/><path id="screen4-s-path52" d="M476.5,535.5h30v14h-30v-14Z" transform="translate(1175.036515 26.760388)" fill="none" stroke="#000"/><path id="screen4-s-path53" d="M476.5,549.5h30v14h-30v-14Z" transform="translate(1175.036515 26.760388)" fill="#fff" stroke="#000"/><path id="screen4-s-path54" d="M476.5,563.5h30v14h-30v-14Z" transform="translate(1175.036515 26.760388)" fill="#fff" stroke="#000"/><path id="screen4-s-path55" d="M476.5,577.5h30v14h-30v-14Z" transform="translate(1175.036515 26.760388)" fill="#fff" stroke="#000"/><path id="screen4-s-path56" d="M476.5,591.5h30v14h-30v-14Z" transform="translate(1175.036515 26.760388)" fill="#fff" stroke="#000"/><path id="screen4-s-path57" d="M144.444,535.5h258.745v14h-258.745v-14Z" transform="translate(1175.036515 26.760388)" fill="none" stroke="#000"/><path id="screen4-s-path58" d="M144.444,549.5h258.745v14h-258.745v-14Z" transform="translate(1175.036515 26.760388)" fill="#fff" stroke="#000"/><path id="screen4-s-path59" d="M144.444,563.5h258.745v14h-258.745v-14Z" transform="translate(1175.036515 26.760388)" fill="#fff" stroke="#000"/><path id="screen4-s-path60" d="M144.444,577.5h258.745v14h-258.745v-14Z" transform="translate(1175.036515 26.760388)" fill="#fff" stroke="#000"/><path id="screen4-s-path61" d="M144.444,591.5h258.745v14h-258.745v-14Z" transform="translate(1175.036515 26.760388)" fill="#fff" stroke="#000"/><path id="screen4-s-path62" d="M235.017,545v-5.309h3.328v.689h-2.527v1.618h2.354v.687h-2.354v1.625h2.559v.69h-3.36Zm7.743-3.982L241.316,545h-.83l-1.446-3.982h.832l1.008,3.064h.042l1.005-3.064h.833Zm2.309,4.062c-.393,0-.73-.083-1.014-.251-.282-.169-.499-.407-.653-.713-.152-.308-.228-.668-.228-1.081c0-.408.076-.767.228-1.078.154-.311.368-.554.643-.729.276-.174.599-.262.969-.262.225,0,.443.037.654.112.21.074.4.191.567.35.168.159.3.365.397.619.097.253.145.559.145.921v.274h-3.165v-.58h2.405c0-.204-.041-.385-.124-.542-.083-.159-.2-.284-.35-.376-.149-.092-.323-.137-.524-.137-.217,0-.407.053-.57.16-.161.106-.285.244-.373.415-.087.17-.13.354-.13.552v.454c0,.266.047.493.14.679.095.187.227.329.397.428.169.097.367.145.593.145.147,0,.281-.021.402-.062.121-.043.226-.107.314-.192s.155-.189.202-.314l.734.133c-.059.216-.164.405-.316.567-.151.161-.34.286-.568.376-.227.088-.485.132-.775.132Zm3.343-2.444v2.364h-.775v-3.982h.744v.648h.049c.092-.211.235-.38.431-.508.197-.128.445-.192.744-.192.271,0,.509.057.713.171.203.113.362.28.474.503s.168.499.168.827v2.533h-.775v-2.439c0-.289-.075-.515-.225-.677-.151-.164-.357-.246-.62-.246-.18,0-.339.039-.479.116-.139.078-.248.192-.33.343-.079.148-.119.328-.119.539Zm5.447-1.618v.622h-2.175v-.622h2.175Zm-1.592-.954h.775v3.767c0,.15.023.263.067.339.045.075.103.126.174.153.073.026.151.039.236.039.062,0,.117-.004.163-.013.047-.008.083-.015.109-.02l.14.64c-.045.017-.109.034-.192.052-.083.019-.186.029-.311.031-.204.003-.394-.033-.57-.109s-.319-.194-.428-.353-.163-.358-.163-.598v-3.928Zm5.872,5.014c-.322,0-.609-.082-.861-.247-.251-.165-.448-.401-.591-.707-.142-.308-.213-.677-.213-1.107s.072-.799.215-1.104c.146-.306.344-.541.597-.703.252-.162.538-.244.858-.244.247,0,.446.042.596.125.152.081.27.176.353.285.084.109.15.205.197.288h.046v-1.973h.775v5.309h-.757v-.62h-.064c-.047.085-.115.182-.203.291-.086.109-.205.204-.357.285s-.349.122-.591.122Zm.171-.661c.223,0,.411-.059.565-.177.155-.119.273-.284.352-.495.082-.211.122-.456.122-.736c0-.276-.04-.518-.119-.726-.08-.207-.196-.369-.35-.485-.154-.115-.344-.173-.57-.173-.234,0-.428.06-.584.181-.155.121-.273.286-.352.495-.078.209-.117.445-.117.708c0,.266.04.506.119.718.08.213.197.381.353.506.157.122.351.184.581.184Zm4.624.663c-.393,0-.73-.083-1.014-.251-.282-.169-.499-.407-.653-.713-.152-.308-.228-.668-.228-1.081c0-.408.076-.767.228-1.078.154-.311.368-.554.643-.729.276-.174.599-.262.969-.262.225,0,.443.037.654.112.21.074.4.191.567.35.168.159.3.365.397.619.097.253.145.559.145.921v.274h-3.165v-.58h2.406c0-.204-.042-.385-.125-.542-.083-.159-.2-.284-.35-.376-.149-.092-.323-.137-.524-.137-.217,0-.407.053-.57.16-.161.106-.285.244-.373.415-.087.17-.13.354-.13.552v.454c0,.266.047.493.14.679.095.187.227.329.397.428.169.097.367.145.594.145.146,0,.28-.021.401-.062.121-.043.226-.107.314-.192s.156-.189.202-.314l.734.133c-.059.216-.164.405-.316.567-.151.161-.34.286-.568.376-.227.088-.485.132-.775.132Zm5.552-3.09l-.703.125c-.029-.09-.076-.176-.14-.257-.062-.081-.147-.148-.254-.2-.107-.051-.241-.077-.402-.077-.219,0-.402.049-.549.147-.147.097-.22.223-.22.376c0,.133.049.241.147.322.099.081.258.148.477.199l.633.146c.366.084.639.215.819.391s.27.405.27.687c0,.238-.07.451-.208.638-.136.185-.327.33-.573.435-.243.106-.526.158-.847.158-.446,0-.81-.095-1.092-.285-.281-.192-.454-.464-.518-.816l.749-.114c.047.195.143.343.288.443.145.098.334.148.567.148.255,0,.458-.053.61-.159.152-.107.228-.237.228-.391c0-.124-.047-.229-.14-.314-.092-.084-.233-.148-.423-.191l-.674-.148c-.371-.085-.646-.22-.824-.405-.176-.185-.265-.419-.265-.702c0-.235.066-.441.197-.617.132-.176.313-.314.545-.412.231-.101.497-.151.796-.151.43,0,.769.094,1.016.28.247.185.41.433.49.744Zm2.607,3.09c-.385,0-.717-.087-.995-.261-.277-.177-.489-.42-.638-.729s-.223-.664-.223-1.063c0-.404.076-.761.228-1.07.152-.311.366-.554.643-.729.277-.174.602-.262.977-.262.303,0,.572.057.809.169.237.11.428.266.573.466.147.201.234.435.262.703h-.755c-.041-.187-.136-.347-.285-.482-.147-.135-.344-.202-.591-.202-.216,0-.405.057-.567.171-.161.112-.286.273-.376.482-.09.207-.135.453-.135.736c0,.29.044.541.132.752s.213.374.373.49c.163.116.354.174.573.174.147,0,.28-.027.399-.081.121-.055.223-.134.304-.236.083-.102.141-.224.173-.368h.755c-.028.258-.112.487-.252.69-.14.202-.327.361-.562.477-.233.115-.507.173-.822.173Zm2.465-.08v-3.982h.749v.633h.041c.073-.215.201-.383.384-.506.185-.124.394-.186.627-.186.049,0,.106.001.172.005.067.003.12.008.158.013v.741c-.031-.009-.087-.018-.166-.028-.08-.013-.159-.019-.239-.019-.183,0-.346.039-.49.117-.141.076-.254.182-.337.319-.083.135-.124.289-.124.461v2.432h-.775Zm2.801,0v-3.982h.776v3.982h-.776Zm.392-4.596c-.135,0-.251-.045-.348-.135-.095-.092-.142-.2-.142-.327c0-.128.047-.236.142-.326.097-.092.213-.138.348-.138s.25.046.345.138c.096.09.145.198.145.326c0,.127-.049.235-.145.327-.095.09-.21.135-.345.135Zm1.426,6.089v-5.475h.757v.646h.065c.045-.083.11-.179.194-.288.085-.109.203-.204.353-.285.15-.083.349-.125.596-.125.322,0,.609.082.861.244s.45.397.594.703c.145.305.217.674.217,1.104s-.071.799-.215,1.107c-.143.306-.34.542-.591.707-.25.165-.537.247-.858.247-.242,0-.44-.041-.594-.122-.152-.081-.271-.176-.357-.285-.087-.109-.153-.206-.2-.291h-.047v2.113h-.775Zm.76-3.484c0,.28.04.525.122.736.081.211.198.376.352.495.154.118.342.177.565.177.232,0,.425-.062.581-.184.156-.125.273-.293.353-.506.081-.212.121-.452.121-.718c0-.263-.039-.499-.119-.708-.078-.209-.195-.374-.352-.495-.156-.121-.35-.181-.584-.181-.224,0-.414.058-.57.173-.154.116-.27.278-.35.485-.079.208-.119.45-.119.726Zm5.604-1.991v.622h-2.175v-.622h2.175Zm-1.591-.954h.775v3.767c0,.15.022.263.067.339.045.075.103.126.174.153.073.026.151.039.236.039.062,0,.117-.004.163-.013.047-.008.083-.015.109-.02l.14.64c-.045.017-.109.034-.192.052-.083.019-.186.029-.311.031-.204.003-.394-.033-.57-.109s-.319-.194-.428-.353-.163-.358-.163-.598v-3.928ZM285.399,545v-3.982h.775v3.982h-.775Zm.391-4.596c-.135,0-.25-.045-.347-.135-.095-.092-.143-.2-.143-.327c0-.128.048-.236.143-.326.097-.092.212-.138.347-.138s.25.046.345.138c.097.09.145.198.145.326c0,.127-.048.235-.145.327-.095.09-.21.135-.345.135Zm3.104,4.676c-.373,0-.699-.085-.977-.256-.279-.171-.495-.411-.648-.718-.154-.308-.231-.667-.231-1.079c0-.413.077-.774.231-1.083.153-.31.369-.55.648-.721.278-.171.604-.257.977-.257s.699.086.977.257c.279.171.495.411.648.721.154.309.231.67.231,1.083c0,.412-.077.771-.231,1.079-.153.307-.369.547-.648.718-.278.171-.604.256-.977.256Zm.003-.65c.242,0,.442-.064.601-.192s.276-.298.353-.511c.077-.212.116-.447.116-.702c0-.254-.039-.488-.116-.7-.077-.215-.194-.387-.353-.516-.159-.13-.359-.195-.601-.195-.244,0-.446.065-.607.195-.159.129-.277.301-.355.516-.076.212-.114.446-.114.7c0,.255.038.49.114.702.078.213.196.383.355.511.161.128.363.192.607.192Zm3.493-1.794v2.364h-.775v-3.982h.744v.648h.05c.091-.211.235-.38.43-.508.197-.128.445-.192.744-.192.271,0,.509.057.713.171.204.113.362.28.474.503s.169.499.169.827v2.533h-.775v-2.439c0-.289-.076-.515-.226-.677-.15-.164-.357-.246-.62-.246-.179,0-.339.039-.479.116-.138.078-.248.192-.329.343-.08.148-.12.328-.12.539Z" transform="translate(1175.036515 26.760388)"/><path id="screen4-s-path63" d="M408.505,539.691l1.478,4.324h.059l1.478-4.324h.866L410.475,545h-.925l-1.911-5.309h.866Zm6.087-.249l-1.711,6.356h-.692l1.711-6.356h.692Zm2.553,1.576v.622h-2.25v-.622h2.25ZM415.512,545v-4.443c0-.249.055-.456.164-.62.109-.166.253-.289.433-.371.179-.082.375-.124.585-.124.156,0,.289.013.4.039.11.024.192.047.246.067l-.182.628c-.036-.011-.083-.023-.14-.037-.057-.015-.126-.023-.207-.023-.188,0-.323.047-.404.14-.08.093-.12.228-.12.404v4.34h-.775Zm2.433,0v-3.982h.749v.633h.042c.072-.215.2-.383.384-.506.184-.124.394-.186.627-.186.048,0,.105.001.171.005.067.003.12.008.158.013v.741c-.031-.009-.086-.018-.166-.028-.079-.013-.159-.019-.238-.019-.183,0-.347.039-.49.117-.142.076-.254.182-.337.319-.083.135-.125.289-.125.461v2.432h-.775Zm3.925.088c-.252,0-.48-.047-.684-.14-.204-.095-.366-.232-.485-.412-.118-.18-.176-.4-.176-.661c0-.225.043-.41.129-.555.087-.145.203-.26.35-.345.147-.084.311-.148.493-.191.181-.044.366-.076.554-.099.239-.028.433-.05.581-.067.149-.019.257-.05.324-.091.068-.042.101-.109.101-.202v-.018c0-.227-.064-.402-.192-.527-.126-.124-.314-.186-.565-.186-.261,0-.466.058-.617.173-.148.114-.251.241-.308.381l-.729-.165c.087-.242.213-.438.379-.586.168-.151.36-.26.578-.327.218-.069.447-.104.687-.104.159,0,.327.019.505.057.18.037.348.104.503.203.158.098.286.239.387.422.1.182.15.417.15.708v2.644h-.757v-.544h-.031c-.05.1-.125.198-.226.295-.1.097-.229.177-.386.241s-.346.096-.565.096Zm.169-.622c.214,0,.397-.042.549-.127.154-.085.271-.195.35-.332.081-.138.122-.286.122-.443v-.513c-.028.027-.081.053-.161.077-.078.023-.167.043-.267.06-.1.016-.198.03-.293.044-.095.012-.174.022-.238.031-.151.019-.288.051-.412.096-.123.045-.222.11-.296.194-.073.083-.109.194-.109.332c0,.192.071.337.213.436.141.097.322.145.542.145Zm2.828.534v-3.982h.744v.648h.05c.083-.219.218-.39.407-.513.188-.124.414-.187.676-.187.266,0,.489.063.669.187.182.124.315.296.402.513h.041c.095-.212.247-.382.454-.508.207-.128.455-.192.741-.192.362,0,.656.114.884.34.23.226.345.568.345,1.024v2.67h-.775v-2.598c0-.269-.073-.464-.22-.585s-.323-.182-.527-.182c-.252,0-.448.078-.588.233-.14.154-.21.352-.21.594v2.538h-.772v-2.647c0-.216-.068-.389-.203-.521-.134-.131-.31-.197-.526-.197-.147,0-.282.039-.407.117-.123.076-.222.182-.298.319-.074.136-.112.294-.112.474v2.455h-.775Zm8.168.08c-.392,0-.73-.083-1.013-.251-.282-.169-.5-.407-.654-.713-.152-.308-.228-.668-.228-1.081c0-.408.076-.767.228-1.078.154-.311.368-.554.643-.729.277-.174.6-.262.97-.262.224,0,.442.037.653.112.211.074.4.191.568.35.167.159.3.365.396.619.097.253.146.559.146.921v.274h-3.166v-.58h2.406c0-.204-.042-.385-.124-.542-.083-.159-.2-.284-.35-.376-.149-.092-.324-.137-.524-.137-.218,0-.408.053-.57.16-.161.106-.286.244-.374.415-.086.17-.129.354-.129.552v.454c0,.266.046.493.14.679.095.187.227.329.396.428.17.097.368.145.594.145.147,0,.281-.021.402-.062.121-.043.225-.107.313-.192.089-.085.156-.189.203-.314l.733.133c-.059.216-.164.405-.316.567-.15.161-.34.286-.568.376-.226.088-.484.132-.775.132Z" transform="translate(1175.036515 26.760388)"/><path id="screen4-s-path64" d="M59.7838,541.182v5.818h-.8068l-2.9574-4.267h-.0539v4.267h-.8779v-5.818h.8125l2.9602,4.273h.054v-4.273h.8693Zm3.0505,5.906c-.4091,0-.7661-.094-1.0711-.281-.3049-.188-.5416-.45-.7102-.787-.1685-.337-.2528-.731-.2528-1.182c0-.453.0843-.848.2528-1.187.1686-.339.4053-.603.7102-.79.305-.188.662-.281,1.0711-.281s.7661.093,1.071.281c.3049.187.5417.451.7102.79.1686.339.2529.734.2529,1.187c0,.451-.0843.845-.2529,1.182-.1685.337-.4053.599-.7102.787-.3049.187-.6619.281-1.071.281Zm.0028-.713c.2652,0,.4849-.07.6591-.21s.303-.327.3864-.56c.0852-.233.1278-.489.1278-.77c0-.278-.0426-.534-.1278-.767-.0834-.235-.2122-.423-.3864-.565s-.3939-.213-.6591-.213c-.267,0-.4886.071-.6648.213-.1742.142-.3039.33-.3892.565-.0833.233-.125.489-.125.767c0,.281.0417.537.125.77.0853.233.215.42.3892.56.1762.14.3978.21.6648.21Z" transform="translate(1175.036515 26.760388)"/><path id="screen4-s-path65" d="M444.868,539.691v5.309h-.736l-2.698-3.894h-.05v3.894h-.801v-5.309h.742l2.701,3.899h.049v-3.899h.793Zm2.784,5.389c-.373,0-.699-.085-.977-.256-.279-.171-.495-.411-.648-.718-.154-.308-.231-.667-.231-1.079c0-.413.077-.774.231-1.083.153-.31.369-.55.648-.721.278-.171.604-.257.977-.257s.699.086.977.257.494.411.648.721c.154.309.231.67.231,1.083c0,.412-.077.771-.231,1.079-.154.307-.37.547-.648.718s-.604.256-.977.256Zm.003-.65c.241,0,.442-.064.601-.192s.276-.298.352-.511c.078-.212.117-.447.117-.702c0-.254-.039-.488-.117-.7-.076-.215-.193-.387-.352-.516-.159-.13-.36-.195-.601-.195-.244,0-.446.065-.607.195-.159.129-.277.301-.355.516-.076.212-.114.446-.114.7c0,.255.038.49.114.702.078.213.196.383.355.511.161.128.363.192.607.192Zm3.493-1.794v2.364h-.775v-3.982h.744v.648h.049c.092-.211.235-.38.431-.508.197-.128.445-.192.744-.192.271,0,.509.057.713.171.204.113.362.28.474.503s.169.499.169.827v2.533h-.776v-2.439c0-.289-.075-.515-.225-.677-.15-.164-.357-.246-.62-.246-.179,0-.339.039-.479.116-.138.078-.248.192-.329.343-.08.148-.12.328-.12.539Zm8.06-1.219h-.809c-.031-.172-.089-.325-.174-.456-.084-.131-.188-.243-.311-.334-.122-.092-.26-.161-.412-.208-.15-.046-.31-.07-.479-.07-.306,0-.58.077-.822.231-.24.154-.431.379-.571.677-.138.297-.207.66-.207,1.088c0,.433.069.797.207,1.094.14.298.331.522.573.674.242.153.515.229.817.229.168,0,.327-.023.477-.068.152-.047.289-.115.412-.205s.227-.199.311-.329c.087-.131.146-.282.179-.451l.809.003c-.043.261-.127.501-.252.72-.122.218-.28.406-.474.565-.192.158-.411.28-.658.366-.248.086-.517.13-.809.13-.46,0-.87-.109-1.229-.327-.359-.22-.643-.533-.85-.941-.206-.408-.309-.894-.309-1.46s.104-1.053.311-1.459c.208-.408.491-.721.851-.938.359-.22.768-.33,1.226-.33.281,0,.544.041.788.122.245.08.466.197.661.353.195.154.357.342.485.565.128.221.214.474.259.759Zm2.573,3.663c-.373,0-.699-.085-.977-.256s-.494-.411-.648-.718c-.154-.308-.231-.667-.231-1.079c0-.413.077-.774.231-1.083.154-.31.37-.55.648-.721s.604-.257.977-.257c.374,0,.699.086.978.257.278.171.494.411.648.721.154.309.231.67.231,1.083c0,.412-.077.771-.231,1.079-.154.307-.37.547-.648.718-.279.171-.604.256-.978.256Zm.003-.65c.242,0,.442-.064.601-.192s.277-.298.353-.511c.078-.212.117-.447.117-.702c0-.254-.039-.488-.117-.7-.076-.215-.194-.387-.353-.516-.159-.13-.359-.195-.601-.195-.244,0-.446.065-.607.195-.159.129-.277.301-.355.516-.076.212-.114.446-.114.7c0,.255.038.49.114.702.078.213.196.383.355.511.161.128.363.192.607.192Zm2.719.57v-3.982h.744v.648h.049c.083-.219.219-.39.407-.513.188-.124.414-.187.677-.187.266,0,.489.063.668.187.182.124.316.296.402.513h.042c.095-.212.246-.382.453-.508.208-.128.455-.192.742-.192.361,0,.656.114.884.34.23.226.344.568.344,1.024v2.67h-.775v-2.598c0-.269-.073-.464-.22-.585s-.322-.182-.526-.182c-.253,0-.449.078-.589.233-.14.154-.21.352-.21.594v2.538h-.772v-2.647c0-.216-.068-.389-.202-.521-.135-.131-.311-.197-.527-.197-.147,0-.282.039-.407.117-.122.076-.222.182-.298.319-.074.136-.111.294-.111.474v2.455h-.775Zm6.451,1.493v-5.475h.757v.646h.065c.045-.083.11-.179.195-.288.084-.109.202-.204.352-.285.15-.083.349-.125.596-.125.322,0,.609.082.861.244s.45.397.594.703c.145.305.217.674.217,1.104s-.071.799-.215,1.107c-.143.306-.34.542-.591.707-.25.165-.536.247-.858.247-.242,0-.44-.041-.594-.122-.152-.081-.271-.176-.357-.285-.087-.109-.153-.206-.2-.291h-.047v2.113h-.775Zm.76-3.484c0,.28.041.525.122.736s.198.376.352.495c.154.118.342.177.565.177.232,0,.426-.062.581-.184.156-.125.273-.293.353-.506.081-.212.122-.452.122-.718c0-.263-.04-.499-.12-.708-.078-.209-.195-.374-.352-.495-.156-.121-.35-.181-.584-.181-.224,0-.414.058-.57.173-.154.116-.27.278-.35.485-.079.208-.119.45-.119.726Z" transform="translate(1175.275515 26.760388)"/><path id="screen4-s-path66" d="M83.5227,546h-1.8835v-5.818h1.9432c.5701,0,1.0596.116,1.4687.349.4091.231.7226.564.9404.997.2197.432.3295.95.3295,1.554c0,.606-.1108,1.127-.3324,1.563-.2197.435-.5378.771-.9545,1.006-.4167.233-.9205.349-1.5114.349Zm-1.0057-.767h.9574c.4432,0,.8116-.083,1.1051-.25.2936-.169.5133-.412.6591-.73.1459-.32.2188-.71.2188-1.171c0-.456-.0729-.843-.2188-1.162-.1439-.318-.3589-.559-.6448-.724-.286-.165-.6411-.247-1.0654-.247h-1.0114v4.284Zm6.0973.864c-.2765,0-.5265-.052-.75-.154-.2234-.104-.4005-.255-.5312-.452-.1288-.196-.1932-.438-.1932-.724c0-.246.0474-.449.1421-.608s.2225-.285.3835-.378.3409-.163.5398-.21.4015-.083.6079-.108c.2614-.03.4735-.055.6364-.074.1629-.021.2812-.054.3551-.099.0739-.046.1108-.12.1108-.222v-.02c0-.248-.0701-.44-.2102-.576-.1383-.137-.3447-.205-.6194-.205-.2859,0-.5113.063-.6761.19-.1629.125-.2756.265-.3381.418l-.7983-.182c.0947-.265.233-.479.4148-.642.1837-.165.3949-.284.6335-.358.2387-.076.4896-.113.7529-.113.1742,0,.3589.02.554.062.1969.04.3806.114.5511.222.1723.108.3134.262.4233.463.1098.199.1648.457.1648.775v2.898h-.8296v-.597h-.0341c-.0549.11-.1373.218-.2471.324s-.251.194-.4233.264c-.1724.071-.3788.106-.6194.106Zm.1847-.682c.2349,0,.4356-.047.6023-.139.1685-.093.2964-.214.3835-.364.089-.152.1335-.314.1335-.486v-.562c-.0303.03-.089.058-.1761.085-.0852.024-.1828.046-.2926.065-.1099.017-.2169.033-.321.048-.1042.014-.1913.025-.2614.035-.1648.02-.3154.055-.4517.105-.1345.049-.2424.12-.3239.213-.0795.091-.1193.212-.1193.363c0,.211.0777.37.233.478.1553.106.3532.159.5937.159Zm5.1371-3.779v.682h-2.3835v-.682h2.3835Zm-1.7443-1.045h.8494v4.128c0,.165.0246.289.0739.372.0492.081.1126.137.1903.168.0795.028.1657.042.2585.042.0682,0,.1279-.005.179-.014.0511-.01.0909-.017.1193-.023l.1534.702c-.0492.019-.1193.038-.2102.057-.0909.021-.2045.032-.3409.034-.2235.004-.4318-.036-.625-.119-.1932-.084-.3494-.213-.4688-.387-.1193-.174-.1789-.393-.1789-.656v-4.304Zm4.5177,5.497c-.4299,0-.8002-.092-1.1108-.276-.3087-.185-.5473-.446-.7159-.781-.1667-.337-.25-.732-.25-1.184c0-.447.0833-.841.25-1.182.1686-.341.4034-.607.7046-.799.303-.191.6572-.286,1.0625-.286.2462,0,.4848.04.7159.122.231.081.4384.209.6221.383s.3286.401.4347.679c.106.277.1591.613.1591,1.009v.301h-3.4688v-.636h2.6364c0-.224-.0455-.422-.1364-.594-.0909-.174-.2187-.312-.3835-.412-.1629-.101-.3542-.151-.5739-.151-.2386,0-.4469.059-.625.176-.1761.116-.3125.267-.4091.455-.0946.186-.142.387-.142.605v.497c0,.292.0511.54.1534.745.1042.204.2491.36.4347.468.1856.106.4024.159.6505.159.161,0,.3078-.022.4404-.068.1326-.047.2471-.117.3437-.21s.1705-.207.2216-.344l.804.145c-.0644.237-.1799.444-.3466.622-.1648.176-.3722.314-.6222.412-.2481.097-.5312.145-.8494.145Z" transform="translate(1175.036515 26.760388)"/><path id="screen4-s-path67" d="M482.359,540.38v-.689h4.109v.689h-1.657v4.62h-.798v-4.62h-1.654Zm6.054,4.7c-.373,0-.699-.085-.977-.256s-.494-.411-.648-.718c-.154-.308-.231-.667-.231-1.079c0-.413.077-.774.231-1.083.154-.31.37-.55.648-.721s.604-.257.977-.257.699.086.977.257c.279.171.495.411.649.721.153.309.23.67.23,1.083c0,.412-.077.771-.23,1.079-.154.307-.37.547-.649.718-.278.171-.604.256-.977.256Zm.003-.65c.242,0,.442-.064.601-.192s.277-.298.353-.511c.078-.212.116-.447.116-.702c0-.254-.038-.488-.116-.7-.076-.215-.194-.387-.353-.516-.159-.13-.359-.195-.601-.195-.244,0-.446.065-.607.195-.159.129-.277.301-.355.516-.076.212-.114.446-.114.7c0,.255.038.49.114.702.078.213.196.383.355.511.161.128.363.192.607.192Zm4.577-3.412v.622h-2.175v-.622h2.175Zm-1.592-.954h.776v3.767c0,.15.022.263.067.339.045.075.103.126.174.153.072.026.151.039.236.039.062,0,.116-.004.163-.013.047-.008.083-.015.109-.02l.14.64c-.045.017-.109.034-.192.052-.083.019-.187.029-.311.031-.204.003-.394-.033-.57-.109-.177-.076-.319-.194-.428-.353s-.164-.358-.164-.598v-3.928Zm3.608,5.024c-.252,0-.48-.047-.684-.14-.204-.095-.366-.232-.485-.412-.117-.18-.176-.4-.176-.661c0-.225.043-.41.13-.555.086-.145.203-.26.35-.345.146-.084.311-.148.492-.191.182-.044.366-.076.555-.099.238-.028.432-.05.581-.067.148-.019.256-.05.324-.091.067-.042.101-.109.101-.202v-.018c0-.227-.064-.402-.192-.527-.126-.124-.315-.186-.565-.186-.261,0-.467.058-.617.173-.149.114-.252.241-.309.381l-.728-.165c.086-.242.212-.438.378-.586.168-.151.361-.26.578-.327.218-.069.447-.104.687-.104.159,0,.328.019.506.057.18.037.347.104.503.203.157.098.286.239.386.422.1.182.15.417.15.708v2.644h-.757v-.544h-.031c-.05.1-.125.198-.225.295s-.229.177-.387.241c-.157.064-.345.096-.565.096Zm.169-.622c.214,0,.397-.042.549-.127.154-.085.271-.195.35-.332.082-.138.122-.286.122-.443v-.513c-.027.027-.081.053-.16.077-.078.023-.167.043-.267.06-.101.016-.198.03-.293.044-.095.012-.175.022-.239.031-.15.019-.288.051-.412.096-.123.045-.221.11-.296.194-.072.083-.108.194-.108.332c0,.192.07.337.212.436.142.097.322.145.542.145Zm3.604-4.775v5.309h-.775v-5.309h.775Z" transform="translate(1175.036515 26.760388)"/><path id="screen4-s-path68" d="M116.352,540.938v-.756h4.503v.756h-1.815v5.062h-.875v-5.062h-1.813Zm5.43,5.062v-4.364h.849v4.364h-.849Zm.429-5.037c-.148,0-.275-.049-.381-.148-.104-.1-.156-.219-.156-.358c0-.14.052-.259.156-.358.106-.1.233-.15.381-.15s.274.05.378.15c.106.099.159.218.159.358c0,.139-.053.258-.159.358-.104.099-.23.148-.378.148ZM123.774,546v-4.364h.815v.711h.054c.091-.241.24-.428.446-.563.207-.136.454-.204.742-.204.292,0,.536.068.733.204.199.136.346.324.44.563h.046c.104-.233.27-.419.497-.557.227-.14.498-.21.812-.21.396,0,.719.124.969.372.252.248.378.622.378,1.122v2.926h-.849v-2.847c0-.295-.081-.509-.242-.642-.161-.132-.353-.199-.577-.199-.276,0-.491.086-.645.256-.153.169-.23.386-.23.651v2.781h-.846v-2.901c0-.236-.074-.427-.222-.571s-.34-.216-.577-.216c-.161,0-.309.043-.446.128-.134.084-.243.2-.326.35-.082.149-.122.323-.122.52v2.69h-.85Zm8.951.088c-.43,0-.8-.092-1.111-.276-.308-.185-.547-.446-.716-.781-.166-.337-.25-.732-.25-1.184c0-.447.084-.841.25-1.182.169-.341.404-.607.705-.799.303-.191.657-.286,1.062-.286.247,0,.485.04.716.122.231.081.439.209.623.383.183.174.328.401.434.679.106.277.159.613.159,1.009v.301h-3.468v-.636h2.636c0-.224-.046-.422-.136-.594-.091-.174-.219-.312-.384-.412-.163-.101-.354-.151-.574-.151-.238,0-.447.059-.625.176-.176.116-.312.267-.409.455-.095.186-.142.387-.142.605v.497c0,.292.051.54.153.745.105.204.249.36.435.468.186.106.403.159.651.159.161,0,.307-.022.44-.068.133-.047.247-.117.344-.21.096-.093.17-.207.221-.344l.804.145c-.064.237-.18.444-.346.622-.165.176-.372.314-.622.412-.249.097-.532.145-.85.145Z" transform="translate(1175.036515 26.760388)"/><path id="screen4-s-path69" d="M37.2707,556.091c0,.621-.1136,1.155-.3409,1.602-.2273.445-.5388.788-.9346,1.029-.394.238-.8419.358-1.3438.358-.5038,0-.9536-.12-1.3494-.358-.394-.241-.7046-.585-.9318-1.032s-.341-.98-.341-1.599c0-.621.1137-1.154.341-1.6s.5378-.789.9318-1.028c.3958-.24.8456-.361,1.3494-.361.5019,0,.9498.121,1.3438.361.3958.239.7073.582.9346,1.028s.3409.979.3409,1.6Zm-.8693,0c0-.474-.0767-.872-.2301-1.196-.1515-.326-.3599-.572-.625-.739-.2633-.168-.5616-.253-.8949-.253-.3352,0-.6345.085-.8977.253-.2633.167-.4716.413-.625.739-.1515.324-.2273.722-.2273,1.196c0,.473.0758.873.2273,1.199.1534.324.3617.57.625.738.2632.167.5625.25.8977.25.3333,0,.6316-.083.8949-.25.2651-.168.4735-.414.625-.738.1534-.326.2301-.726.2301-1.199Zm5.1371-1.381c-.0303-.269-.1553-.477-.375-.625-.2197-.149-.4962-.224-.8296-.224-.2386,0-.445.038-.6193.113-.1742.074-.3096.177-.4062.307-.0947.129-.1421.276-.1421.441c0,.138.0322.257.0966.358.0663.1.1525.184.2585.252.108.067.2235.123.3466.168.1231.044.2415.08.3551.108l.5682.148c.1856.045.376.107.571.184.1951.078.376.18.5427.307.1666.127.3011.284.4034.472.1041.187.1562.412.1562.673c0,.33-.0852.622-.2557.878-.1685.256-.4138.457-.7358.605-.32.148-.7073.222-1.1619.222-.4356,0-.8125-.07-1.1307-.208s-.5672-.334-.7471-.588c-.18-.256-.2794-.559-.2983-.909h.8807c.017.21.0852.385.2045.526.1212.138.2756.241.4631.309.1894.067.3967.1.6221.1.2481,0,.4688-.039.662-.117.195-.079.3484-.189.4602-.329.1117-.142.1676-.308.1676-.497c0-.173-.0492-.314-.1477-.424-.0966-.11-.2282-.201-.3949-.272-.1648-.072-.3513-.136-.5597-.191l-.6875-.187c-.4659-.127-.8352-.314-1.1079-.56-.2709-.246-.4063-.572-.4063-.977c0-.336.0909-.628.2728-.878.1818-.25.428-.444.7386-.583.3106-.14.661-.21,1.0511-.21.394,0,.7415.069,1.0426.208.3031.138.5417.328.7159.571.1743.24.2652.517.2728.829h-.8466Z" transform="translate(1175.036515 26.760388)"/><path id="screen4-s-path70" d="M33.7784,573l-1.6136-5.818h.9233l1.1335,4.506h.054l1.1789-4.506h.9148l1.179,4.508h.054l1.1307-4.508h.9261L38.0426,573h-.8835l-1.2244-4.358h-.0455L34.6648,573h-.8864Zm9.8388-4.29c-.0303-.269-.1553-.477-.375-.625-.2197-.149-.4962-.224-.8296-.224-.2386,0-.445.038-.6193.113-.1742.074-.3096.177-.4062.307-.0947.129-.1421.276-.1421.441c0,.138.0322.257.0966.358.0663.1.1525.184.2585.252.108.067.2235.123.3466.168.1231.044.2415.08.3551.108l.5682.148c.1856.045.376.107.5711.184.195.078.3759.18.5426.307s.3011.284.4034.472c.1041.187.1562.412.1562.673c0,.33-.0852.622-.2557.878-.1685.256-.4138.457-.7358.605-.32.148-.7073.222-1.1619.222-.4356,0-.8125-.07-1.1307-.208s-.5672-.334-.7471-.588c-.18-.256-.2794-.559-.2983-.909h.8807c.017.21.0852.385.2045.526.1212.138.2756.241.4631.309.1894.067.3968.1.6221.1.2481,0,.4688-.039.662-.117.195-.079.3484-.189.4602-.329.1117-.142.1676-.308.1676-.497c0-.173-.0492-.314-.1477-.424-.0966-.11-.2282-.201-.3949-.272-.1648-.072-.3513-.136-.5597-.191l-.6875-.187c-.4659-.127-.8352-.314-1.1079-.56-.2709-.246-.4063-.572-.4063-.977c0-.336.0909-.628.2728-.878.1818-.25.428-.444.7386-.583.3106-.14.661-.21,1.0511-.21.394,0,.7415.069,1.0426.208.3031.138.5417.328.716.571.1742.24.2651.517.2727.829h-.8466Z" transform="translate(1175.036515 26.760388)"/><path id="screen4-s-path71" d="M32.7082,587h-.9318l2.0938-5.818h1.0142L36.9781,587h-.9318l-1.6449-4.761h-.0454L32.7082,587Zm.1563-2.278h3.0227v.738h-3.0227v-.738Zm8.0802-2.012c-.0303-.269-.1553-.477-.375-.625-.2197-.149-.4962-.224-.8295-.224-.2386,0-.4451.038-.6193.113-.1743.074-.3097.177-.4063.307-.0947.129-.142.276-.142.441c0,.138.0322.257.0966.358.0663.1.1524.184.2585.252.1079.067.2235.123.3466.168.1231.044.2415.08.3551.108l.5682.148c.1856.045.3759.107.571.184.1951.078.3759.18.5426.307s.3011.284.4034.472c.1042.187.1563.412.1563.673c0,.33-.0853.622-.2557.878-.1686.256-.4138.457-.7358.605-.3201.148-.7074.222-1.1619.222-.4356,0-.8125-.07-1.1307-.208s-.5673-.334-.7472-.588c-.1799-.256-.2793-.559-.2983-.909h.8807c.0171.21.0852.385.2046.526.1212.138.2755.241.463.309.1894.067.3968.1.6222.1.2481,0,.4687-.039.6619-.117.1951-.079.3485-.189.4602-.329.1118-.142.1677-.308.1677-.497c0-.173-.0493-.314-.1478-.424-.0966-.11-.2282-.201-.3949-.272-.1647-.072-.3513-.136-.5596-.191l-.6875-.187c-.4659-.127-.8352-.314-1.108-.56-.2708-.246-.4062-.572-.4062-.977c0-.336.0909-.628.2727-.878s.428-.444.7386-.583c.3106-.14.661-.21,1.0512-.21.3939,0,.7415.069,1.0426.208.303.138.5417.328.7159.571.1742.24.2651.517.2727.829h-.8466Z" transform="translate(1175.036515 26.760388)"/><path id="screen4-s-path72" d="M32.2167,603v-5.818h3.6478v.756h-2.7699v1.772h2.5795v.753h-2.5795v1.781h2.804v.756h-3.6819Zm4.8204,0v-5.818h2.0738c.4527,0,.8277.082,1.125.247s.5199.39.6676.676c.1478.284.2216.604.2216.96c0,.358-.0748.68-.2244.966-.1477.284-.3712.51-.6705.676-.2973.165-.6714.248-1.1221.248h-1.4262v-.745h1.3466c.286,0,.518-.049.6961-.148.178-.1.3087-.236.392-.409.0833-.172.125-.368.125-.588c0-.219-.0417-.414-.125-.585-.0833-.17-.215-.304-.3949-.4-.178-.097-.4129-.145-.7045-.145h-1.1023v5.065h-.8778Z" transform="translate(1175.036515 26.760388)"/><rect id="screen4-s-rect5" width="34.8037" height="15" rx="0" ry="0" transform="translate(1646.732815 546.760388)" fill="#d9d9d9"/><path id="screen4-s-path73" d="M476.226,530.978c-.354,0-.672-.069-.955-.205-.28-.138-.505-.328-.672-.568-.168-.241-.257-.515-.268-.824h.847c.021.25.131.455.331.616.199.161.439.242.717.242.223,0,.42-.051.591-.153.173-.105.308-.248.406-.429.1-.182.151-.39.151-.623c0-.236-.052-.448-.153-.633-.102-.186-.242-.332-.421-.438-.177-.106-.381-.16-.611-.162-.175,0-.351.031-.528.091-.177.061-.32.14-.429.239l-.8-.119.325-2.932h3.181v.753h-2.455l-.184,1.627h.034c.114-.109.264-.201.45-.275.188-.074.389-.111.604-.111.352,0,.666.084.941.253.276.169.494.399.652.69.16.29.24.623.238,1c.002.377-.083.713-.255,1.009-.169.295-.404.528-.706.699-.299.168-.643.253-1.031.253Zm3.382-.026c-.155,0-.287-.055-.399-.165-.111-.112-.167-.246-.167-.403c0-.156.056-.288.167-.398.112-.112.244-.168.399-.168.154,0,.287.056.398.168.111.11.167.242.167.398c0,.104-.027.2-.08.287-.05.085-.118.153-.203.204-.084.051-.179.077-.282.077Zm1.563-1.19v-.711l2.5-3.971h.557v1.045h-.353l-1.788,2.847v.045h3.427v.745h-4.343Zm2.744,1.136v-1.352l.005-.324v-4.142h.828v5.818h-.833Zm4.538.08c-.406,0-.763-.071-1.074-.211-.309-.14-.551-.333-.726-.579s-.261-.527-.259-.841c-.002-.246.048-.473.149-.679.103-.208.244-.382.421-.52.177-.14.374-.229.593-.267v-.034c-.288-.07-.519-.226-.692-.466-.173-.241-.258-.517-.257-.83-.001-.297.076-.562.234-.795.16-.235.38-.42.659-.554.278-.134.596-.202.952-.202.352,0,.666.068.943.205.279.134.498.319.658.554.16.233.242.497.244.792-.002.313-.091.589-.266.83-.175.24-.403.396-.684.466v.034c.217.038.412.127.585.267.175.138.314.312.418.52.106.206.16.433.162.679-.002.314-.091.595-.266.841-.176.246-.419.439-.729.579-.309.14-.664.211-1.065.211Zm0-.719c.239,0,.446-.04.622-.12.175-.081.31-.194.406-.338.096-.145.145-.316.147-.511-.002-.203-.055-.382-.159-.537-.101-.155-.239-.277-.414-.366s-.376-.134-.602-.134c-.229,0-.43.045-.607.134s-.317.211-.419.366c-.101.155-.151.334-.149.537-.002.195.044.366.138.511.096.144.233.257.41.338.177.08.386.12.627.12Zm0-2.708c.192,0,.362-.038.511-.116.148-.078.266-.186.35-.324.087-.138.132-.3.134-.486-.002-.182-.046-.341-.131-.477-.082-.136-.199-.241-.348-.315-.148-.076-.32-.114-.516-.114-.2,0-.375.038-.526.114-.148.074-.264.179-.347.315s-.123.295-.121.477c-.002.186.039.348.124.486s.201.246.35.324c.15.078.324.116.52.116Zm5.256,3.347v-5.818h2.062c.45,0,.823.082,1.119.247.295.165.517.39.664.676.146.284.22.604.22.96c0,.358-.075.68-.223.966-.147.284-.369.51-.667.676-.296.165-.668.248-1.116.248h-1.418v-.745h1.339c.285,0,.515-.049.692-.148.177-.1.307-.236.39-.409.083-.172.125-.368.125-.588c0-.219-.042-.414-.125-.585-.083-.17-.214-.304-.393-.4-.177-.097-.41-.145-.701-.145h-1.095v5.065h-.873Zm5.088-5.818h1.06l1.841,4.523h.068l1.842-4.523h1.06v5.818h-.832v-4.21h-.053l-1.706,4.201h-.69l-1.706-4.204h-.054v4.213h-.83v-5.818Z" transform="translate(1175.384815 26.760388)"/></svg>
