<svg id="screen4" xmlns="http://www.w3.org/2000/svg" xmlns:xlink="http://www.w3.org/1999/xlink" viewBox="0 0 532 631" shape-rendering="geometricPrecision" text-rendering="geometricPrecision" project-id="3443b2274f844a308a2204262fd9fecc" export-id="bad6ab1cf4c84ba5bafe678f582f024d" cached="false"><path id="screen4-s-path1" d="M430.08,51.5h-378.8632v431h378.8632v-431Z" fill="none" stroke="#000"/><path id="screen4-s-path2" d="M494.716,200.5h-49.72v36h49.72v-36Z" fill="none" stroke="#000"/><path id="screen4-s-path3" d="M493.722,78.5h-48.726v36h48.726v-36Z" fill="none" stroke="#000"/><path id="screen4-s-path4" d="M493.722,119.5h-48.726v36h48.726v-36Z" fill="none" stroke="#000"/><path id="screen4-s-path5" d="M494.716,159.5h-49.72v36h49.72v-36Z" fill="none" stroke="#5a4141"/><path id="screen4-s-path6" d="M494.716,241.5h-49.72v36h49.72v-36Z" fill="none" stroke="#000"/><path id="screen4-s-path7" d="M494.716,298.5h-49.72v36h49.72v-36Z" fill="none" stroke="#000"/><path id="screen4-s-path8" d="M494.716,339.5h-49.72v36h49.72v-36Z" fill="none" stroke="#000"/><path id="screen4-s-path9" d="M494.716,446.5h-49.72v36h49.72v-36Z" fill="none" stroke="#000"/><path id="screen4-s-path10" d="M444.499,70.5h47.731" fill="none" stroke="#000"/><path id="screen4-s-path11" d="M444.499,286.5h50.714" fill="none" stroke="#000"/><path id="screen4-s-path12" d="M470.353,520L25.5,520v15h444.853v-15Z" fill="none" stroke="#000"/><rect id="screen4-s-rect1" width="25" height="631" rx="0" ry="0" transform="translate(511.475887 1)" fill="#334342"/><rect id="screen4-s-rect2" width="25" height="631" rx="0" ry="0" transform="matrix(1 0 0 0.993718 0 3.964221)" fill="#334342"/><rect id="screen4-s-rect3" width="25" height="532" rx="0" ry="0" transform="matrix(0-1 1 0 0 631)" fill="#334342"/><rect id="screen4-s-rect4" width="24" height="532" rx="0" ry="0" transform="matrix(0-1 1 0 0 24)" fill="#334342"/><path id="screen4-s-path13" d="M25.5,535.5h23v14h-23v-14Z" fill="none" stroke="#000"/><path id="screen4-s-path14" d="M48.9822,535.5h22.6169v14h-22.6169v-14Z" fill="none" stroke="#000"/><path id="screen4-s-path15" d="M25.5,549.5h23v14h-23v-14Z" fill="none" stroke="#000"/><path id="screen4-s-path16" d="M48.9822,549.5h22.6169v14h-22.6169v-14Z" fill="#fff" stroke="#000"/><path id="screen4-s-path17" d="M25.5,563.5h23v14h-23v-14Z" fill="none" stroke="#000"/><path id="screen4-s-path18" d="M48.9822,563.5h22.6169v14h-22.6169v-14Z" fill="#fff" stroke="#000"/><path id="screen4-s-path19" d="M25.5,577.5h23v14h-23v-14Z" fill="none" stroke="#000"/><path id="screen4-s-path20" d="M48.9822,577.5h22.6169v14h-22.6169v-14Z" fill="#fff" stroke="#000"/><path id="screen4-s-path21" d="M25.5,591.5h23v14h-23v-14Z" fill="none" stroke="#000"/><path id="screen4-s-path22" d="M48.9822,591.5h22.6169v14h-22.6169v-14Z" fill="#fff" stroke="#000"/><path id="screen4-s-path23" d="M71.6047,535.5h36.5383v14h-36.5383v-14Z" fill="none" stroke="#000"/><path id="screen4-s-path24" d="M108.149,535.5h36.538v14h-36.538v-14Z" fill="none" stroke="#000"/><path id="screen4-s-path25" d="M71.6047,549.5h36.5383v14h-36.5383v-14Z" fill="#fff" stroke="#000"/><path id="screen4-s-path26" d="M108.149,549.5h36.538v14h-36.538v-14Z" fill="#fff" stroke="#000"/><path id="screen4-s-path27" d="M71.6047,563.5h36.5383v14h-36.5383v-14Z" fill="#fff" stroke="#000"/><path id="screen4-s-path28" d="M108.149,563.5h36.538v14h-36.538v-14Z" fill="#fff" stroke="#000"/><path id="screen4-s-path29" d="M71.6047,577.5h36.5383v14h-36.5383v-14Z" fill="#fff" stroke="#000"/><path id="screen4-s-path30" d="M108.149,577.5h36.538v14h-36.538v-14Z" fill="#fff" stroke="#000"/><path id="screen4-s-path31" d="M71.6047,591.5h36.5383v14h-36.5383v-14Z" fill="#fff" stroke="#000"/><path id="screen4-s-path32" d="M108.149,591.5h36.538v14h-36.538v-14Z" fill="#fff" stroke="#000"/><path id="screen4-s-path33" d="M403.235,535.5h36.538v14h-36.538v-14Z" fill="none" stroke="#000"/><path id="screen4-s-path34" d="M403.235,549.5h36.538v14h-36.538v-14Z" fill="#fff" stroke="#000"/><path id="screen4-s-path35" d="M403.235,563.5h36.538v14h-36.538v-14Z" fill="#fff" stroke="#000"/><path id="screen4-s-path36" d="M403.235,577.5h36.538v14h-36.538v-14Z" fill="#fff" stroke="#000"/><path id="screen4-s-path37" d="M403.235,591.5h36.538v14h-36.538v-14Z" fill="#fff" stroke="#000"/><path id="screen4-s-path38" d="M439.779,535.5h36.538v14h-36.538v-14Z" fill="none" stroke="#000"/><path id="screen4-s-path39" d="M439.779,549.5h36.538v14h-36.538v-14Z" fill="#fff" stroke="#000"/><path id="screen4-s-path40" d="M439.779,563.5h36.538v14h-36.538v-14Z" fill="#fff" stroke="#000"/><path id="screen4-s-path41" d="M439.779,577.5h36.538v14h-36.538v-14Z" fill="#fff" stroke="#000"/><path id="screen4-s-path42" d="M439.779,591.5h36.538v14h-36.538v-14Z" fill="#fff" stroke="#000"/><path id="screen4-s-path43" d="M476.5,535.5h30v14h-30v-14Z" fill="none" stroke="#000"/><path id="screen4-s-path44" d="M476.5,549.5h30v14h-30v-14Z" fill="#fff" stroke="#000"/><path id="screen4-s-path45" d="M476.5,563.5h30v14h-30v-14Z" fill="#fff" stroke="#000"/><path id="screen4-s-path46" d="M476.5,577.5h30v14h-30v-14Z" fill="#fff" stroke="#000"/><path id="screen4-s-path47" d="M476.5,591.5h30v14h-30v-14Z" fill="#fff" stroke="#000"/><path id="screen4-s-path48" d="M144.444,535.5h258.745v14h-258.745v-14Z" fill="none" stroke="#000"/><path id="screen4-s-path49" d="M144.444,549.5h258.745v14h-258.745v-14Z" fill="#fff" stroke="#000"/><path id="screen4-s-path50" d="M144.444,563.5h258.745v14h-258.745v-14Z" fill="#fff" stroke="#000"/><path id="screen4-s-path51" d="M144.444,577.5h258.745v14h-258.745v-14Z" fill="#fff" stroke="#000"/><path id="screen4-s-path52" d="M144.444,591.5h258.745v14h-258.745v-14Z" fill="#fff" stroke="#000"/><path id="screen4-s-path53" d="M235.017,545v-5.309h3.328v.689h-2.527v1.618h2.354v.687h-2.354v1.625h2.559v.69h-3.36Zm7.743-3.982L241.316,545h-.83l-1.446-3.982h.832l1.008,3.064h.042l1.005-3.064h.833Zm2.309,4.062c-.393,0-.73-.083-1.014-.251-.282-.169-.499-.407-.653-.713-.152-.308-.228-.668-.228-1.081c0-.408.076-.767.228-1.078.154-.311.368-.554.643-.729.276-.174.599-.262.969-.262.225,0,.443.037.654.112.21.074.4.191.567.35.168.159.3.365.397.619.097.253.145.559.145.921v.274h-3.165v-.58h2.405c0-.204-.041-.385-.124-.542-.083-.159-.2-.284-.35-.376-.149-.092-.323-.137-.524-.137-.217,0-.407.053-.57.16-.161.106-.285.244-.373.415-.087.17-.13.354-.13.552v.454c0,.266.047.493.14.679.095.187.227.329.397.428.169.097.367.145.593.145.147,0,.281-.021.402-.062.121-.043.226-.107.314-.192s.155-.189.202-.314l.734.133c-.059.216-.164.405-.316.567-.151.161-.34.286-.568.376-.227.088-.485.132-.775.132Zm3.343-2.444v2.364h-.775v-3.982h.744v.648h.049c.092-.211.235-.38.431-.508.197-.128.445-.192.744-.192.271,0,.509.057.713.171.203.113.362.28.474.503s.168.499.168.827v2.533h-.775v-2.439c0-.289-.075-.515-.225-.677-.151-.164-.357-.246-.62-.246-.18,0-.339.039-.479.116-.139.078-.248.192-.33.343-.079.148-.119.328-.119.539Zm5.447-1.618v.622h-2.175v-.622h2.175Zm-1.592-.954h.775v3.767c0,.15.023.263.067.339.045.075.103.126.174.153.073.026.151.039.236.039.062,0,.117-.004.163-.013.047-.008.083-.015.109-.02l.14.64c-.045.017-.109.034-.192.052-.083.019-.186.029-.311.031-.204.003-.394-.033-.57-.109s-.319-.194-.428-.353-.163-.358-.163-.598v-3.928Zm5.872,5.014c-.322,0-.609-.082-.861-.247-.251-.165-.448-.401-.591-.707-.142-.308-.213-.677-.213-1.107s.072-.799.215-1.104c.146-.306.344-.541.597-.703.252-.162.538-.244.858-.244.247,0,.446.042.596.125.152.081.27.176.353.285.084.109.15.205.197.288h.046v-1.973h.775v5.309h-.757v-.62h-.064c-.047.085-.115.182-.203.291-.086.109-.205.204-.357.285s-.349.122-.591.122Zm.171-.661c.223,0,.411-.059.565-.177.155-.119.273-.284.352-.495.082-.211.122-.456.122-.736c0-.276-.04-.518-.119-.726-.08-.207-.196-.369-.35-.485-.154-.115-.344-.173-.57-.173-.234,0-.428.06-.584.181-.155.121-.273.286-.352.495-.078.209-.117.445-.117.708c0,.266.04.506.119.718.08.213.197.381.353.506.157.122.351.184.581.184Zm4.624.663c-.393,0-.73-.083-1.014-.251-.282-.169-.499-.407-.653-.713-.152-.308-.228-.668-.228-1.081c0-.408.076-.767.228-1.078.154-.311.368-.554.643-.729.276-.174.599-.262.969-.262.225,0,.443.037.654.112.21.074.4.191.567.35.168.159.3.365.397.619.097.253.145.559.145.921v.274h-3.165v-.58h2.406c0-.204-.042-.385-.125-.542-.083-.159-.2-.284-.35-.376-.149-.092-.323-.137-.524-.137-.217,0-.407.053-.57.16-.161.106-.285.244-.373.415-.087.17-.13.354-.13.552v.454c0,.266.047.493.14.679.095.187.227.329.397.428.169.097.367.145.594.145.146,0,.28-.021.401-.062.121-.043.226-.107.314-.192s.156-.189.202-.314l.734.133c-.059.216-.164.405-.316.567-.151.161-.34.286-.568.376-.227.088-.485.132-.775.132Zm5.552-3.09l-.703.125c-.029-.09-.076-.176-.14-.257-.062-.081-.147-.148-.254-.2-.107-.051-.241-.077-.402-.077-.219,0-.402.049-.549.147-.147.097-.22.223-.22.376c0,.133.049.241.147.322.099.081.258.148.477.199l.633.146c.366.084.639.215.819.391s.27.405.27.687c0,.238-.07.451-.208.638-.136.185-.327.33-.573.435-.243.106-.526.158-.847.158-.446,0-.81-.095-1.092-.285-.281-.192-.454-.464-.518-.816l.749-.114c.047.195.143.343.288.443.145.098.334.148.567.148.255,0,.458-.053.61-.159.152-.107.228-.237.228-.391c0-.124-.047-.229-.14-.314-.092-.084-.233-.148-.423-.191l-.674-.148c-.371-.085-.646-.22-.824-.405-.176-.185-.265-.419-.265-.702c0-.235.066-.441.197-.617.132-.176.313-.314.545-.412.231-.101.497-.151.796-.151.43,0,.769.094,1.016.28.247.185.41.433.49.744Zm2.607,3.09c-.385,0-.717-.087-.995-.261-.277-.177-.489-.42-.638-.729s-.223-.664-.223-1.063c0-.404.076-.761.228-1.07.152-.311.366-.554.643-.729.277-.174.602-.262.977-.262.303,0,.572.057.809.169.237.11.428.266.573.466.147.201.234.435.262.703h-.755c-.041-.187-.136-.347-.285-.482-.147-.135-.344-.202-.591-.202-.216,0-.405.057-.567.171-.161.112-.286.273-.376.482-.09.207-.135.453-.135.736c0,.29.044.541.132.752s.213.374.373.49c.163.116.354.174.573.174.147,0,.28-.027.399-.081.121-.055.223-.134.304-.236.083-.102.141-.224.173-.368h.755c-.028.258-.112.487-.252.69-.14.202-.327.361-.562.477-.233.115-.507.173-.822.173Zm2.465-.08v-3.982h.749v.633h.041c.073-.215.201-.383.384-.506.185-.124.394-.186.627-.186.049,0,.106.001.172.005.067.003.12.008.158.013v.741c-.031-.009-.087-.018-.166-.028-.08-.013-.159-.019-.239-.019-.183,0-.346.039-.49.117-.141.076-.254.182-.337.319-.083.135-.124.289-.124.461v2.432h-.775Zm2.801,0v-3.982h.776v3.982h-.776Zm.392-4.596c-.135,0-.251-.045-.348-.135-.095-.092-.142-.2-.142-.327c0-.128.047-.236.142-.326.097-.092.213-.138.348-.138s.25.046.345.138c.096.09.145.198.145.326c0,.127-.049.235-.145.327-.095.09-.21.135-.345.135Zm1.426,6.089v-5.475h.757v.646h.065c.045-.083.11-.179.194-.288.085-.109.203-.204.353-.285.15-.083.349-.125.596-.125.322,0,.609.082.861.244s.45.397.594.703c.145.305.217.674.217,1.104s-.071.799-.215,1.107c-.143.306-.34.542-.591.707-.25.165-.537.247-.858.247-.242,0-.44-.041-.594-.122-.152-.081-.271-.176-.357-.285-.087-.109-.153-.206-.2-.291h-.047v2.113h-.775Zm.76-3.484c0,.28.04.525.122.736.081.211.198.376.352.495.154.118.342.177.565.177.232,0,.425-.062.581-.184.156-.125.273-.293.353-.506.081-.212.121-.452.121-.718c0-.263-.039-.499-.119-.708-.078-.209-.195-.374-.352-.495-.156-.121-.35-.181-.584-.181-.224,0-.414.058-.57.173-.154.116-.27.278-.35.485-.079.208-.119.45-.119.726Zm5.604-1.991v.622h-2.175v-.622h2.175Zm-1.591-.954h.775v3.767c0,.15.022.263.067.339.045.075.103.126.174.153.073.026.151.039.236.039.062,0,.117-.004.163-.013.047-.008.083-.015.109-.02l.14.64c-.045.017-.109.034-.192.052-.083.019-.186.029-.311.031-.204.003-.394-.033-.57-.109s-.319-.194-.428-.353-.163-.358-.163-.598v-3.928ZM285.399,545v-3.982h.775v3.982h-.775Zm.391-4.596c-.135,0-.25-.045-.347-.135-.095-.092-.143-.2-.143-.327c0-.128.048-.236.143-.326.097-.092.212-.138.347-.138s.25.046.345.138c.097.09.145.198.145.326c0,.127-.048.235-.145.327-.095.09-.21.135-.345.135Zm3.104,4.676c-.373,0-.699-.085-.977-.256-.279-.171-.495-.411-.648-.718-.154-.308-.231-.667-.231-1.079c0-.413.077-.774.231-1.083.153-.31.369-.55.648-.721.278-.171.604-.257.977-.257s.699.086.977.257c.279.171.495.411.648.721.154.309.231.67.231,1.083c0,.412-.077.771-.231,1.079-.153.307-.369.547-.648.718-.278.171-.604.256-.977.256Zm.003-.65c.242,0,.442-.064.601-.192s.276-.298.353-.511c.077-.212.116-.447.116-.702c0-.254-.039-.488-.116-.7-.077-.215-.194-.387-.353-.516-.159-.13-.359-.195-.601-.195-.244,0-.446.065-.607.195-.159.129-.277.301-.355.516-.076.212-.114.446-.114.7c0,.255.038.49.114.702.078.213.196.383.355.511.161.128.363.192.607.192Zm3.493-1.794v2.364h-.775v-3.982h.744v.648h.05c.091-.211.235-.38.43-.508.197-.128.445-.192.744-.192.271,0,.509.057.713.171.204.113.362.28.474.503s.169.499.169.827v2.533h-.775v-2.439c0-.289-.076-.515-.226-.677-.15-.164-.357-.246-.62-.246-.179,0-.339.039-.479.116-.138.078-.248.192-.329.343-.08.148-.12.328-.12.539Z"/><path id="screen4-s-path54" d="M408.505,539.691l1.478,4.324h.059l1.478-4.324h.866L410.475,545h-.925l-1.911-5.309h.866Zm6.087-.249l-1.711,6.356h-.692l1.711-6.356h.692Zm2.553,1.576v.622h-2.25v-.622h2.25ZM415.512,545v-4.443c0-.249.055-.456.164-.62.109-.166.253-.289.433-.371.179-.082.375-.124.585-.124.156,0,.289.013.4.039.11.024.192.047.246.067l-.182.628c-.036-.011-.083-.023-.14-.037-.057-.015-.126-.023-.207-.023-.188,0-.323.047-.404.14-.08.093-.12.228-.12.404v4.34h-.775Zm2.433,0v-3.982h.749v.633h.042c.072-.215.2-.383.384-.506.184-.124.394-.186.627-.186.048,0,.105.001.171.005.067.003.12.008.158.013v.741c-.031-.009-.086-.018-.166-.028-.079-.013-.159-.019-.238-.019-.183,0-.347.039-.49.117-.142.076-.254.182-.337.319-.083.135-.125.289-.125.461v2.432h-.775Zm3.925.088c-.252,0-.48-.047-.684-.14-.204-.095-.366-.232-.485-.412-.118-.18-.176-.4-.176-.661c0-.225.043-.41.129-.555.087-.145.203-.26.35-.345.147-.084.311-.148.493-.191.181-.044.366-.076.554-.099.239-.028.433-.05.581-.067.149-.019.257-.05.324-.091.068-.042.101-.109.101-.202v-.018c0-.227-.064-.402-.192-.527-.126-.124-.314-.186-.565-.186-.261,0-.466.058-.617.173-.148.114-.251.241-.308.381l-.729-.165c.087-.242.213-.438.379-.586.168-.151.36-.26.578-.327.218-.069.447-.104.687-.104.159,0,.327.019.505.057.18.037.348.104.503.203.158.098.286.239.387.422.1.182.15.417.15.708v2.644h-.757v-.544h-.031c-.05.1-.125.198-.226.295-.1.097-.229.177-.386.241s-.346.096-.565.096Zm.169-.622c.214,0,.397-.042.549-.127.154-.085.271-.195.35-.332.081-.138.122-.286.122-.443v-.513c-.028.027-.081.053-.161.077-.078.023-.167.043-.267.06-.1.016-.198.03-.293.044-.095.012-.174.022-.238.031-.151.019-.288.051-.412.096-.123.045-.222.11-.296.194-.073.083-.109.194-.109.332c0,.192.071.337.213.436.141.097.322.145.542.145Zm2.828.534v-3.982h.744v.648h.05c.083-.219.218-.39.407-.513.188-.124.414-.187.676-.187.266,0,.489.063.669.187.182.124.315.296.402.513h.041c.095-.212.247-.382.454-.508.207-.128.455-.192.741-.192.362,0,.656.114.884.34.23.226.345.568.345,1.024v2.67h-.775v-2.598c0-.269-.073-.464-.22-.585s-.323-.182-.527-.182c-.252,0-.448.078-.588.233-.14.154-.21.352-.21.594v2.538h-.772v-2.647c0-.216-.068-.389-.203-.521-.134-.131-.31-.197-.526-.197-.147,0-.282.039-.407.117-.123.076-.222.182-.298.319-.074.136-.112.294-.112.474v2.455h-.775Zm8.168.08c-.392,0-.73-.083-1.013-.251-.282-.169-.5-.407-.654-.713-.152-.308-.228-.668-.228-1.081c0-.408.076-.767.228-1.078.154-.311.368-.554.643-.729.277-.174.6-.262.97-.262.224,0,.442.037.653.112.211.074.4.191.568.35.167.159.3.365.396.619.097.253.146.559.146.921v.274h-3.166v-.58h2.406c0-.204-.042-.385-.124-.542-.083-.159-.2-.284-.35-.376-.149-.092-.324-.137-.524-.137-.218,0-.408.053-.57.16-.161.106-.286.244-.374.415-.086.17-.129.354-.129.552v.454c0,.266.046.493.14.679.095.187.227.329.396.428.17.097.368.145.594.145.147,0,.281-.021.402-.062.121-.043.225-.107.313-.192.089-.085.156-.189.203-.314l.733.133c-.059.216-.164.405-.316.567-.15.161-.34.286-.568.376-.226.088-.484.132-.775.132Z"/><path id="screen4-s-path55" d="M59.7838,541.182v5.818h-.8068l-2.9574-4.267h-.0539v4.267h-.8779v-5.818h.8125l2.9602,4.273h.054v-4.273h.8693Zm3.0505,5.906c-.4091,0-.7661-.094-1.0711-.281-.3049-.188-.5416-.45-.7102-.787-.1685-.337-.2528-.731-.2528-1.182c0-.453.0843-.848.2528-1.187.1686-.339.4053-.603.7102-.79.305-.188.662-.281,1.0711-.281s.7661.093,1.071.281c.3049.187.5417.451.7102.79.1686.339.2529.734.2529,1.187c0,.451-.0843.845-.2529,1.182-.1685.337-.4053.599-.7102.787-.3049.187-.6619.281-1.071.281Zm.0028-.713c.2652,0,.4849-.07.6591-.21s.303-.327.3864-.56c.0852-.233.1278-.489.1278-.77c0-.278-.0426-.534-.1278-.767-.0834-.235-.2122-.423-.3864-.565s-.3939-.213-.6591-.213c-.267,0-.4886.071-.6648.213-.1742.142-.3039.33-.3892.565-.0833.233-.125.489-.125.767c0,.281.0417.537.125.77.0853.233.215.42.3892.56.1762.14.3978.21.6648.21Z"/><path id="screen4-s-path56" d="M444.868,539.691v5.309h-.736l-2.698-3.894h-.05v3.894h-.801v-5.309h.742l2.701,3.899h.049v-3.899h.793Zm2.784,5.389c-.373,0-.699-.085-.977-.256-.279-.171-.495-.411-.648-.718-.154-.308-.231-.667-.231-1.079c0-.413.077-.774.231-1.083.153-.31.369-.55.648-.721.278-.171.604-.257.977-.257s.699.086.977.257.494.411.648.721c.154.309.231.67.231,1.083c0,.412-.077.771-.231,1.079-.154.307-.37.547-.648.718s-.604.256-.977.256Zm.003-.65c.241,0,.442-.064.601-.192s.276-.298.352-.511c.078-.212.117-.447.117-.702c0-.254-.039-.488-.117-.7-.076-.215-.193-.387-.352-.516-.159-.13-.36-.195-.601-.195-.244,0-.446.065-.607.195-.159.129-.277.301-.355.516-.076.212-.114.446-.114.7c0,.255.038.49.114.702.078.213.196.383.355.511.161.128.363.192.607.192Zm3.493-1.794v2.364h-.775v-3.982h.744v.648h.049c.092-.211.235-.38.431-.508.197-.128.445-.192.744-.192.271,0,.509.057.713.171.204.113.362.28.474.503s.169.499.169.827v2.533h-.776v-2.439c0-.289-.075-.515-.225-.677-.15-.164-.357-.246-.62-.246-.179,0-.339.039-.479.116-.138.078-.248.192-.329.343-.08.148-.12.328-.12.539Zm8.06-1.219h-.809c-.031-.172-.089-.325-.174-.456-.084-.131-.188-.243-.311-.334-.122-.092-.26-.161-.412-.208-.15-.046-.31-.07-.479-.07-.306,0-.58.077-.822.231-.24.154-.431.379-.571.677-.138.297-.207.66-.207,1.088c0,.433.069.797.207,1.094.14.298.331.522.573.674.242.153.515.229.817.229.168,0,.327-.023.477-.068.152-.047.289-.115.412-.205s.227-.199.311-.329c.087-.131.146-.282.179-.451l.809.003c-.043.261-.127.501-.252.72-.122.218-.28.406-.474.565-.192.158-.411.28-.658.366-.248.086-.517.13-.809.13-.46,0-.87-.109-1.229-.327-.359-.22-.643-.533-.85-.941-.206-.408-.309-.894-.309-1.46s.104-1.053.311-1.459c.208-.408.491-.721.851-.938.359-.22.768-.33,1.226-.33.281,0,.544.041.788.122.245.08.466.197.661.353.195.154.357.342.485.565.128.221.214.474.259.759Zm2.573,3.663c-.373,0-.699-.085-.977-.256s-.494-.411-.648-.718c-.154-.308-.231-.667-.231-1.079c0-.413.077-.774.231-1.083.154-.31.37-.55.648-.721s.604-.257.977-.257c.374,0,.699.086.978.257.278.171.494.411.648.721.154.309.231.67.231,1.083c0,.412-.077.771-.231,1.079-.154.307-.37.547-.648.718-.279.171-.604.256-.978.256Zm.003-.65c.242,0,.442-.064.601-.192s.277-.298.353-.511c.078-.212.117-.447.117-.702c0-.254-.039-.488-.117-.7-.076-.215-.194-.387-.353-.516-.159-.13-.359-.195-.601-.195-.244,0-.446.065-.607.195-.159.129-.277.301-.355.516-.076.212-.114.446-.114.7c0,.255.038.49.114.702.078.213.196.383.355.511.161.128.363.192.607.192Zm2.719.57v-3.982h.744v.648h.049c.083-.219.219-.39.407-.513.188-.124.414-.187.677-.187.266,0,.489.063.668.187.182.124.316.296.402.513h.042c.095-.212.246-.382.453-.508.208-.128.455-.192.742-.192.361,0,.656.114.884.34.23.226.344.568.344,1.024v2.67h-.775v-2.598c0-.269-.073-.464-.22-.585s-.322-.182-.526-.182c-.253,0-.449.078-.589.233-.14.154-.21.352-.21.594v2.538h-.772v-2.647c0-.216-.068-.389-.202-.521-.135-.131-.311-.197-.527-.197-.147,0-.282.039-.407.117-.122.076-.222.182-.298.319-.074.136-.111.294-.111.474v2.455h-.775Zm6.451,1.493v-5.475h.757v.646h.065c.045-.083.11-.179.195-.288.084-.109.202-.204.352-.285.15-.083.349-.125.596-.125.322,0,.609.082.861.244s.45.397.594.703c.145.305.217.674.217,1.104s-.071.799-.215,1.107c-.143.306-.34.542-.591.707-.25.165-.536.247-.858.247-.242,0-.44-.041-.594-.122-.152-.081-.271-.176-.357-.285-.087-.109-.153-.206-.2-.291h-.047v2.113h-.775Zm.76-3.484c0,.28.041.525.122.736s.198.376.352.495c.154.118.342.177.565.177.232,0,.426-.062.581-.184.156-.125.273-.293.353-.506.081-.212.122-.452.122-.718c0-.263-.04-.499-.12-.708-.078-.209-.195-.374-.352-.495-.156-.121-.35-.181-.584-.181-.224,0-.414.058-.57.173-.154.116-.27.278-.35.485-.079.208-.119.45-.119.726Z" transform="translate(.239 0)"/><path id="screen4-s-path57" d="M83.5227,546h-1.8835v-5.818h1.9432c.5701,0,1.0596.116,1.4687.349.4091.231.7226.564.9404.997.2197.432.3295.95.3295,1.554c0,.606-.1108,1.127-.3324,1.563-.2197.435-.5378.771-.9545,1.006-.4167.233-.9205.349-1.5114.349Zm-1.0057-.767h.9574c.4432,0,.8116-.083,1.1051-.25.2936-.169.5133-.412.6591-.73.1459-.32.2188-.71.2188-1.171c0-.456-.0729-.843-.2188-1.162-.1439-.318-.3589-.559-.6448-.724-.286-.165-.6411-.247-1.0654-.247h-1.0114v4.284Zm6.0973.864c-.2765,0-.5265-.052-.75-.154-.2234-.104-.4005-.255-.5312-.452-.1288-.196-.1932-.438-.1932-.724c0-.246.0474-.449.1421-.608s.2225-.285.3835-.378.3409-.163.5398-.21.4015-.083.6079-.108c.2614-.03.4735-.055.6364-.074.1629-.021.2812-.054.3551-.099.0739-.046.1108-.12.1108-.222v-.02c0-.248-.0701-.44-.2102-.576-.1383-.137-.3447-.205-.6194-.205-.2859,0-.5113.063-.6761.19-.1629.125-.2756.265-.3381.418l-.7983-.182c.0947-.265.233-.479.4148-.642.1837-.165.3949-.284.6335-.358.2387-.076.4896-.113.7529-.113.1742,0,.3589.02.554.062.1969.04.3806.114.5511.222.1723.108.3134.262.4233.463.1098.199.1648.457.1648.775v2.898h-.8296v-.597h-.0341c-.0549.11-.1373.218-.2471.324s-.251.194-.4233.264c-.1724.071-.3788.106-.6194.106Zm.1847-.682c.2349,0,.4356-.047.6023-.139.1685-.093.2964-.214.3835-.364.089-.152.1335-.314.1335-.486v-.562c-.0303.03-.089.058-.1761.085-.0852.024-.1828.046-.2926.065-.1099.017-.2169.033-.321.048-.1042.014-.1913.025-.2614.035-.1648.02-.3154.055-.4517.105-.1345.049-.2424.12-.3239.213-.0795.091-.1193.212-.1193.363c0,.211.0777.37.233.478.1553.106.3532.159.5937.159Zm5.1371-3.779v.682h-2.3835v-.682h2.3835Zm-1.7443-1.045h.8494v4.128c0,.165.0246.289.0739.372.0492.081.1126.137.1903.168.0795.028.1657.042.2585.042.0682,0,.1279-.005.179-.014.0511-.01.0909-.017.1193-.023l.1534.702c-.0492.019-.1193.038-.2102.057-.0909.021-.2045.032-.3409.034-.2235.004-.4318-.036-.625-.119-.1932-.084-.3494-.213-.4688-.387-.1193-.174-.1789-.393-.1789-.656v-4.304Zm4.5177,5.497c-.4299,0-.8002-.092-1.1108-.276-.3087-.185-.5473-.446-.7159-.781-.1667-.337-.25-.732-.25-1.184c0-.447.0833-.841.25-1.182.1686-.341.4034-.607.7046-.799.303-.191.6572-.286,1.0625-.286.2462,0,.4848.04.7159.122.231.081.4384.209.6221.383s.3286.401.4347.679c.106.277.1591.613.1591,1.009v.301h-3.4688v-.636h2.6364c0-.224-.0455-.422-.1364-.594-.0909-.174-.2187-.312-.3835-.412-.1629-.101-.3542-.151-.5739-.151-.2386,0-.4469.059-.625.176-.1761.116-.3125.267-.4091.455-.0946.186-.142.387-.142.605v.497c0,.292.0511.54.1534.745.1042.204.2491.36.4347.468.1856.106.4024.159.6505.159.161,0,.3078-.022.4404-.068.1326-.047.2471-.117.3437-.21s.1705-.207.2216-.344l.804.145c-.0644.237-.1799.444-.3466.622-.1648.176-.3722.314-.6222.412-.2481.097-.5312.145-.8494.145Z"/><path id="screen4-s-path58" d="M482.359,540.38v-.689h4.109v.689h-1.657v4.62h-.798v-4.62h-1.654Zm6.054,4.7c-.373,0-.699-.085-.977-.256s-.494-.411-.648-.718c-.154-.308-.231-.667-.231-1.079c0-.413.077-.774.231-1.083.154-.31.37-.55.648-.721s.604-.257.977-.257.699.086.977.257c.279.171.495.411.649.721.153.309.23.67.23,1.083c0,.412-.077.771-.23,1.079-.154.307-.37.547-.649.718-.278.171-.604.256-.977.256Zm.003-.65c.242,0,.442-.064.601-.192s.277-.298.353-.511c.078-.212.116-.447.116-.702c0-.254-.038-.488-.116-.7-.076-.215-.194-.387-.353-.516-.159-.13-.359-.195-.601-.195-.244,0-.446.065-.607.195-.159.129-.277.301-.355.516-.076.212-.114.446-.114.7c0,.255.038.49.114.702.078.213.196.383.355.511.161.128.363.192.607.192Zm4.577-3.412v.622h-2.175v-.622h2.175Zm-1.592-.954h.776v3.767c0,.15.022.263.067.339.045.075.103.126.174.153.072.026.151.039.236.039.062,0,.116-.004.163-.013.047-.008.083-.015.109-.02l.14.64c-.045.017-.109.034-.192.052-.083.019-.187.029-.311.031-.204.003-.394-.033-.57-.109-.177-.076-.319-.194-.428-.353s-.164-.358-.164-.598v-3.928Zm3.608,5.024c-.252,0-.48-.047-.684-.14-.204-.095-.366-.232-.485-.412-.117-.18-.176-.4-.176-.661c0-.225.043-.41.13-.555.086-.145.203-.26.35-.345.146-.084.311-.148.492-.191.182-.044.366-.076.555-.099.238-.028.432-.05.581-.067.148-.019.256-.05.324-.091.067-.042.101-.109.101-.202v-.018c0-.227-.064-.402-.192-.527-.126-.124-.315-.186-.565-.186-.261,0-.467.058-.617.173-.149.114-.252.241-.309.381l-.728-.165c.086-.242.212-.438.378-.586.168-.151.361-.26.578-.327.218-.069.447-.104.687-.104.159,0,.328.019.506.057.18.037.347.104.503.203.157.098.286.239.386.422.1.182.15.417.15.708v2.644h-.757v-.544h-.031c-.05.1-.125.198-.225.295s-.229.177-.387.241c-.157.064-.345.096-.565.096Zm.169-.622c.214,0,.397-.042.549-.127.154-.085.271-.195.35-.332.082-.138.122-.286.122-.443v-.513c-.027.027-.081.053-.16.077-.078.023-.167.043-.267.06-.101.016-.198.03-.293.044-.095.012-.175.022-.239.031-.15.019-.288.051-.412.096-.123.045-.221.11-.296.194-.072.083-.108.194-.108.332c0,.192.07.337.212.436.142.097.322.145.542.145Zm3.604-4.775v5.309h-.775v-5.309h.775Z"/><path id="screen4-s-path59" d="M116.352,540.938v-.756h4.503v.756h-1.815v5.062h-.875v-5.062h-1.813Zm5.43,5.062v-4.364h.849v4.364h-.849Zm.429-5.037c-.148,0-.275-.049-.381-.148-.104-.1-.156-.219-.156-.358c0-.14.052-.259.156-.358.106-.1.233-.15.381-.15s.274.05.378.15c.106.099.159.218.159.358c0,.139-.053.258-.159.358-.104.099-.23.148-.378.148ZM123.774,546v-4.364h.815v.711h.054c.091-.241.24-.428.446-.563.207-.136.454-.204.742-.204.292,0,.536.068.733.204.199.136.346.324.44.563h.046c.104-.233.27-.419.497-.557.227-.14.498-.21.812-.21.396,0,.719.124.969.372.252.248.378.622.378,1.122v2.926h-.849v-2.847c0-.295-.081-.509-.242-.642-.161-.132-.353-.199-.577-.199-.276,0-.491.086-.645.256-.153.169-.23.386-.23.651v2.781h-.846v-2.901c0-.236-.074-.427-.222-.571s-.34-.216-.577-.216c-.161,0-.309.043-.446.128-.134.084-.243.2-.326.35-.082.149-.122.323-.122.52v2.69h-.85Zm8.951.088c-.43,0-.8-.092-1.111-.276-.308-.185-.547-.446-.716-.781-.166-.337-.25-.732-.25-1.184c0-.447.084-.841.25-1.182.169-.341.404-.607.705-.799.303-.191.657-.286,1.062-.286.247,0,.485.04.716.122.231.081.439.209.623.383.183.174.328.401.434.679.106.277.159.613.159,1.009v.301h-3.468v-.636h2.636c0-.224-.046-.422-.136-.594-.091-.174-.219-.312-.384-.412-.163-.101-.354-.151-.574-.151-.238,0-.447.059-.625.176-.176.116-.312.267-.409.455-.095.186-.142.387-.142.605v.497c0,.292.051.54.153.745.105.204.249.36.435.468.186.106.403.159.651.159.161,0,.307-.022.44-.068.133-.047.247-.117.344-.21.096-.093.17-.207.221-.344l.804.145c-.064.237-.18.444-.346.622-.165.176-.372.314-.622.412-.249.097-.532.145-.85.145Z"/><path id="screen4-s-path60" d="M37.2707,556.091c0,.621-.1136,1.155-.3409,1.602-.2273.445-.5388.788-.9346,1.029-.394.238-.8419.358-1.3438.358-.5038,0-.9536-.12-1.3494-.358-.394-.241-.7046-.585-.9318-1.032s-.341-.98-.341-1.599c0-.621.1137-1.154.341-1.6s.5378-.789.9318-1.028c.3958-.24.8456-.361,1.3494-.361.5019,0,.9498.121,1.3438.361.3958.239.7073.582.9346,1.028s.3409.979.3409,1.6Zm-.8693,0c0-.474-.0767-.872-.2301-1.196-.1515-.326-.3599-.572-.625-.739-.2633-.168-.5616-.253-.8949-.253-.3352,0-.6345.085-.8977.253-.2633.167-.4716.413-.625.739-.1515.324-.2273.722-.2273,1.196c0,.473.0758.873.2273,1.199.1534.324.3617.57.625.738.2632.167.5625.25.8977.25.3333,0,.6316-.083.8949-.25.2651-.168.4735-.414.625-.738.1534-.326.2301-.726.2301-1.199Zm5.1371-1.381c-.0303-.269-.1553-.477-.375-.625-.2197-.149-.4962-.224-.8296-.224-.2386,0-.445.038-.6193.113-.1742.074-.3096.177-.4062.307-.0947.129-.1421.276-.1421.441c0,.138.0322.257.0966.358.0663.1.1525.184.2585.252.108.067.2235.123.3466.168.1231.044.2415.08.3551.108l.5682.148c.1856.045.376.107.571.184.1951.078.376.18.5427.307.1666.127.3011.284.4034.472.1041.187.1562.412.1562.673c0,.33-.0852.622-.2557.878-.1685.256-.4138.457-.7358.605-.32.148-.7073.222-1.1619.222-.4356,0-.8125-.07-1.1307-.208s-.5672-.334-.7471-.588c-.18-.256-.2794-.559-.2983-.909h.8807c.017.21.0852.385.2045.526.1212.138.2756.241.4631.309.1894.067.3967.1.6221.1.2481,0,.4688-.039.662-.117.195-.079.3484-.189.4602-.329.1117-.142.1676-.308.1676-.497c0-.173-.0492-.314-.1477-.424-.0966-.11-.2282-.201-.3949-.272-.1648-.072-.3513-.136-.5597-.191l-.6875-.187c-.4659-.127-.8352-.314-1.1079-.56-.2709-.246-.4063-.572-.4063-.977c0-.336.0909-.628.2728-.878.1818-.25.428-.444.7386-.583.3106-.14.661-.21,1.0511-.21.394,0,.7415.069,1.0426.208.3031.138.5417.328.7159.571.1743.24.2652.517.2728.829h-.8466Z"/><path id="screen4-s-path61" d="M33.7784,573l-1.6136-5.818h.9233l1.1335,4.506h.054l1.1789-4.506h.9148l1.179,4.508h.054l1.1307-4.508h.9261L38.0426,573h-.8835l-1.2244-4.358h-.0455L34.6648,573h-.8864Zm9.8388-4.29c-.0303-.269-.1553-.477-.375-.625-.2197-.149-.4962-.224-.8296-.224-.2386,0-.445.038-.6193.113-.1742.074-.3096.177-.4062.307-.0947.129-.1421.276-.1421.441c0,.138.0322.257.0966.358.0663.1.1525.184.2585.252.108.067.2235.123.3466.168.1231.044.2415.08.3551.108l.5682.148c.1856.045.376.107.5711.184.195.078.3759.18.5426.307s.3011.284.4034.472c.1041.187.1562.412.1562.673c0,.33-.0852.622-.2557.878-.1685.256-.4138.457-.7358.605-.32.148-.7073.222-1.1619.222-.4356,0-.8125-.07-1.1307-.208s-.5672-.334-.7471-.588c-.18-.256-.2794-.559-.2983-.909h.8807c.017.21.0852.385.2045.526.1212.138.2756.241.4631.309.1894.067.3968.1.6221.1.2481,0,.4688-.039.662-.117.195-.079.3484-.189.4602-.329.1117-.142.1676-.308.1676-.497c0-.173-.0492-.314-.1477-.424-.0966-.11-.2282-.201-.3949-.272-.1648-.072-.3513-.136-.5597-.191l-.6875-.187c-.4659-.127-.8352-.314-1.1079-.56-.2709-.246-.4063-.572-.4063-.977c0-.336.0909-.628.2728-.878.1818-.25.428-.444.7386-.583.3106-.14.661-.21,1.0511-.21.394,0,.7415.069,1.0426.208.3031.138.5417.328.716.571.1742.24.2651.517.2727.829h-.8466Z"/><path id="screen4-s-path62" d="M32.7082,587h-.9318l2.0938-5.818h1.0142L36.9781,587h-.9318l-1.6449-4.761h-.0454L32.7082,587Zm.1563-2.278h3.0227v.738h-3.0227v-.738Zm8.0802-2.012c-.0303-.269-.1553-.477-.375-.625-.2197-.149-.4962-.224-.8295-.224-.2386,0-.4451.038-.6193.113-.1743.074-.3097.177-.4063.307-.0947.129-.142.276-.142.441c0,.138.0322.257.0966.358.0663.1.1524.184.2585.252.1079.067.2235.123.3466.168.1231.044.2415.08.3551.108l.5682.148c.1856.045.3759.107.571.184.1951.078.3759.18.5426.307s.3011.284.4034.472c.1042.187.1563.412.1563.673c0,.33-.0853.622-.2557.878-.1686.256-.4138.457-.7358.605-.3201.148-.7074.222-1.1619.222-.4356,0-.8125-.07-1.1307-.208s-.5673-.334-.7472-.588c-.1799-.256-.2793-.559-.2983-.909h.8807c.0171.21.0852.385.2046.526.1212.138.2755.241.463.309.1894.067.3968.1.6222.1.2481,0,.4687-.039.6619-.117.1951-.079.3485-.189.4602-.329.1118-.142.1677-.308.1677-.497c0-.173-.0493-.314-.1478-.424-.0966-.11-.2282-.201-.3949-.272-.1647-.072-.3513-.136-.5596-.191l-.6875-.187c-.4659-.127-.8352-.314-1.108-.56-.2708-.246-.4062-.572-.4062-.977c0-.336.0909-.628.2727-.878s.428-.444.7386-.583c.3106-.14.661-.21,1.0512-.21.3939,0,.7415.069,1.0426.208.303.138.5417.328.7159.571.1742.24.2651.517.2727.829h-.8466Z"/><path id="screen4-s-path63" d="M32.2167,603v-5.818h3.6478v.756h-2.7699v1.772h2.5795v.753h-2.5795v1.781h2.804v.756h-3.6819Zm4.8204,0v-5.818h2.0738c.4527,0,.8277.082,1.125.247s.5199.39.6676.676c.1478.284.2216.604.2216.96c0,.358-.0748.68-.2244.966-.1477.284-.3712.51-.6705.676-.2973.165-.6714.248-1.1221.248h-1.4262v-.745h1.3466c.286,0,.518-.049.6961-.148.178-.1.3087-.236.392-.409.0833-.172.125-.368.125-.588c0-.219-.0417-.414-.125-.585-.0833-.17-.215-.304-.3949-.4-.178-.097-.4129-.145-.7045-.145h-1.1023v5.065h-.8778Z"/><rect id="screen4-s-rect5" width="34.8037" height="15" rx="0" ry="0" transform="translate(471.6963 520)" fill="#d9d9d9"/><path id="screen4-s-path64" d="M476.226,530.978c-.354,0-.672-.069-.955-.205-.28-.138-.505-.328-.672-.568-.168-.241-.257-.515-.268-.824h.847c.021.25.131.455.331.616.199.161.439.242.717.242.223,0,.42-.051.591-.153.173-.105.308-.248.406-.429.1-.182.151-.39.151-.623c0-.236-.052-.448-.153-.633-.102-.186-.242-.332-.421-.438-.177-.106-.381-.16-.611-.162-.175,0-.351.031-.528.091-.177.061-.32.14-.429.239l-.8-.119.325-2.932h3.181v.753h-2.455l-.184,1.627h.034c.114-.109.264-.201.45-.275.188-.074.389-.111.604-.111.352,0,.666.084.941.253.276.169.494.399.652.69.16.29.24.623.238,1c.002.377-.083.713-.255,1.009-.169.295-.404.528-.706.699-.299.168-.643.253-1.031.253Zm3.382-.026c-.155,0-.287-.055-.399-.165-.111-.112-.167-.246-.167-.403c0-.156.056-.288.167-.398.112-.112.244-.168.399-.168.154,0,.287.056.398.168.111.11.167.242.167.398c0,.104-.027.2-.08.287-.05.085-.118.153-.203.204-.084.051-.179.077-.282.077Zm1.563-1.19v-.711l2.5-3.971h.557v1.045h-.353l-1.788,2.847v.045h3.427v.745h-4.343Zm2.744,1.136v-1.352l.005-.324v-4.142h.828v5.818h-.833Zm4.538.08c-.406,0-.763-.071-1.074-.211-.309-.14-.551-.333-.726-.579s-.261-.527-.259-.841c-.002-.246.048-.473.149-.679.103-.208.244-.382.421-.52.177-.14.374-.229.593-.267v-.034c-.288-.07-.519-.226-.692-.466-.173-.241-.258-.517-.257-.83-.001-.297.076-.562.234-.795.16-.235.38-.42.659-.554.278-.134.596-.202.952-.202.352,0,.666.068.943.205.279.134.498.319.658.554.16.233.242.497.244.792-.002.313-.091.589-.266.83-.175.24-.403.396-.684.466v.034c.217.038.412.127.585.267.175.138.314.312.418.52.106.206.16.433.162.679-.002.314-.091.595-.266.841-.176.246-.419.439-.729.579-.309.14-.664.211-1.065.211Zm0-.719c.239,0,.446-.04.622-.12.175-.081.31-.194.406-.338.096-.145.145-.316.147-.511-.002-.203-.055-.382-.159-.537-.101-.155-.239-.277-.414-.366s-.376-.134-.602-.134c-.229,0-.43.045-.607.134s-.317.211-.419.366c-.101.155-.151.334-.149.537-.002.195.044.366.138.511.096.144.233.257.41.338.177.08.386.12.627.12Zm0-2.708c.192,0,.362-.038.511-.116.148-.078.266-.186.35-.324.087-.138.132-.3.134-.486-.002-.182-.046-.341-.131-.477-.082-.136-.199-.241-.348-.315-.148-.076-.32-.114-.516-.114-.2,0-.375.038-.526.114-.148.074-.264.179-.347.315s-.123.295-.121.477c-.002.186.039.348.124.486s.201.246.35.324c.15.078.324.116.52.116Zm5.256,3.347v-5.818h2.062c.45,0,.823.082,1.119.247.295.165.517.39.664.676.146.284.22.604.22.96c0,.358-.075.68-.223.966-.147.284-.369.51-.667.676-.296.165-.668.248-1.116.248h-1.418v-.745h1.339c.285,0,.515-.049.692-.148.177-.1.307-.236.39-.409.083-.172.125-.368.125-.588c0-.219-.042-.414-.125-.585-.083-.17-.214-.304-.393-.4-.177-.097-.41-.145-.701-.145h-1.095v5.065h-.873Zm5.088-5.818h1.06l1.841,4.523h.068l1.842-4.523h1.06v5.818h-.832v-4.21h-.053l-1.706,4.201h-.69l-1.706-4.204h-.054v4.213h-.83v-5.818Z" transform="translate(.3483 0)"/></svg>
